# MagicaVoxel @ Ephtracy

# group
o 

# material
mtllib tree2.mtl
usemtl palette

# normals
vn -1 0 0
vn 1 0 0
vn 0 0 1
vn 0 0 -1
vn 0 -1 0
vn 0 1 0

# texcoords
vt 0.111328 0.5
vt 0.556641 0.5

# verts
v -0.5 1.6 0.5
v -0.5 1.6 -0.5
v -0.5 2.3 0.5
v -0.5 2.3 -0.5
v -0.4 1.5 0.4
v -0.4 1.5 -0.4
v -0.4 1.6 0.4
v -0.4 1.6 -0.4
v -0.4 2.3 0.4
v -0.4 2.3 -0.4
v -0.4 2.4 0.4
v -0.4 2.4 -0.4
v -0.1 0 0.1
v -0.1 0 -0.1
v -0.1 1.5 0.1
v -0.1 1.5 -0.1
v 0.1 0 0.1
v 0.1 0 -0.1
v 0.1 1.5 0.1
v 0.1 1.5 -0.1
v 0.4 1.5 0.4
v 0.4 1.5 -0.4
v 0.4 1.6 0.4
v 0.4 1.6 -0.4
v 0.4 2.3 0.4
v 0.4 2.3 -0.4
v 0.4 2.4 0.4
v 0.4 2.4 -0.4
v 0.5 1.6 0.5
v 0.5 1.6 -0.5
v 0.5 2.3 0.5
v 0.5 2.3 -0.5
v -0.5 1.6 0.5
v -0.5 2.3 0.5
v 0.5 1.6 0.5
v 0.5 2.3 0.5
v -0.4 1.5 0.4
v -0.4 1.6 0.4
v -0.4 2.3 0.4
v -0.4 2.4 0.4
v 0.4 1.5 0.4
v 0.4 1.6 0.4
v 0.4 2.3 0.4
v 0.4 2.4 0.4
v -0.1 0 0.1
v -0.1 1.5 0.1
v 0.1 0 0.1
v 0.1 1.5 0.1
v -0.1 0 -0.1
v -0.1 1.5 -0.1
v 0.1 0 -0.1
v 0.1 1.5 -0.1
v -0.4 1.5 -0.4
v -0.4 1.6 -0.4
v -0.4 2.3 -0.4
v -0.4 2.4 -0.4
v 0.4 1.5 -0.4
v 0.4 1.6 -0.4
v 0.4 2.3 -0.4
v 0.4 2.4 -0.4
v -0.5 1.6 -0.5
v -0.5 2.3 -0.5
v 0.5 1.6 -0.5
v 0.5 2.3 -0.5
v -0.1 0 0.1
v 0.1 0 0.1
v -0.1 0 -0.1
v 0.1 0 -0.1
v -0.4 1.5 0.4
v 0.4 1.5 0.4
v -0.1 1.5 0.1
v 0.1 1.5 0.1
v -0.1 1.5 -0.1
v 0.1 1.5 -0.1
v -0.4 1.5 -0.4
v 0.4 1.5 -0.4
v -0.5 1.6 0.5
v 0.5 1.6 0.5
v -0.4 1.6 0.4
v 0.4 1.6 0.4
v -0.4 1.6 -0.4
v 0.4 1.6 -0.4
v -0.5 1.6 -0.5
v 0.5 1.6 -0.5
v -0.5 2.3 0.5
v 0.5 2.3 0.5
v -0.4 2.3 0.4
v 0.4 2.3 0.4
v -0.4 2.3 -0.4
v 0.4 2.3 -0.4
v -0.5 2.3 -0.5
v 0.5 2.3 -0.5
v -0.4 2.4 0.4
v 0.4 2.4 0.4
v -0.4 2.4 -0.4
v 0.4 2.4 -0.4

# faces
f 3/2/1 2/2/1 1/2/1
f 4/2/1 2/2/1 3/2/1
f 7/2/1 6/2/1 5/2/1
f 8/2/1 6/2/1 7/2/1
f 11/2/1 10/2/1 9/2/1
f 12/2/1 10/2/1 11/2/1
f 15/1/1 14/1/1 13/1/1
f 16/1/1 14/1/1 15/1/1
f 17/1/2 18/1/2 19/1/2
f 19/1/2 18/1/2 20/1/2
f 21/2/2 22/2/2 23/2/2
f 23/2/2 22/2/2 24/2/2
f 25/2/2 26/2/2 27/2/2
f 27/2/2 26/2/2 28/2/2
f 29/2/2 30/2/2 31/2/2
f 31/2/2 30/2/2 32/2/2
f 35/2/3 34/2/3 33/2/3
f 36/2/3 34/2/3 35/2/3
f 41/2/3 38/2/3 37/2/3
f 42/2/3 38/2/3 41/2/3
f 43/2/3 40/2/3 39/2/3
f 44/2/3 40/2/3 43/2/3
f 47/1/3 46/1/3 45/1/3
f 48/1/3 46/1/3 47/1/3
f 49/1/4 50/1/4 51/1/4
f 51/1/4 50/1/4 52/1/4
f 53/2/4 54/2/4 57/2/4
f 57/2/4 54/2/4 58/2/4
f 55/2/4 56/2/4 59/2/4
f 59/2/4 56/2/4 60/2/4
f 61/2/4 62/2/4 63/2/4
f 63/2/4 62/2/4 64/2/4
f 67/1/5 66/1/5 65/1/5
f 68/1/5 66/1/5 67/1/5
f 71/2/5 70/2/5 69/2/5
f 72/2/5 70/2/5 71/2/5
f 73/2/5 71/2/5 69/2/5
f 74/2/5 70/2/5 72/2/5
f 75/2/5 73/2/5 69/2/5
f 75/2/5 74/2/5 73/2/5
f 76/2/5 70/2/5 74/2/5
f 76/2/5 74/2/5 75/2/5
f 79/2/5 78/2/5 77/2/5
f 80/2/5 78/2/5 79/2/5
f 81/2/5 79/2/5 77/2/5
f 82/2/5 78/2/5 80/2/5
f 83/2/5 81/2/5 77/2/5
f 83/2/5 82/2/5 81/2/5
f 84/2/5 78/2/5 82/2/5
f 84/2/5 82/2/5 83/2/5
f 85/2/6 86/2/6 87/2/6
f 87/2/6 86/2/6 88/2/6
f 85/2/6 87/2/6 89/2/6
f 88/2/6 86/2/6 90/2/6
f 85/2/6 89/2/6 91/2/6
f 89/2/6 90/2/6 91/2/6
f 90/2/6 86/2/6 92/2/6
f 91/2/6 90/2/6 92/2/6
f 93/2/6 94/2/6 95/2/6
f 95/2/6 94/2/6 96/2/6
