# MagicaVoxel @ Ephtracy

# group
o 

# material
mtllib tree1.mtl
usemtl palette

# normals
vn -1 0 0
vn 1 0 0
vn 0 0 1
vn 0 0 -1
vn 0 -1 0
vn 0 1 0

# texcoords
vt 0.111328 0.5
vt 0.556641 0.5

# verts
v -0.7 1.3 0.1
v -0.7 1.3 -0.4
v -0.7 1.6 0.1
v -0.7 1.6 -0.4
v -0.6 1.2 0
v -0.6 1.2 -0.3
v -0.6 1.3 0
v -0.6 1.3 -0.3
v -0.6 1.6 0
v -0.6 1.6 -0.3
v -0.6 1.7 0
v -0.6 1.7 -0.3
v -0.5 0.9 -0.1
v -0.5 0.9 -0.2
v -0.5 1.2 -0.1
v -0.5 1.2 -0.2
v -0.5 2.2 0.4
v -0.5 2.2 -0.6
v -0.5 2.9 0.4
v -0.5 2.9 -0.6
v -0.4 2.1 0.3
v -0.4 2.1 -0.5
v -0.4 2.2 0.3
v -0.4 2.2 -0.5
v -0.4 2.9 0.3
v -0.4 2.9 -0.5
v -0.4 3 0.3
v -0.4 3 -0.5
v -0.1 0 0
v -0.1 0 -0.2
v -0.1 0.9 -0.1
v -0.1 0.9 -0.2
v -0.1 1 -0.1
v -0.1 1 -0.2
v -0.1 1.5 0.3
v -0.1 1.5 0
v -0.1 1.8 0.3
v -0.1 1.8 0
v -0.1 2.1 0
v -0.1 2.1 -0.2
v 0 1.3 0.2
v 0 1.3 0
v 0 1.4 0.1
v 0 1.4 0
v 0 1.5 0.2
v 0 1.5 0.1
v -0.4 1 -0.1
v -0.4 1 -0.2
v -0.4 1.2 -0.1
v -0.4 1.2 -0.2
v -0.3 1.2 0
v -0.3 1.2 -0.3
v -0.3 1.3 0
v -0.3 1.3 -0.3
v -0.3 1.6 0
v -0.3 1.6 -0.3
v -0.3 1.7 0
v -0.3 1.7 -0.3
v -0.2 1.3 0.1
v -0.2 1.3 -0.4
v -0.2 1.6 0.1
v -0.2 1.6 -0.4
v 0.1 0 0
v 0.1 0 -0.2
v 0.1 1.3 0.2
v 0.1 1.3 0
v 0.1 1.4 0.1
v 0.1 1.4 0
v 0.1 1.5 0.2
v 0.1 1.5 0.1
v 0.1 1.5 0
v 0.1 1.8 0
v 0.1 2.1 0
v 0.1 2.1 -0.2
v 0.2 1.5 0.3
v 0.2 1.5 0
v 0.2 1.8 0.3
v 0.2 1.8 0
v 0.4 2.1 0.3
v 0.4 2.1 -0.5
v 0.4 2.2 0.3
v 0.4 2.2 -0.5
v 0.4 2.9 0.3
v 0.4 2.9 -0.5
v 0.4 3 0.3
v 0.4 3 -0.5
v 0.5 2.2 0.4
v 0.5 2.2 -0.6
v 0.5 2.9 0.4
v 0.5 2.9 -0.6
v -0.5 2.2 0.4
v -0.5 2.9 0.4
v 0.5 2.2 0.4
v 0.5 2.9 0.4
v -0.4 2.1 0.3
v -0.4 2.2 0.3
v -0.4 2.9 0.3
v -0.4 3 0.3
v -0.1 1.5 0.3
v -0.1 1.8 0.3
v 0.2 1.5 0.3
v 0.2 1.8 0.3
v 0.4 2.1 0.3
v 0.4 2.2 0.3
v 0.4 2.9 0.3
v 0.4 3 0.3
v 0 1.3 0.2
v 0 1.5 0.2
v 0.1 1.3 0.2
v 0.1 1.5 0.2
v -0.7 1.3 0.1
v -0.7 1.6 0.1
v -0.2 1.3 0.1
v -0.2 1.6 0.1
v -0.6 1.2 0
v -0.6 1.3 0
v -0.6 1.6 0
v -0.6 1.7 0
v -0.3 1.2 0
v -0.3 1.3 0
v -0.3 1.6 0
v -0.3 1.7 0
v -0.1 0 0
v -0.1 1.5 0
v -0.1 1.8 0
v -0.1 2.1 0
v 0 1.3 0
v 0 1.4 0
v 0.1 0 0
v 0.1 1.3 0
v 0.1 1.4 0
v 0.1 1.5 0
v 0.1 1.8 0
v 0.1 2.1 0
v -0.5 0.9 -0.1
v -0.5 1.2 -0.1
v -0.4 1 -0.1
v -0.4 1.2 -0.1
v -0.1 0.9 -0.1
v -0.1 1 -0.1
v 0 1.4 0.1
v 0 1.5 0.1
v 0.1 1.4 0.1
v 0.1 1.5 0.1
v 0.1 1.5 0
v 0.1 1.8 0
v 0.2 1.5 0
v 0.2 1.8 0
v -0.5 0.9 -0.2
v -0.5 1.2 -0.2
v -0.4 1 -0.2
v -0.4 1.2 -0.2
v -0.1 0 -0.2
v -0.1 0.9 -0.2
v -0.1 1 -0.2
v -0.1 2.1 -0.2
v 0.1 0 -0.2
v 0.1 2.1 -0.2
v -0.6 1.2 -0.3
v -0.6 1.3 -0.3
v -0.6 1.6 -0.3
v -0.6 1.7 -0.3
v -0.3 1.2 -0.3
v -0.3 1.3 -0.3
v -0.3 1.6 -0.3
v -0.3 1.7 -0.3
v -0.7 1.3 -0.4
v -0.7 1.6 -0.4
v -0.2 1.3 -0.4
v -0.2 1.6 -0.4
v -0.4 2.1 -0.5
v -0.4 2.2 -0.5
v -0.4 2.9 -0.5
v -0.4 3 -0.5
v 0.4 2.1 -0.5
v 0.4 2.2 -0.5
v 0.4 2.9 -0.5
v 0.4 3 -0.5
v -0.5 2.2 -0.6
v -0.5 2.9 -0.6
v 0.5 2.2 -0.6
v 0.5 2.9 -0.6
v -0.1 0 0
v 0.1 0 0
v -0.1 0 -0.2
v 0.1 0 -0.2
v -0.5 0.9 -0.1
v -0.1 0.9 -0.1
v -0.5 0.9 -0.2
v -0.1 0.9 -0.2
v -0.6 1.2 0
v -0.3 1.2 0
v -0.5 1.2 -0.1
v -0.4 1.2 -0.1
v -0.5 1.2 -0.2
v -0.4 1.2 -0.2
v -0.6 1.2 -0.3
v -0.3 1.2 -0.3
v 0 1.3 0.2
v 0.1 1.3 0.2
v -0.7 1.3 0.1
v -0.2 1.3 0.1
v -0.6 1.3 0
v -0.3 1.3 0
v 0 1.3 0
v 0.1 1.3 0
v -0.6 1.3 -0.3
v -0.3 1.3 -0.3
v -0.7 1.3 -0.4
v -0.2 1.3 -0.4
v -0.1 1.5 0.3
v 0.2 1.5 0.3
v 0 1.5 0.2
v 0.1 1.5 0.2
v 0 1.5 0.1
v 0.1 1.5 0.1
v -0.1 1.5 0
v 0.1 1.5 0
v 0.2 1.5 0
v -0.4 2.1 0.3
v 0.4 2.1 0.3
v -0.1 2.1 0
v 0.1 2.1 0
v -0.1 2.1 -0.2
v 0.1 2.1 -0.2
v -0.4 2.1 -0.5
v 0.4 2.1 -0.5
v -0.5 2.2 0.4
v 0.5 2.2 0.4
v -0.4 2.2 0.3
v 0.4 2.2 0.3
v -0.4 2.2 -0.5
v 0.4 2.2 -0.5
v -0.5 2.2 -0.6
v 0.5 2.2 -0.6
v -0.4 1 -0.1
v -0.1 1 -0.1
v -0.4 1 -0.2
v -0.1 1 -0.2
v 0 1.4 0.1
v 0.1 1.4 0.1
v 0 1.4 0
v 0.1 1.4 0
v -0.7 1.6 0.1
v -0.2 1.6 0.1
v -0.6 1.6 0
v -0.3 1.6 0
v -0.6 1.6 -0.3
v -0.3 1.6 -0.3
v -0.7 1.6 -0.4
v -0.2 1.6 -0.4
v -0.6 1.7 0
v -0.3 1.7 0
v -0.6 1.7 -0.3
v -0.3 1.7 -0.3
v -0.1 1.8 0.3
v 0.2 1.8 0.3
v -0.1 1.8 0
v 0.1 1.8 0
v 0.2 1.8 0
v -0.5 2.9 0.4
v 0.5 2.9 0.4
v -0.4 2.9 0.3
v 0.4 2.9 0.3
v -0.4 2.9 -0.5
v 0.4 2.9 -0.5
v -0.5 2.9 -0.6
v 0.5 2.9 -0.6
v -0.4 3 0.3
v 0.4 3 0.3
v -0.4 3 -0.5
v 0.4 3 -0.5

# faces
f 3/2/1 2/2/1 1/2/1
f 4/2/1 2/2/1 3/2/1
f 7/2/1 6/2/1 5/2/1
f 8/2/1 6/2/1 7/2/1
f 11/2/1 10/2/1 9/2/1
f 12/2/1 10/2/1 11/2/1
f 15/1/1 14/1/1 13/1/1
f 16/1/1 14/1/1 15/1/1
f 19/2/1 18/2/1 17/2/1
f 20/2/1 18/2/1 19/2/1
f 23/2/1 22/2/1 21/2/1
f 24/2/1 22/2/1 23/2/1
f 27/2/1 26/2/1 25/2/1
f 28/2/1 26/2/1 27/2/1
f 31/1/1 30/1/1 29/1/1
f 32/1/1 30/1/1 31/1/1
f 33/1/1 31/1/1 29/1/1
f 36/1/1 33/1/1 29/1/1
f 36/1/1 34/1/1 33/1/1
f 37/2/1 36/2/1 35/2/1
f 38/1/1 34/1/1 36/1/1
f 38/2/1 36/2/1 37/2/1
f 39/1/1 34/1/1 38/1/1
f 40/1/1 34/1/1 39/1/1
f 43/1/1 42/1/1 41/1/1
f 44/1/1 42/1/1 43/1/1
f 45/1/1 43/1/1 41/1/1
f 46/1/1 43/1/1 45/1/1
f 47/1/2 48/1/2 49/1/2
f 49/1/2 48/1/2 50/1/2
f 51/2/2 52/2/2 53/2/2
f 53/2/2 52/2/2 54/2/2
f 55/2/2 56/2/2 57/2/2
f 57/2/2 56/2/2 58/2/2
f 59/2/2 60/2/2 61/2/2
f 61/2/2 60/2/2 62/2/2
f 63/1/2 64/1/2 66/1/2
f 65/1/2 66/1/2 67/1/2
f 66/1/2 64/1/2 68/1/2
f 67/1/2 66/1/2 68/1/2
f 65/1/2 67/1/2 69/1/2
f 69/1/2 67/1/2 70/1/2
f 68/1/2 64/1/2 71/1/2
f 71/1/2 64/1/2 72/1/2
f 72/1/2 64/1/2 73/1/2
f 73/1/2 64/1/2 74/1/2
f 75/2/2 76/2/2 77/2/2
f 77/2/2 76/2/2 78/2/2
f 79/2/2 80/2/2 81/2/2
f 81/2/2 80/2/2 82/2/2
f 83/2/2 84/2/2 85/2/2
f 85/2/2 84/2/2 86/2/2
f 87/2/2 88/2/2 89/2/2
f 89/2/2 88/2/2 90/2/2
f 93/2/3 92/2/3 91/2/3
f 94/2/3 92/2/3 93/2/3
f 101/2/3 100/2/3 99/2/3
f 102/2/3 100/2/3 101/2/3
f 103/2/3 96/2/3 95/2/3
f 104/2/3 96/2/3 103/2/3
f 105/2/3 98/2/3 97/2/3
f 106/2/3 98/2/3 105/2/3
f 109/1/3 108/1/3 107/1/3
f 110/1/3 108/1/3 109/1/3
f 113/2/3 112/2/3 111/2/3
f 114/2/3 112/2/3 113/2/3
f 119/2/3 116/2/3 115/2/3
f 120/2/3 116/2/3 119/2/3
f 121/2/3 118/2/3 117/2/3
f 122/2/3 118/2/3 121/2/3
f 127/1/3 124/1/3 123/1/3
f 128/1/3 124/1/3 127/1/3
f 129/1/3 127/1/3 123/1/3
f 130/1/3 127/1/3 129/1/3
f 131/1/3 124/1/3 128/1/3
f 132/1/3 124/1/3 131/1/3
f 133/1/3 126/1/3 125/1/3
f 134/1/3 126/1/3 133/1/3
f 137/1/3 136/1/3 135/1/3
f 138/1/3 136/1/3 137/1/3
f 139/1/3 137/1/3 135/1/3
f 140/1/3 137/1/3 139/1/3
f 141/1/4 142/1/4 143/1/4
f 143/1/4 142/1/4 144/1/4
f 145/2/4 146/2/4 147/2/4
f 147/2/4 146/2/4 148/2/4
f 149/1/4 150/1/4 151/1/4
f 151/1/4 150/1/4 152/1/4
f 149/1/4 151/1/4 154/1/4
f 154/1/4 151/1/4 155/1/4
f 154/1/4 155/1/4 157/1/4
f 155/1/4 156/1/4 157/1/4
f 153/1/4 154/1/4 157/1/4
f 157/1/4 156/1/4 158/1/4
f 159/2/4 160/2/4 163/2/4
f 163/2/4 160/2/4 164/2/4
f 161/2/4 162/2/4 165/2/4
f 165/2/4 162/2/4 166/2/4
f 167/2/4 168/2/4 169/2/4
f 169/2/4 168/2/4 170/2/4
f 171/2/4 172/2/4 175/2/4
f 175/2/4 172/2/4 176/2/4
f 173/2/4 174/2/4 177/2/4
f 177/2/4 174/2/4 178/2/4
f 179/2/4 180/2/4 181/2/4
f 181/2/4 180/2/4 182/2/4
f 185/1/5 184/1/5 183/1/5
f 186/1/5 184/1/5 185/1/5
f 189/1/5 188/1/5 187/1/5
f 190/1/5 188/1/5 189/1/5
f 193/2/5 192/2/5 191/2/5
f 194/2/5 192/2/5 193/2/5
f 195/2/5 193/2/5 191/2/5
f 196/2/5 192/2/5 194/2/5
f 197/2/5 195/2/5 191/2/5
f 197/2/5 196/2/5 195/2/5
f 198/2/5 192/2/5 196/2/5
f 198/2/5 196/2/5 197/2/5
f 203/2/5 202/2/5 201/2/5
f 204/2/5 202/2/5 203/2/5
f 205/1/5 200/1/5 199/1/5
f 206/1/5 200/1/5 205/1/5
f 207/2/5 203/2/5 201/2/5
f 208/2/5 202/2/5 204/2/5
f 209/2/5 207/2/5 201/2/5
f 209/2/5 208/2/5 207/2/5
f 210/2/5 202/2/5 208/2/5
f 210/2/5 208/2/5 209/2/5
f 213/2/5 212/2/5 211/2/5
f 214/2/5 212/2/5 213/2/5
f 215/2/5 213/2/5 211/2/5
f 216/2/5 212/2/5 214/2/5
f 217/2/5 215/2/5 211/2/5
f 217/2/5 216/2/5 215/2/5
f 218/2/5 212/2/5 216/2/5
f 218/2/5 216/2/5 217/2/5
f 219/2/5 212/2/5 218/2/5
f 222/2/5 221/2/5 220/2/5
f 223/2/5 221/2/5 222/2/5
f 224/2/5 222/2/5 220/2/5
f 225/2/5 221/2/5 223/2/5
f 226/2/5 224/2/5 220/2/5
f 226/2/5 225/2/5 224/2/5
f 227/2/5 221/2/5 225/2/5
f 227/2/5 225/2/5 226/2/5
f 230/2/5 229/2/5 228/2/5
f 231/2/5 229/2/5 230/2/5
f 232/2/5 230/2/5 228/2/5
f 233/2/5 229/2/5 231/2/5
f 234/2/5 232/2/5 228/2/5
f 234/2/5 233/2/5 232/2/5
f 235/2/5 229/2/5 233/2/5
f 235/2/5 233/2/5 234/2/5
f 236/1/6 237/1/6 238/1/6
f 238/1/6 237/1/6 239/1/6
f 240/1/6 241/1/6 242/1/6
f 242/1/6 241/1/6 243/1/6
f 244/2/6 245/2/6 246/2/6
f 246/2/6 245/2/6 247/2/6
f 244/2/6 246/2/6 248/2/6
f 247/2/6 245/2/6 249/2/6
f 244/2/6 248/2/6 250/2/6
f 248/2/6 249/2/6 250/2/6
f 249/2/6 245/2/6 251/2/6
f 250/2/6 249/2/6 251/2/6
f 252/2/6 253/2/6 254/2/6
f 254/2/6 253/2/6 255/2/6
f 256/2/6 257/2/6 258/2/6
f 258/2/6 257/2/6 259/2/6
f 259/2/6 257/2/6 260/2/6
f 261/2/6 262/2/6 263/2/6
f 263/2/6 262/2/6 264/2/6
f 261/2/6 263/2/6 265/2/6
f 264/2/6 262/2/6 266/2/6
f 261/2/6 265/2/6 267/2/6
f 265/2/6 266/2/6 267/2/6
f 266/2/6 262/2/6 268/2/6
f 267/2/6 266/2/6 268/2/6
f 269/2/6 270/2/6 271/2/6
f 271/2/6 270/2/6 272/2/6
