# MagicaVoxel @ Ephtracy

# group
o 

# material
mtllib siekiera.mtl
usemtl palette

# normals
vn -1 0 0
vn 1 0 0
vn 0 0 1
vn 0 0 -1
vn 0 -1 0
vn 0 1 0

# texcoords
vt 0.177734 0.5
vt 0.263672 0.5
vt 0.923828 0.5
vt 0.970703 0.5

# verts
v -0.2 0 0.6
v -0.2 0 0.5
v -0.2 0 0.1
v -0.2 0 -0.6
v -0.2 0.1 0.6
v -0.2 0.1 0.5
v -0.2 0.1 0.1
v -0.2 0.1 -0.6
v 0 0 0.2
v 0 0 0.1
v 0 0.1 0.2
v 0 0.1 0.1
v 0.1 0 0.5
v 0.1 0 0.4
v 0.1 0 0.1
v 0.1 0 5.96046e-08
v 0.1 0.1 0.5
v 0.1 0.1 0.4
v 0.1 0.1 0.1
v 0.1 0.1 5.96046e-08
v -0.1 0 0.6
v -0.1 0 0.5
v -0.1 0 0.4
v -0.1 0 0.2
v -0.1 0 0.1
v -0.1 0 -0.6
v -0.1 0.1 0.6
v -0.1 0.1 0.5
v -0.1 0.1 0.4
v -0.1 0.1 0.2
v -0.1 0.1 0.1
v -0.1 0.1 -0.6
v 0.2 0 0.5
v 0.2 0 5.96046e-08
v 0.2 0.1 0.5
v 0.2 0.1 5.96046e-08
v -0.2 0 0.6
v -0.2 0.1 0.6
v -0.1 0 0.6
v -0.1 0.1 0.6
v 0.1 0 0.5
v 0.1 0.1 0.5
v 0.2 0 0.5
v 0.2 0.1 0.5
v -0.1 0 0.4
v -0.1 0.1 0.4
v 0.1 0 0.4
v 0.1 0.1 0.4
v -0.1 0 0.2
v -0.1 0.1 0.2
v 0 0 0.2
v 0 0.1 0.2
v 0 0 0.1
v 0 0.1 0.1
v 0.1 0 0.1
v 0.1 0.1 0.1
v 0.1 0 5.96046e-08
v 0.1 0.1 5.96046e-08
v 0.2 0 5.96046e-08
v 0.2 0.1 5.96046e-08
v -0.2 0 -0.6
v -0.2 0.1 -0.6
v -0.1 0 -0.6
v -0.1 0.1 -0.6
v -0.2 0 0.6
v -0.1 0 0.6
v -0.2 0 0.5
v -0.1 0 0.5
v 0.1 0 0.5
v 0.2 0 0.5
v -0.1 0 0.4
v 0.1 0 0.4
v 0 0 0.3
v 0.1 0 0.3
v -0.1 0 0.2
v 0 0 0.2
v 0.1 0 0.2
v -0.2 0 0.1
v -0.1 0 0.1
v 0 0 0.1
v 0.1 0 0.1
v 0.1 0 5.96046e-08
v 0.2 0 5.96046e-08
v -0.2 0 -0.6
v -0.1 0 -0.6
v -0.2 0.1 0.6
v -0.1 0.1 0.6
v -0.2 0.1 0.5
v -0.1 0.1 0.5
v 0.1 0.1 0.5
v 0.2 0.1 0.5
v -0.1 0.1 0.4
v 0.1 0.1 0.4
v 0 0.1 0.3
v 0.1 0.1 0.3
v -0.1 0.1 0.2
v 0 0.1 0.2
v 0.1 0.1 0.2
v -0.2 0.1 0.1
v -0.1 0.1 0.1
v 0 0.1 0.1
v 0.1 0.1 0.1
v 0.1 0.1 5.96046e-08
v 0.2 0.1 5.96046e-08
v -0.2 0.1 -0.6
v -0.1 0.1 -0.6

# faces
f 5/2/1 2/2/1 1/2/1
f 6/1/1 3/1/1 2/1/1
f 6/2/1 2/2/1 5/2/1
f 7/2/1 4/2/1 3/2/1
f 7/1/1 3/1/1 6/1/1
f 8/2/1 4/2/1 7/2/1
f 11/3/1 10/3/1 9/3/1
f 12/3/1 10/3/1 11/3/1
f 17/4/1 14/4/1 13/4/1
f 18/4/1 14/4/1 17/4/1
f 19/4/1 16/4/1 15/4/1
f 20/4/1 16/4/1 19/4/1
f 21/2/2 22/2/2 27/2/2
f 22/1/2 23/1/2 28/1/2
f 27/2/2 22/2/2 28/2/2
f 28/1/2 23/1/2 29/1/2
f 24/1/2 25/1/2 30/1/2
f 25/2/2 26/2/2 31/2/2
f 30/1/2 25/1/2 31/1/2
f 31/2/2 26/2/2 32/2/2
f 33/4/2 34/4/2 35/4/2
f 35/4/2 34/4/2 36/4/2
f 39/2/3 38/2/3 37/2/3
f 40/2/3 38/2/3 39/2/3
f 43/4/3 42/4/3 41/4/3
f 44/4/3 42/4/3 43/4/3
f 47/3/3 46/3/3 45/3/3
f 48/3/3 46/3/3 47/3/3
f 49/3/4 50/3/4 51/3/4
f 51/3/4 50/3/4 52/3/4
f 53/3/4 54/3/4 55/3/4
f 55/3/4 54/3/4 56/3/4
f 57/4/4 58/4/4 59/4/4
f 59/4/4 58/4/4 60/4/4
f 61/2/4 62/2/4 63/2/4
f 63/2/4 62/2/4 64/2/4
f 67/2/5 66/2/5 65/2/5
f 68/2/5 66/2/5 67/2/5
f 71/1/5 68/1/5 67/1/5
f 72/4/5 70/4/5 69/4/5
f 73/3/5 72/3/5 71/3/5
f 74/4/5 70/4/5 72/4/5
f 74/3/5 72/3/5 73/3/5
f 75/1/5 71/1/5 67/1/5
f 75/3/5 73/3/5 71/3/5
f 76/4/5 74/4/5 73/4/5
f 76/3/5 73/3/5 75/3/5
f 77/4/5 70/4/5 74/4/5
f 77/4/5 74/4/5 76/4/5
f 78/1/5 75/1/5 67/1/5
f 79/1/5 75/1/5 78/1/5
f 80/3/5 77/3/5 76/3/5
f 81/4/5 70/4/5 77/4/5
f 81/3/5 77/3/5 80/3/5
f 82/4/5 70/4/5 81/4/5
f 83/4/5 70/4/5 82/4/5
f 84/2/5 79/2/5 78/2/5
f 85/2/5 79/2/5 84/2/5
f 86/2/6 87/2/6 88/2/6
f 88/2/6 87/2/6 89/2/6
f 88/1/6 89/1/6 92/1/6
f 90/4/6 91/4/6 93/4/6
f 92/3/6 93/3/6 94/3/6
f 93/4/6 91/4/6 95/4/6
f 94/3/6 93/3/6 95/3/6
f 88/1/6 92/1/6 96/1/6
f 92/3/6 94/3/6 96/3/6
f 94/4/6 95/4/6 97/4/6
f 96/3/6 94/3/6 97/3/6
f 95/4/6 91/4/6 98/4/6
f 97/4/6 95/4/6 98/4/6
f 88/1/6 96/1/6 99/1/6
f 99/1/6 96/1/6 100/1/6
f 97/3/6 98/3/6 101/3/6
f 98/4/6 91/4/6 102/4/6
f 101/3/6 98/3/6 102/3/6
f 102/4/6 91/4/6 103/4/6
f 103/4/6 91/4/6 104/4/6
f 99/2/6 100/2/6 105/2/6
f 105/2/6 100/2/6 106/2/6
