# MagicaVoxel @ Ephtracy

# group
o 

# material
mtllib lilypad3.mtl
usemtl palette

# normals
vn -1 0 0
vn 1 0 0
vn 0 0 1
vn 0 0 -1
vn 0 -1 0
vn 0 1 0

# texcoords
vt 0.669922 0.5
vt 0.677734 0.5

# verts
v -0.5 0 0.2
v -0.5 0 0
v -0.5 0.1 0.2
v -0.5 0.1 0
v -0.4 0 0
v -0.4 0 -0.1
v -0.4 0.1 0
v -0.4 0.1 -0.1
v -0.3 0 0.3
v -0.3 0 0.2
v -0.3 0.1 0.3
v -0.3 0.1 0.2
v -0.2 0 0.4
v -0.2 0 0.3
v -0.2 0 -0.1
v -0.2 0 -0.3
v -0.2 0.1 0.4
v -0.2 0.1 0.3
v -0.2 0.1 -0.1
v -0.2 0.1 -0.3
v -0.1 0 0.5
v -0.1 0 0.4
v -0.1 0 -0.3
v -0.1 0 -0.5
v -0.1 0.1 0.5
v -0.1 0.1 0.4
v -0.1 0.1 -0.3
v -0.1 0.1 -0.5
v 0 0 -0.4
v 0 0 -0.5
v 0 0.1 -0.4
v 0 0.1 -0.5
v 0.1 0 -0.1
v 0.1 0 -0.4
v 0.1 0.1 -0.1
v 0.1 0.1 -0.4
v 0.2 0 0.5
v 0.2 0 0.4
v 0.2 0 0.2
v 0.2 0 -0.1
v 0.2 0.1 0.5
v 0.2 0.1 0.4
v 0.2 0.1 0.2
v 0.2 0.1 -0.1
v 0.3 0 0.4
v 0.3 0 0.2
v 0.3 0.1 0.4
v 0.3 0.1 0.2
v -0.1 0 0.5
v -0.1 0.1 0.5
v 0.2 0 0.5
v 0.2 0.1 0.5
v -0.2 0 0.4
v -0.2 0.1 0.4
v -0.1 0 0.4
v -0.1 0.1 0.4
v 0.2 0 0.4
v 0.2 0.1 0.4
v 0.3 0 0.4
v 0.3 0.1 0.4
v -0.3 0 0.3
v -0.3 0.1 0.3
v -0.2 0 0.3
v -0.2 0.1 0.3
v -0.5 0 0.2
v -0.5 0.1 0.2
v -0.3 0 0.2
v -0.3 0.1 0.2
v 0.2 0 0.2
v 0.2 0.1 0.2
v 0.3 0 0.2
v 0.3 0.1 0.2
v -0.5 0 0
v -0.5 0.1 0
v -0.4 0 0
v -0.4 0.1 0
v -0.4 0 -0.1
v -0.4 0.1 -0.1
v -0.3 0 -0.1
v -0.3 0.1 -0.1
v -0.2 0 -0.1
v -0.2 0.1 -0.1
v 0.1 0 -0.1
v 0.1 0.1 -0.1
v 0.2 0 -0.1
v 0.2 0.1 -0.1
v -0.2 0 -0.3
v -0.2 0.1 -0.3
v -0.1 0 -0.3
v -0.1 0.1 -0.3
v 0 0 -0.4
v 0 0.1 -0.4
v 0.1 0 -0.4
v 0.1 0.1 -0.4
v -0.1 0 -0.5
v -0.1 0.1 -0.5
v 0 0 -0.5
v 0 0.1 -0.5
v -0.1 0 0.5
v 0.2 0 0.5
v -0.2 0 0.4
v -0.1 0 0.4
v 0.2 0 0.4
v 0.3 0 0.4
v -0.3 0 0.3
v -0.2 0 0.3
v 0 0 0.3
v 0.2 0 0.3
v -0.5 0 0.2
v -0.3 0 0.2
v -0.1 0 0.2
v 0 0 0.2
v 0.2 0 0.2
v 0.3 0 0.2
v -0.2 0 0.1
v -0.1 0 0.1
v -0.5 0 0
v -0.4 0 0
v -0.3 0 0
v -0.2 0 0
v -0.4 0 -0.1
v -0.3 0 -0.1
v -0.2 0 -0.1
v 0.1 0 -0.1
v 0.2 0 -0.1
v -0.2 0 -0.3
v -0.1 0 -0.3
v 0 0 -0.4
v 0.1 0 -0.4
v -0.1 0 -0.5
v 0 0 -0.5
v -0.1 0.1 0.5
v 0.2 0.1 0.5
v -0.2 0.1 0.4
v -0.1 0.1 0.4
v 0.2 0.1 0.4
v 0.3 0.1 0.4
v -0.3 0.1 0.3
v -0.2 0.1 0.3
v 0 0.1 0.3
v 0.2 0.1 0.3
v -0.5 0.1 0.2
v -0.3 0.1 0.2
v -0.1 0.1 0.2
v 0 0.1 0.2
v 0.2 0.1 0.2
v 0.3 0.1 0.2
v -0.2 0.1 0.1
v -0.1 0.1 0.1
v -0.5 0.1 0
v -0.4 0.1 0
v -0.3 0.1 0
v -0.2 0.1 0
v -0.4 0.1 -0.1
v -0.3 0.1 -0.1
v -0.2 0.1 -0.1
v 0.1 0.1 -0.1
v 0.2 0.1 -0.1
v -0.2 0.1 -0.3
v -0.1 0.1 -0.3
v 0 0.1 -0.4
v 0.1 0.1 -0.4
v -0.1 0.1 -0.5
v 0 0.1 -0.5

# faces
f 3/2/1 2/2/1 1/2/1
f 4/2/1 2/2/1 3/2/1
f 7/2/1 6/2/1 5/2/1
f 8/2/1 6/2/1 7/2/1
f 11/2/1 10/2/1 9/2/1
f 12/2/1 10/2/1 11/2/1
f 17/2/1 14/2/1 13/2/1
f 18/2/1 14/2/1 17/2/1
f 19/1/1 16/1/1 15/1/1
f 20/1/1 16/1/1 19/1/1
f 25/2/1 22/2/1 21/2/1
f 26/2/1 22/2/1 25/2/1
f 27/1/1 24/1/1 23/1/1
f 28/1/1 24/1/1 27/1/1
f 29/1/2 30/1/2 31/1/2
f 31/1/2 30/1/2 32/1/2
f 33/1/2 34/1/2 35/1/2
f 35/1/2 34/1/2 36/1/2
f 37/2/2 38/2/2 41/2/2
f 41/2/2 38/2/2 42/2/2
f 39/1/2 40/1/2 43/1/2
f 43/1/2 40/1/2 44/1/2
f 45/1/2 46/1/2 47/1/2
f 47/1/2 46/1/2 48/1/2
f 51/2/3 50/2/3 49/2/3
f 52/2/3 50/2/3 51/2/3
f 55/2/3 54/2/3 53/2/3
f 56/2/3 54/2/3 55/2/3
f 59/1/3 58/1/3 57/1/3
f 60/1/3 58/1/3 59/1/3
f 63/2/3 62/2/3 61/2/3
f 64/2/3 62/2/3 63/2/3
f 67/2/3 66/2/3 65/2/3
f 68/2/3 66/2/3 67/2/3
f 69/1/4 70/1/4 71/1/4
f 71/1/4 70/1/4 72/1/4
f 73/2/4 74/2/4 75/2/4
f 75/2/4 74/2/4 76/2/4
f 77/2/4 78/2/4 79/2/4
f 79/2/4 78/2/4 80/2/4
f 79/1/4 80/1/4 81/1/4
f 81/1/4 80/1/4 82/1/4
f 83/1/4 84/1/4 85/1/4
f 85/1/4 84/1/4 86/1/4
f 87/1/4 88/1/4 89/1/4
f 89/1/4 88/1/4 90/1/4
f 91/1/4 92/1/4 93/1/4
f 93/1/4 92/1/4 94/1/4
f 95/1/4 96/1/4 97/1/4
f 97/1/4 96/1/4 98/1/4
f 102/2/5 100/2/5 99/2/5
f 103/2/5 100/2/5 102/2/5
f 106/2/5 102/2/5 101/2/5
f 106/2/5 103/2/5 102/2/5
f 107/2/5 103/2/5 106/2/5
f 108/1/5 104/1/5 103/1/5
f 108/2/5 103/2/5 107/2/5
f 110/2/5 107/2/5 106/2/5
f 110/2/5 106/2/5 105/2/5
f 111/2/5 107/2/5 110/2/5
f 112/1/5 108/1/5 107/1/5
f 112/2/5 107/2/5 111/2/5
f 113/1/5 104/1/5 108/1/5
f 113/1/5 108/1/5 112/1/5
f 114/1/5 104/1/5 113/1/5
f 115/2/5 111/2/5 110/2/5
f 115/2/5 110/2/5 109/2/5
f 116/1/5 112/1/5 111/1/5
f 116/2/5 111/2/5 115/2/5
f 116/1/5 113/1/5 112/1/5
f 117/2/5 115/2/5 109/2/5
f 118/2/5 115/2/5 117/2/5
f 119/2/5 115/2/5 118/2/5
f 120/1/5 116/1/5 115/1/5
f 120/2/5 115/2/5 119/2/5
f 121/2/5 119/2/5 118/2/5
f 122/1/5 120/1/5 119/1/5
f 122/2/5 119/2/5 121/2/5
f 123/1/5 116/1/5 120/1/5
f 123/1/5 120/1/5 122/1/5
f 124/1/5 113/1/5 116/1/5
f 124/1/5 116/1/5 123/1/5
f 125/1/5 113/1/5 124/1/5
f 126/1/5 124/1/5 123/1/5
f 127/1/5 124/1/5 126/1/5
f 128/1/5 124/1/5 127/1/5
f 129/1/5 124/1/5 128/1/5
f 130/1/5 128/1/5 127/1/5
f 131/1/5 128/1/5 130/1/5
f 132/2/6 133/2/6 135/2/6
f 135/2/6 133/2/6 136/2/6
f 134/2/6 135/2/6 139/2/6
f 135/2/6 136/2/6 139/2/6
f 139/2/6 136/2/6 140/2/6
f 136/1/6 137/1/6 141/1/6
f 140/2/6 136/2/6 141/2/6
f 139/2/6 140/2/6 143/2/6
f 138/2/6 139/2/6 143/2/6
f 143/2/6 140/2/6 144/2/6
f 140/1/6 141/1/6 145/1/6
f 144/2/6 140/2/6 145/2/6
f 141/1/6 137/1/6 146/1/6
f 145/1/6 141/1/6 146/1/6
f 146/1/6 137/1/6 147/1/6
f 143/2/6 144/2/6 148/2/6
f 142/2/6 143/2/6 148/2/6
f 144/1/6 145/1/6 149/1/6
f 148/2/6 144/2/6 149/2/6
f 145/1/6 146/1/6 149/1/6
f 142/2/6 148/2/6 150/2/6
f 150/2/6 148/2/6 151/2/6
f 151/2/6 148/2/6 152/2/6
f 148/1/6 149/1/6 153/1/6
f 152/2/6 148/2/6 153/2/6
f 151/2/6 152/2/6 154/2/6
f 152/1/6 153/1/6 155/1/6
f 154/2/6 152/2/6 155/2/6
f 153/1/6 149/1/6 156/1/6
f 155/1/6 153/1/6 156/1/6
f 149/1/6 146/1/6 157/1/6
f 156/1/6 149/1/6 157/1/6
f 157/1/6 146/1/6 158/1/6
f 156/1/6 157/1/6 159/1/6
f 159/1/6 157/1/6 160/1/6
f 160/1/6 157/1/6 161/1/6
f 161/1/6 157/1/6 162/1/6
f 160/1/6 161/1/6 163/1/6
f 163/1/6 161/1/6 164/1/6
