# MagicaVoxel @ Ephtracy

# group
o 

# material
mtllib rock2.mtl
usemtl palette

# normals
vn -1 0 0
vn 1 0 0
vn 0 0 1
vn 0 0 -1
vn 0 -1 0
vn 0 1 0

# texcoords
vt 0.974609 0.5

# verts
v -1.6 0 1.6
v -1.6 0 -1.6
v -1.6 2.6 1.6
v -1.6 2.6 0.9
v -1.6 2.9 -1.1
v -1.6 2.9 -1.6
v -1.6 3 -0.6
v -1.6 3 -1.1
v -1.6 3.1 0.9
v -1.6 3.1 0.8
v -1.6 3.1 -0.4
v -1.6 3.1 -0.6
v -1.6 3.2 0.8
v -1.6 3.2 -0.4
v -0.9 2.6 1.6
v -0.9 2.6 0.9
v -0.9 3.1 1.6
v -0.9 3.1 0.9
v -0.8 3.1 1.6
v -0.8 3.1 0.8
v -0.8 3.2 1.6
v -0.8 3.2 0.8
v -0.3 2.9 -1.1
v -0.3 2.9 -1.6
v -0.3 3 -1.1
v -0.3 3 -1.6
v 0.2 3 -0.6
v 0.2 3 -1.6
v 0.2 3.1 -0.6
v 0.2 3.1 -1.6
v 0.4 3.1 -0.4
v 0.4 3.1 -1.6
v 0.4 3.2 -0.4
v 0.4 3.2 -1.6
v 0 3.1 1.6
v 0 3.1 -0.4
v 0 3.2 1.6
v 0 3.2 -0.4
v 0.3 3 1.6
v 0.3 3 0.3
v 0.3 3.1 1.6
v 0.3 3.1 0.3
v 1.6 0 1.6
v 1.6 0 -1.6
v 1.6 3 1.6
v 1.6 3 0.3
v 1.6 3.1 0.3
v 1.6 3.1 -0.4
v 1.6 3.2 -0.4
v 1.6 3.2 -1.6
v -1.6 0 1.6
v -1.6 2.6 1.6
v -0.9 2.6 1.6
v -0.9 3.1 1.6
v -0.8 3.1 1.6
v -0.8 3.2 1.6
v 0 3.1 1.6
v 0 3.2 1.6
v 0.3 3 1.6
v 0.3 3.1 1.6
v 1.6 0 1.6
v 1.6 3 1.6
v -1.6 2.6 0.9
v -1.6 3.1 0.9
v -0.9 2.6 0.9
v -0.9 3.1 0.9
v -1.6 3.1 0.8
v -1.6 3.2 0.8
v -0.8 3.1 0.8
v -0.8 3.2 0.8
v 0.3 3 0.3
v 0.3 3.1 0.3
v 1.6 3 0.3
v 1.6 3.1 0.3
v 0.4 3.1 -0.4
v 0.4 3.2 -0.4
v 1.6 3.1 -0.4
v 1.6 3.2 -0.4
v -1.6 3.1 -0.4
v -1.6 3.2 -0.4
v 0 3.1 -0.4
v 0 3.2 -0.4
v -1.6 3 -0.6
v -1.6 3.1 -0.6
v 0.2 3 -0.6
v 0.2 3.1 -0.6
v -1.6 2.9 -1.1
v -1.6 3 -1.1
v -0.3 2.9 -1.1
v -0.3 3 -1.1
v -1.6 0 -1.6
v -1.6 2.9 -1.6
v -0.3 2.9 -1.6
v -0.3 3 -1.6
v 0.2 3 -1.6
v 0.2 3.1 -1.6
v 0.4 3.1 -1.6
v 0.4 3.2 -1.6
v 1.6 0 -1.6
v 1.6 3.2 -1.6
v -1.6 0 1.6
v 1.6 0 1.6
v -1.6 0 -1.6
v 1.6 0 -1.6
v -1.6 2.6 1.6
v -0.9 2.6 1.6
v -1.6 2.6 0.9
v -0.9 2.6 0.9
v -1.6 2.9 -1.1
v -0.3 2.9 -1.1
v -1.6 2.9 -1.6
v -0.3 2.9 -1.6
v 0.3 3 1.6
v 1.6 3 1.6
v 0.3 3 0.3
v 1.6 3 0.3
v -1.6 3 -0.6
v 0.2 3 -0.6
v -1.6 3 -1.1
v -0.3 3 -1.1
v -0.3 3 -1.6
v 0.2 3 -1.6
v -0.9 3.1 1.6
v -0.8 3.1 1.6
v 0 3.1 1.6
v 0.3 3.1 1.6
v -1.6 3.1 0.9
v -0.9 3.1 0.9
v -1.6 3.1 0.8
v -0.8 3.1 0.8
v 0.3 3.1 0.3
v 1.6 3.1 0.3
v -1.6 3.1 -0.4
v 0 3.1 -0.4
v 0.4 3.1 -0.4
v 1.6 3.1 -0.4
v -1.6 3.1 -0.6
v 0.2 3.1 -0.6
v 0.2 3.1 -1.6
v 0.4 3.1 -1.6
v -0.8 3.2 1.6
v 0 3.2 1.6
v -1.6 3.2 0.8
v -0.8 3.2 0.8
v -1.6 3.2 -0.4
v 0 3.2 -0.4
v 0.4 3.2 -0.4
v 1.6 3.2 -0.4
v 0.4 3.2 -1.6
v 1.6 3.2 -1.6

# faces
f 3/1/1 2/1/1 1/1/1
f 4/1/1 2/1/1 3/1/1
f 5/1/1 2/1/1 4/1/1
f 6/1/1 2/1/1 5/1/1
f 7/1/1 5/1/1 4/1/1
f 8/1/1 5/1/1 7/1/1
f 9/1/1 7/1/1 4/1/1
f 10/1/1 7/1/1 9/1/1
f 11/1/1 7/1/1 10/1/1
f 12/1/1 7/1/1 11/1/1
f 13/1/1 11/1/1 10/1/1
f 14/1/1 11/1/1 13/1/1
f 17/1/1 16/1/1 15/1/1
f 18/1/1 16/1/1 17/1/1
f 21/1/1 20/1/1 19/1/1
f 22/1/1 20/1/1 21/1/1
f 25/1/1 24/1/1 23/1/1
f 26/1/1 24/1/1 25/1/1
f 29/1/1 28/1/1 27/1/1
f 30/1/1 28/1/1 29/1/1
f 33/1/1 32/1/1 31/1/1
f 34/1/1 32/1/1 33/1/1
f 35/1/2 36/1/2 37/1/2
f 37/1/2 36/1/2 38/1/2
f 39/1/2 40/1/2 41/1/2
f 41/1/2 40/1/2 42/1/2
f 43/1/2 44/1/2 45/1/2
f 45/1/2 44/1/2 46/1/2
f 46/1/2 44/1/2 47/1/2
f 47/1/2 44/1/2 48/1/2
f 48/1/2 44/1/2 49/1/2
f 49/1/2 44/1/2 50/1/2
f 53/1/3 52/1/3 51/1/3
f 55/1/3 54/1/3 53/1/3
f 57/1/3 55/1/3 53/1/3
f 57/1/3 56/1/3 55/1/3
f 58/1/3 56/1/3 57/1/3
f 59/1/3 57/1/3 53/1/3
f 60/1/3 57/1/3 59/1/3
f 61/1/3 53/1/3 51/1/3
f 61/1/3 59/1/3 53/1/3
f 62/1/3 59/1/3 61/1/3
f 65/1/3 64/1/3 63/1/3
f 66/1/3 64/1/3 65/1/3
f 69/1/3 68/1/3 67/1/3
f 70/1/3 68/1/3 69/1/3
f 73/1/3 72/1/3 71/1/3
f 74/1/3 72/1/3 73/1/3
f 77/1/3 76/1/3 75/1/3
f 78/1/3 76/1/3 77/1/3
f 79/1/4 80/1/4 81/1/4
f 81/1/4 80/1/4 82/1/4
f 83/1/4 84/1/4 85/1/4
f 85/1/4 84/1/4 86/1/4
f 87/1/4 88/1/4 89/1/4
f 89/1/4 88/1/4 90/1/4
f 91/1/4 92/1/4 93/1/4
f 93/1/4 94/1/4 95/1/4
f 95/1/4 96/1/4 97/1/4
f 91/1/4 93/1/4 99/1/4
f 97/1/4 98/1/4 99/1/4
f 95/1/4 97/1/4 99/1/4
f 93/1/4 95/1/4 99/1/4
f 99/1/4 98/1/4 100/1/4
f 103/1/5 102/1/5 101/1/5
f 104/1/5 102/1/5 103/1/5
f 105/1/6 106/1/6 107/1/6
f 107/1/6 106/1/6 108/1/6
f 109/1/6 110/1/6 111/1/6
f 111/1/6 110/1/6 112/1/6
f 113/1/6 114/1/6 115/1/6
f 115/1/6 114/1/6 116/1/6
f 117/1/6 118/1/6 119/1/6
f 119/1/6 118/1/6 120/1/6
f 120/1/6 118/1/6 121/1/6
f 121/1/6 118/1/6 122/1/6
f 123/1/6 124/1/6 128/1/6
f 127/1/6 128/1/6 129/1/6
f 128/1/6 124/1/6 130/1/6
f 129/1/6 128/1/6 130/1/6
f 125/1/6 126/1/6 131/1/6
f 125/1/6 131/1/6 134/1/6
f 131/1/6 132/1/6 134/1/6
f 134/1/6 132/1/6 135/1/6
f 135/1/6 132/1/6 136/1/6
f 133/1/6 134/1/6 137/1/6
f 134/1/6 135/1/6 137/1/6
f 137/1/6 135/1/6 138/1/6
f 138/1/6 135/1/6 139/1/6
f 139/1/6 135/1/6 140/1/6
f 141/1/6 142/1/6 144/1/6
f 143/1/6 144/1/6 145/1/6
f 144/1/6 142/1/6 146/1/6
f 145/1/6 144/1/6 146/1/6
f 147/1/6 148/1/6 149/1/6
f 149/1/6 148/1/6 150/1/6
