# MagicaVoxel @ Ephtracy

# group
o rock2

# material
mtllib rocks.mtl
usemtl palette

# normals
vn -1 0 0
vn 1 0 0
vn 0 0 1
vn 0 0 -1
vn 0 -1 0
vn 0 1 0

# texcoords
vt 0.978516 0.5
vt 0.982422 0.5
vt 0.986328 0.5

# verts
v -1.6 0 1.6
v -1.6 0 -1.6
v -1.6 0.7 1
v -1.6 0.7 -0.2
v -1.6 0.8 1.5
v -1.6 0.8 1
v -1.6 0.8 -0.2
v -1.6 0.8 -0.4
v -1.6 0.8 -0.8
v -1.6 0.8 -1.6
v -1.6 0.9 1.6
v -1.6 0.9 1.5
v -1.6 0.9 -0.4
v -1.6 0.9 -0.8
v -1.6 1.6 1.1
v -1.6 1.6 0.8
v -1.6 1.6 -0.2
v -1.6 1.6 -0.8
v -1.6 1.7 1.6
v -1.6 1.7 1.1
v -1.6 1.7 0.8
v -1.6 1.7 0.2
v -1.6 1.7 -0.8
v -1.6 1.7 -1.5
v -1.6 1.8 0.2
v -1.6 1.8 -0.2
v -1.6 1.8 -1.5
v -1.6 1.8 -1.6
v -1.6 2.8 1.6
v -1.6 2.8 -1.6
v -1.4 2.8 1.3
v -1.4 2.8 1.1
v -1.4 2.8 0.7
v -1.4 2.8 -0.9
v -1.4 2.9 1.3
v -1.4 2.9 1.1
v -1.4 2.9 0.7
v -1.4 2.9 -0.9
v -1.3 2.8 1.4
v -1.3 2.8 1.3
v -1.3 2.8 1.1
v -1.3 2.8 1
v -1.3 2.9 1.4
v -1.3 2.9 1.3
v -1.3 2.9 1.1
v -1.3 2.9 1
v -1.2 2.8 1
v -1.2 2.8 0.7
v -1.2 2.8 -0.9
v -1.2 2.8 -1.1
v -1.2 2.9 1
v -1.2 2.9 0.7
v -1.2 2.9 -0.9
v -1.2 2.9 -1.1
v -1.1 2.8 1.5
v -1.1 2.8 1.4
v -1.1 2.9 1.5
v -1.1 2.9 1.4
v -1.1 2.9 0.4
v -1.1 2.9 -0.5
v -1.1 3 0.4
v -1.1 3 -0.5
v -0.8 2.8 -1.1
v -0.8 2.8 -1.5
v -0.8 2.9 1.1
v -0.8 2.9 0.4
v -0.8 2.9 -0.5
v -0.8 2.9 -1
v -0.8 2.9 -1.1
v -0.8 2.9 -1.5
v -0.8 3 1.1
v -0.8 3 0.4
v -0.8 3 -0.5
v -0.8 3 -1
v -0.4 2.9 1.3
v -0.4 2.9 1.1
v -0.4 3 1.3
v -0.4 3 1.1
v -0.2 2.9 -0.9
v -0.2 2.9 -1.3
v -0.2 3 -0.9
v -0.2 3 -1.3
v 0.9 2.9 -0.9
v 0.9 2.9 -1.3
v 0.9 3 -0.9
v 0.9 3 -1.3
v -0.4 2.9 -0.9
v -0.4 2.9 -1
v -0.4 3 -0.9
v -0.4 3 -1
v 0.4 2.9 -0.9
v 0.4 2.9 -1.3
v 0.4 3 -0.9
v 0.4 3 -1.3
v 0.8 2.8 -1.4
v 0.8 2.8 -1.5
v 0.8 2.9 1.3
v 0.8 2.9 0.9
v 0.8 2.9 -1.4
v 0.8 2.9 -1.5
v 0.8 3 1.3
v 0.8 3 0.9
v 1.2 2.8 1.5
v 1.2 2.8 1.3
v 1.2 2.9 1.5
v 1.2 2.9 1.3
v 1.2 2.9 0.9
v 1.2 2.9 0.7
v 1.2 2.9 0.3
v 1.2 2.9 -0.3
v 1.2 3 0.9
v 1.2 3 0.7
v 1.2 3 0.3
v 1.2 3 -0.3
v 1.3 2.9 0.7
v 1.3 2.9 0.3
v 1.3 3 0.7
v 1.3 3 0.3
v 1.4 2.9 -0.3
v 1.4 2.9 -1.3
v 1.4 3 -0.3
v 1.4 3 -1.3
v 1.5 2.8 1.3
v 1.5 2.8 -1.4
v 1.5 2.9 1.3
v 1.5 2.9 -1.4
v 1.6 0 1.6
v 1.6 0 -1.6
v 1.6 0.7 1.1
v 1.6 0.7 0.7
v 1.6 0.7 0.1
v 1.6 0.7 -0.9
v 1.6 0.8 1.4
v 1.6 0.8 1.1
v 1.6 0.8 0.5
v 1.6 0.8 0.1
v 1.6 0.8 -0.9
v 1.6 0.8 -1.6
v 1.6 0.9 1.6
v 1.6 0.9 1.4
v 1.6 0.9 0.7
v 1.6 0.9 0.5
v 1.6 1.6 1
v 1.6 1.6 0.4
v 1.6 1.7 1.4
v 1.6 1.7 1
v 1.6 1.7 0.4
v 1.6 1.7 -0.3
v 1.6 1.7 -0.8
v 1.6 1.7 -1.5
v 1.6 1.8 1.6
v 1.6 1.8 1.4
v 1.6 1.8 -0.3
v 1.6 1.8 -0.8
v 1.6 1.8 -1.5
v 1.6 1.8 -1.6
v 1.6 2.8 1.6
v 1.6 2.8 -1.6
v -1.6 0 1.6
v -1.6 0.9 1.6
v -1.6 1.7 1.6
v -1.6 2.8 1.6
v -1.1 0.8 1.6
v -1.1 0.9 1.6
v -1.1 1.7 1.6
v -1.1 1.8 1.6
v -0.8 0.8 1.6
v -0.8 0.9 1.6
v -0.5 1.7 1.6
v -0.5 1.8 1.6
v -0.4 0.8 1.6
v -0.4 0.9 1.6
v 0.2 1.6 1.6
v 0.2 1.7 1.6
v 0.9 0.8 1.6
v 0.9 0.9 1.6
v 1.3 1.6 1.6
v 1.3 1.8 1.6
v 1.6 0 1.6
v 1.6 0.9 1.6
v 1.6 1.8 1.6
v 1.6 2.8 1.6
v -1.1 2.8 1.5
v -1.1 2.9 1.5
v 1.2 2.8 1.5
v 1.2 2.9 1.5
v -1.3 2.8 1.4
v -1.3 2.9 1.4
v -1.1 2.8 1.4
v -1.1 2.9 1.4
v -1.4 2.8 1.3
v -1.4 2.9 1.3
v -1.3 2.8 1.3
v -1.3 2.9 1.3
v -0.4 2.9 1.3
v -0.4 3 1.3
v 0.8 2.9 1.3
v 0.8 3 1.3
v 1.2 2.8 1.3
v 1.2 2.9 1.3
v 1.5 2.8 1.3
v 1.5 2.9 1.3
v -0.8 2.9 1.1
v -0.8 3 1.1
v -0.4 2.9 1.1
v -0.4 3 1.1
v 0.8 2.9 0.9
v 0.8 3 0.9
v 1.2 2.9 0.9
v 1.2 3 0.9
v -1.4 2.8 0.7
v -1.4 2.9 0.7
v -1.2 2.8 0.7
v -1.2 2.9 0.7
v 1.2 2.9 0.7
v 1.2 3 0.7
v 1.3 2.9 0.7
v 1.3 3 0.7
v -1.1 2.9 0.4
v -1.1 3 0.4
v -0.8 2.9 0.4
v -0.8 3 0.4
v 1.2 2.9 -0.3
v 1.2 3 -0.3
v 1.4 2.9 -0.3
v 1.4 3 -0.3
v -1.4 2.8 1.1
v -1.4 2.9 1.1
v -1.3 2.8 1.1
v -1.3 2.9 1.1
v -1.3 2.8 1
v -1.3 2.9 1
v -1.2 2.8 1
v -1.2 2.9 1
v 1.2 2.9 0.3
v 1.2 3 0.3
v 1.3 2.9 0.3
v 1.3 3 0.3
v -1.1 2.9 -0.5
v -1.1 3 -0.5
v -0.8 2.9 -0.5
v -0.8 3 -0.5
v -1.4 2.8 -0.9
v -1.4 2.9 -0.9
v -1.2 2.8 -0.9
v -1.2 2.9 -0.9
v -0.4 2.9 -0.9
v -0.4 3 -0.9
v -0.2 2.9 -0.9
v -0.2 3 -0.9
v 0.4 2.9 -0.9
v 0.4 3 -0.9
v 0.9 2.9 -0.9
v 0.9 3 -0.9
v -0.8 2.9 -1
v -0.8 3 -1
v -0.4 2.9 -1
v -0.4 3 -1
v -1.2 2.8 -1.1
v -1.2 2.9 -1.1
v -0.8 2.8 -1.1
v -0.8 2.9 -1.1
v -0.2 2.9 -1.3
v -0.2 3 -1.3
v 0.4 2.9 -1.3
v 0.4 3 -1.3
v 0.9 2.9 -1.3
v 0.9 3 -1.3
v 1.4 2.9 -1.3
v 1.4 3 -1.3
v 0.8 2.8 -1.4
v 0.8 2.9 -1.4
v 1.5 2.8 -1.4
v 1.5 2.9 -1.4
v -0.8 2.8 -1.5
v -0.8 2.9 -1.5
v 0.8 2.8 -1.5
v 0.8 2.9 -1.5
v -1.6 0 -1.6
v -1.6 0.8 -1.6
v -1.6 1.8 -1.6
v -1.6 2.8 -1.6
v -1.5 0.8 -1.6
v -1.5 0.9 -1.6
v -0.9 1.7 -1.6
v -0.9 1.8 -1.6
v -0.8 0.8 -1.6
v -0.8 0.9 -1.6
v -0.7 0.7 -1.6
v -0.7 0.8 -1.6
v -0.7 1.6 -1.6
v -0.7 1.7 -1.6
v -0.2 1.6 -1.6
v -0.2 1.7 -1.6
v 0 0.7 -1.6
v 0 0.8 -1.6
v 0.2 0.8 -1.6
v 0.2 0.9 -1.6
v 0.2 1.7 -1.6
v 0.2 1.8 -1.6
v 0.5 1.7 -1.6
v 0.5 1.8 -1.6
v 0.6 0.8 -1.6
v 0.6 0.9 -1.6
v 1.1 0.7 -1.6
v 1.1 0.8 -1.6
v 1.3 0.7 -1.6
v 1.3 0.8 -1.6
v 1.3 1.7 -1.6
v 1.3 1.8 -1.6
v 1.6 0 -1.6
v 1.6 0.8 -1.6
v 1.6 1.8 -1.6
v 1.6 2.8 -1.6
v -1.6 0 1.6
v 1.6 0 1.6
v -1.6 0 -1.6
v 1.6 0 -1.6
v -1.6 2.8 1.6
v 1.6 2.8 1.6
v -1.1 2.8 1.5
v 1.2 2.8 1.5
v -1.3 2.8 1.4
v -1.1 2.8 1.4
v -1.4 2.8 1.3
v -1.3 2.8 1.3
v 1.2 2.8 1.3
v 1.5 2.8 1.3
v -1.4 2.8 1.1
v -1.3 2.8 1.1
v -1.3 2.8 1
v -1.2 2.8 1
v -1.4 2.8 0.7
v -1.2 2.8 0.7
v -1.4 2.8 -0.9
v -1.2 2.8 -0.9
v -1.2 2.8 -1.1
v -0.8 2.8 -1.1
v 0.8 2.8 -1.4
v 1.5 2.8 -1.4
v -0.8 2.8 -1.5
v 0.8 2.8 -1.5
v -1.6 2.8 -1.6
v 1.6 2.8 -1.6
v -1.1 2.9 1.5
v 1.2 2.9 1.5
v -1.3 2.9 1.4
v -1.1 2.9 1.4
v -1.4 2.9 1.3
v -1.3 2.9 1.3
v -0.4 2.9 1.3
v 0.8 2.9 1.3
v 1.2 2.9 1.3
v 1.5 2.9 1.3
v -1.4 2.9 1.1
v -1.3 2.9 1.1
v -0.8 2.9 1.1
v -0.4 2.9 1.1
v -1.3 2.9 1
v -1.2 2.9 1
v 0.8 2.9 0.9
v 1.2 2.9 0.9
v -1.4 2.9 0.7
v -1.2 2.9 0.7
v 1.2 2.9 0.7
v 1.3 2.9 0.7
v -1.1 2.9 0.4
v -0.8 2.9 0.4
v 1.2 2.9 0.3
v 1.3 2.9 0.3
v 1.2 2.9 -0.3
v 1.4 2.9 -0.3
v -1.1 2.9 -0.5
v -0.8 2.9 -0.5
v -1.4 2.9 -0.9
v -1.2 2.9 -0.9
v -0.4 2.9 -0.9
v -0.2 2.9 -0.9
v 0.4 2.9 -0.9
v 0.9 2.9 -0.9
v -0.8 2.9 -1
v -0.4 2.9 -1
v -1.2 2.9 -1.1
v -0.8 2.9 -1.1
v -0.2 2.9 -1.3
v 0.4 2.9 -1.3
v 0.9 2.9 -1.3
v 1.4 2.9 -1.3
v 0.8 2.9 -1.4
v 1.5 2.9 -1.4
v -0.8 2.9 -1.5
v 0.8 2.9 -1.5
v -0.4 3 1.3
v 0.8 3 1.3
v -0.8 3 1.1
v -0.4 3 1.1
v 0.8 3 0.9
v 1.2 3 0.9
v 1.2 3 0.7
v 1.3 3 0.7
v -1.1 3 0.4
v -0.8 3 0.4
v 1.2 3 0.3
v 1.3 3 0.3
v 1.2 3 -0.3
v 1.4 3 -0.3
v -1.1 3 -0.5
v -0.8 3 -0.5
v -0.4 3 -0.9
v -0.2 3 -0.9
v 0.4 3 -0.9
v 0.9 3 -0.9
v -0.8 3 -1
v -0.4 3 -1
v -0.2 3 -1.3
v 0.4 3 -1.3
v 0.9 3 -1.3
v 1.4 3 -1.3

# faces
f 3/1/1 2/1/1 1/1/1
f 4/1/1 2/1/1 3/1/1
f 5/1/1 3/1/1 1/1/1
f 6/2/1 4/2/1 3/2/1
f 6/1/1 3/1/1 5/1/1
f 7/1/1 2/1/1 4/1/1
f 7/2/1 4/2/1 6/2/1
f 8/1/1 2/1/1 7/1/1
f 9/1/1 2/1/1 8/1/1
f 10/1/1 2/1/1 9/1/1
f 11/1/1 5/1/1 1/1/1
f 12/2/1 6/2/1 5/2/1
f 12/1/1 5/1/1 11/1/1
f 12/2/1 7/2/1 6/2/1
f 12/2/1 8/2/1 7/2/1
f 13/1/1 9/1/1 8/1/1
f 13/2/1 8/2/1 12/2/1
f 14/2/1 10/2/1 9/2/1
f 14/1/1 9/1/1 13/1/1
f 15/2/1 13/2/1 12/2/1
f 15/2/1 12/2/1 11/2/1
f 15/2/1 14/2/1 13/2/1
f 16/2/1 14/2/1 15/2/1
f 17/2/1 14/2/1 16/2/1
f 18/2/1 10/2/1 14/2/1
f 18/2/1 14/2/1 17/2/1
f 19/2/1 15/2/1 11/2/1
f 20/3/1 16/3/1 15/3/1
f 20/2/1 15/2/1 19/2/1
f 21/2/1 17/2/1 16/2/1
f 21/3/1 16/3/1 20/3/1
f 22/2/1 17/2/1 21/2/1
f 23/2/1 10/2/1 18/2/1
f 23/3/1 18/3/1 17/3/1
f 24/2/1 10/2/1 23/2/1
f 25/3/1 20/3/1 19/3/1
f 25/2/1 17/2/1 22/2/1
f 25/3/1 22/3/1 21/3/1
f 25/3/1 21/3/1 20/3/1
f 26/3/1 24/3/1 23/3/1
f 26/2/1 17/2/1 25/2/1
f 26/3/1 23/3/1 17/3/1
f 27/2/1 10/2/1 24/2/1
f 27/3/1 24/3/1 26/3/1
f 28/2/1 10/2/1 27/2/1
f 29/3/1 26/3/1 25/3/1
f 29/3/1 25/3/1 19/3/1
f 29/3/1 28/3/1 27/3/1
f 29/3/1 27/3/1 26/3/1
f 30/3/1 28/3/1 29/3/1
f 35/3/1 32/3/1 31/3/1
f 36/3/1 32/3/1 35/3/1
f 37/3/1 34/3/1 33/3/1
f 38/3/1 34/3/1 37/3/1
f 43/3/1 40/3/1 39/3/1
f 44/3/1 40/3/1 43/3/1
f 45/3/1 42/3/1 41/3/1
f 46/3/1 42/3/1 45/3/1
f 51/3/1 48/3/1 47/3/1
f 52/3/1 48/3/1 51/3/1
f 53/3/1 50/3/1 49/3/1
f 54/3/1 50/3/1 53/3/1
f 57/3/1 56/3/1 55/3/1
f 58/3/1 56/3/1 57/3/1
f 61/3/1 60/3/1 59/3/1
f 62/3/1 60/3/1 61/3/1
f 69/3/1 64/3/1 63/3/1
f 70/3/1 64/3/1 69/3/1
f 71/3/1 66/3/1 65/3/1
f 72/3/1 66/3/1 71/3/1
f 73/3/1 68/3/1 67/3/1
f 74/3/1 68/3/1 73/3/1
f 77/3/1 76/3/1 75/3/1
f 78/3/1 76/3/1 77/3/1
f 81/3/1 80/3/1 79/3/1
f 82/3/1 80/3/1 81/3/1
f 85/3/1 84/3/1 83/3/1
f 86/3/1 84/3/1 85/3/1
f 87/3/2 88/3/2 89/3/2
f 89/3/2 88/3/2 90/3/2
f 91/3/2 92/3/2 93/3/2
f 93/3/2 92/3/2 94/3/2
f 95/3/2 96/3/2 99/3/2
f 99/3/2 96/3/2 100/3/2
f 97/3/2 98/3/2 101/3/2
f 101/3/2 98/3/2 102/3/2
f 103/3/2 104/3/2 105/3/2
f 105/3/2 104/3/2 106/3/2
f 107/3/2 108/3/2 111/3/2
f 111/3/2 108/3/2 112/3/2
f 109/3/2 110/3/2 113/3/2
f 113/3/2 110/3/2 114/3/2
f 115/3/2 116/3/2 117/3/2
f 117/3/2 116/3/2 118/3/2
f 119/3/2 120/3/2 121/3/2
f 121/3/2 120/3/2 122/3/2
f 123/3/2 124/3/2 125/3/2
f 125/3/2 124/3/2 126/3/2
f 127/1/2 128/1/2 129/1/2
f 129/1/2 128/1/2 130/1/2
f 130/1/2 128/1/2 131/1/2
f 131/1/2 128/1/2 132/1/2
f 127/1/2 129/1/2 133/1/2
f 129/2/2 130/2/2 134/2/2
f 133/1/2 129/1/2 134/1/2
f 130/1/2 131/1/2 135/1/2
f 131/2/2 132/2/2 136/2/2
f 135/1/2 131/1/2 136/1/2
f 132/1/2 128/1/2 137/1/2
f 136/2/2 132/2/2 137/2/2
f 137/1/2 128/1/2 138/1/2
f 127/1/2 133/1/2 139/1/2
f 133/2/2 134/2/2 140/2/2
f 139/1/2 133/1/2 140/1/2
f 134/2/2 130/2/2 141/2/2
f 140/2/2 134/2/2 141/2/2
f 130/1/2 135/1/2 141/1/2
f 135/2/2 136/2/2 142/2/2
f 141/1/2 135/1/2 142/1/2
f 137/2/2 138/2/2 142/2/2
f 136/2/2 137/2/2 142/2/2
f 140/2/2 141/2/2 143/2/2
f 139/2/2 140/2/2 143/2/2
f 141/2/2 142/2/2 143/2/2
f 142/2/2 138/2/2 144/2/2
f 143/2/2 142/2/2 144/2/2
f 139/2/2 143/2/2 145/2/2
f 143/3/2 144/3/2 146/3/2
f 145/2/2 143/2/2 146/2/2
f 144/2/2 138/2/2 147/2/2
f 146/3/2 144/3/2 147/3/2
f 147/2/2 138/2/2 148/2/2
f 148/2/2 138/2/2 149/2/2
f 149/2/2 138/2/2 150/2/2
f 139/2/2 145/2/2 151/2/2
f 145/3/2 146/3/2 152/3/2
f 151/2/2 145/2/2 152/2/2
f 146/3/2 147/3/2 152/3/2
f 147/3/2 148/3/2 152/3/2
f 148/2/2 149/2/2 153/2/2
f 152/3/2 148/3/2 153/3/2
f 149/3/2 150/3/2 154/3/2
f 153/2/2 149/2/2 154/2/2
f 150/2/2 138/2/2 155/2/2
f 154/3/2 150/3/2 155/3/2
f 155/2/2 138/2/2 156/2/2
f 153/3/2 154/3/2 157/3/2
f 152/3/2 153/3/2 157/3/2
f 155/3/2 156/3/2 157/3/2
f 154/3/2 155/3/2 157/3/2
f 151/3/2 152/3/2 157/3/2
f 157/3/2 156/3/2 158/3/2
f 163/1/3 160/1/3 159/1/3
f 164/2/3 161/2/3 160/2/3
f 164/1/3 160/1/3 163/1/3
f 165/3/3 162/3/3 161/3/3
f 165/2/3 161/2/3 164/2/3
f 166/3/3 162/3/3 165/3/3
f 167/2/3 164/2/3 163/2/3
f 167/1/3 163/1/3 159/1/3
f 167/2/3 166/2/3 165/2/3
f 167/2/3 165/2/3 164/2/3
f 168/2/3 166/2/3 167/2/3
f 169/2/3 166/2/3 168/2/3
f 170/3/3 162/3/3 166/3/3
f 170/2/3 166/2/3 169/2/3
f 171/1/3 167/1/3 159/1/3
f 171/1/3 168/1/3 167/1/3
f 172/2/3 169/2/3 168/2/3
f 172/1/3 168/1/3 171/1/3
f 173/2/3 172/2/3 171/2/3
f 173/2/3 169/2/3 172/2/3
f 174/3/3 170/3/3 169/3/3
f 174/2/3 169/2/3 173/2/3
f 175/1/3 171/1/3 159/1/3
f 175/2/3 173/2/3 171/2/3
f 176/2/3 173/2/3 175/2/3
f 177/3/3 174/3/3 173/3/3
f 177/2/3 173/2/3 176/2/3
f 178/3/3 170/3/3 174/3/3
f 178/3/3 174/3/3 177/3/3
f 178/3/3 162/3/3 170/3/3
f 179/1/3 175/1/3 159/1/3
f 179/1/3 176/1/3 175/1/3
f 180/2/3 177/2/3 176/2/3
f 180/1/3 176/1/3 179/1/3
f 180/2/3 178/2/3 177/2/3
f 181/3/3 162/3/3 178/3/3
f 181/2/3 178/2/3 180/2/3
f 182/3/3 162/3/3 181/3/3
f 185/3/3 184/3/3 183/3/3
f 186/3/3 184/3/3 185/3/3
f 189/3/3 188/3/3 187/3/3
f 190/3/3 188/3/3 189/3/3
f 193/3/3 192/3/3 191/3/3
f 194/3/3 192/3/3 193/3/3
f 197/3/3 196/3/3 195/3/3
f 198/3/3 196/3/3 197/3/3
f 201/3/3 200/3/3 199/3/3
f 202/3/3 200/3/3 201/3/3
f 205/3/3 204/3/3 203/3/3
f 206/3/3 204/3/3 205/3/3
f 209/3/3 208/3/3 207/3/3
f 210/3/3 208/3/3 209/3/3
f 213/3/3 212/3/3 211/3/3
f 214/3/3 212/3/3 213/3/3
f 217/3/3 216/3/3 215/3/3
f 218/3/3 216/3/3 217/3/3
f 221/3/3 220/3/3 219/3/3
f 222/3/3 220/3/3 221/3/3
f 225/3/3 224/3/3 223/3/3
f 226/3/3 224/3/3 225/3/3
f 227/3/4 228/3/4 229/3/4
f 229/3/4 228/3/4 230/3/4
f 231/3/4 232/3/4 233/3/4
f 233/3/4 232/3/4 234/3/4
f 235/3/4 236/3/4 237/3/4
f 237/3/4 236/3/4 238/3/4
f 239/3/4 240/3/4 241/3/4
f 241/3/4 240/3/4 242/3/4
f 243/3/4 244/3/4 245/3/4
f 245/3/4 244/3/4 246/3/4
f 247/3/4 248/3/4 249/3/4
f 249/3/4 248/3/4 250/3/4
f 251/3/4 252/3/4 253/3/4
f 253/3/4 252/3/4 254/3/4
f 255/3/4 256/3/4 257/3/4
f 257/3/4 256/3/4 258/3/4
f 259/3/4 260/3/4 261/3/4
f 261/3/4 260/3/4 262/3/4
f 263/3/4 264/3/4 265/3/4
f 265/3/4 264/3/4 266/3/4
f 267/3/4 268/3/4 269/3/4
f 269/3/4 268/3/4 270/3/4
f 271/3/4 272/3/4 273/3/4
f 273/3/4 272/3/4 274/3/4
f 275/3/4 276/3/4 277/3/4
f 277/3/4 276/3/4 278/3/4
f 279/1/4 280/1/4 283/1/4
f 280/2/4 281/2/4 283/2/4
f 283/2/4 281/2/4 284/2/4
f 284/2/4 281/2/4 285/2/4
f 281/3/4 282/3/4 286/3/4
f 285/2/4 281/2/4 286/2/4
f 279/1/4 283/1/4 287/1/4
f 283/1/4 284/1/4 287/1/4
f 284/2/4 285/2/4 288/2/4
f 287/1/4 284/1/4 288/1/4
f 279/1/4 287/1/4 289/1/4
f 287/2/4 288/2/4 290/2/4
f 289/1/4 287/1/4 290/1/4
f 288/2/4 285/2/4 291/2/4
f 290/2/4 288/2/4 291/2/4
f 285/3/4 286/3/4 292/3/4
f 291/2/4 285/2/4 292/2/4
f 289/2/4 290/2/4 293/2/4
f 290/2/4 291/2/4 293/2/4
f 291/3/4 292/3/4 293/3/4
f 292/3/4 286/3/4 294/3/4
f 293/3/4 292/3/4 294/3/4
f 289/2/4 293/2/4 295/2/4
f 279/1/4 289/1/4 295/1/4
f 293/2/4 294/2/4 295/2/4
f 295/2/4 294/2/4 296/2/4
f 295/1/4 296/1/4 297/1/4
f 296/2/4 294/2/4 297/2/4
f 297/2/4 294/2/4 298/2/4
f 294/3/4 286/3/4 299/3/4
f 298/2/4 294/2/4 299/2/4
f 286/3/4 282/3/4 300/3/4
f 299/3/4 286/3/4 300/3/4
f 298/2/4 299/2/4 301/2/4
f 299/2/4 300/2/4 301/2/4
f 300/3/4 282/3/4 302/3/4
f 301/2/4 300/2/4 302/2/4
f 297/1/4 298/1/4 303/1/4
f 295/1/4 297/1/4 303/1/4
f 298/2/4 301/2/4 304/2/4
f 303/1/4 298/1/4 304/1/4
f 295/1/4 303/1/4 305/1/4
f 279/1/4 295/1/4 305/1/4
f 303/2/4 304/2/4 306/2/4
f 305/1/4 303/1/4 306/1/4
f 279/1/4 305/1/4 307/1/4
f 305/2/4 306/2/4 307/2/4
f 306/2/4 304/2/4 308/2/4
f 307/2/4 306/2/4 308/2/4
f 304/2/4 301/2/4 309/2/4
f 308/2/4 304/2/4 309/2/4
f 301/3/4 302/3/4 309/3/4
f 302/3/4 282/3/4 310/3/4
f 309/3/4 302/3/4 310/3/4
f 307/1/4 308/1/4 311/1/4
f 279/1/4 307/1/4 311/1/4
f 308/2/4 309/2/4 312/2/4
f 311/1/4 308/1/4 312/1/4
f 309/2/4 310/2/4 312/2/4
f 310/3/4 282/3/4 313/3/4
f 312/2/4 310/2/4 313/2/4
f 313/3/4 282/3/4 314/3/4
f 317/1/5 316/1/5 315/1/5
f 318/1/5 316/1/5 317/1/5
f 319/3/6 320/3/6 321/3/6
f 321/3/6 320/3/6 322/3/6
f 319/3/6 321/3/6 323/3/6
f 323/3/6 321/3/6 324/3/6
f 319/3/6 323/3/6 325/3/6
f 325/3/6 323/3/6 326/3/6
f 322/3/6 320/3/6 327/3/6
f 327/3/6 320/3/6 328/3/6
f 319/3/6 325/3/6 329/3/6
f 329/3/6 330/3/6 331/3/6
f 319/3/6 329/3/6 333/3/6
f 331/3/6 332/3/6 333/3/6
f 329/3/6 331/3/6 333/3/6
f 333/3/6 332/3/6 334/3/6
f 319/3/6 333/3/6 335/3/6
f 335/3/6 336/3/6 337/3/6
f 328/3/6 320/3/6 340/3/6
f 337/3/6 338/3/6 341/3/6
f 339/3/6 340/3/6 342/3/6
f 337/3/6 341/3/6 343/3/6
f 341/3/6 342/3/6 343/3/6
f 335/3/6 337/3/6 343/3/6
f 319/3/6 335/3/6 343/3/6
f 342/3/6 340/3/6 344/3/6
f 343/3/6 342/3/6 344/3/6
f 340/3/6 320/3/6 344/3/6
f 345/3/6 346/3/6 348/3/6
f 347/3/6 348/3/6 350/3/6
f 348/3/6 346/3/6 351/3/6
f 350/3/6 348/3/6 351/3/6
f 351/3/6 346/3/6 352/3/6
f 352/3/6 346/3/6 353/3/6
f 349/3/6 350/3/6 355/3/6
f 350/3/6 351/3/6 355/3/6
f 355/3/6 351/3/6 356/3/6
f 356/3/6 351/3/6 357/3/6
f 357/3/6 351/3/6 358/3/6
f 356/3/6 357/3/6 359/3/6
f 359/3/6 357/3/6 360/3/6
f 353/3/6 354/3/6 361/3/6
f 352/3/6 353/3/6 361/3/6
f 361/3/6 354/3/6 362/3/6
f 360/3/6 357/3/6 364/3/6
f 362/3/6 354/3/6 365/3/6
f 365/3/6 354/3/6 366/3/6
f 363/3/6 364/3/6 367/3/6
f 364/3/6 357/3/6 367/3/6
f 367/3/6 357/3/6 368/3/6
f 366/3/6 354/3/6 370/3/6
f 369/3/6 370/3/6 371/3/6
f 370/3/6 354/3/6 372/3/6
f 371/3/6 370/3/6 372/3/6
f 363/3/6 367/3/6 373/3/6
f 363/3/6 373/3/6 375/3/6
f 373/3/6 374/3/6 375/3/6
f 375/3/6 374/3/6 376/3/6
f 376/3/6 374/3/6 381/3/6
f 377/3/6 378/3/6 382/3/6
f 376/3/6 381/3/6 383/3/6
f 381/3/6 382/3/6 383/3/6
f 383/3/6 382/3/6 384/3/6
f 382/3/6 378/3/6 385/3/6
f 384/3/6 382/3/6 385/3/6
f 379/3/6 380/3/6 386/3/6
f 386/3/6 380/3/6 387/3/6
f 372/3/6 354/3/6 388/3/6
f 386/3/6 387/3/6 389/3/6
f 387/3/6 388/3/6 389/3/6
f 385/3/6 386/3/6 389/3/6
f 388/3/6 354/3/6 390/3/6
f 389/3/6 388/3/6 390/3/6
f 385/3/6 389/3/6 391/3/6
f 384/3/6 385/3/6 391/3/6
f 391/3/6 389/3/6 392/3/6
f 393/3/6 394/3/6 396/3/6
f 396/3/6 394/3/6 397/3/6
f 395/3/6 396/3/6 397/3/6
f 397/3/6 398/3/6 399/3/6
f 395/3/6 397/3/6 402/3/6
f 399/3/6 400/3/6 402/3/6
f 397/3/6 399/3/6 402/3/6
f 402/3/6 400/3/6 403/3/6
f 401/3/6 402/3/6 403/3/6
f 403/3/6 400/3/6 404/3/6
f 401/3/6 403/3/6 405/3/6
f 401/3/6 405/3/6 407/3/6
f 405/3/6 406/3/6 407/3/6
f 407/3/6 406/3/6 408/3/6
f 408/3/6 406/3/6 409/3/6
f 409/3/6 406/3/6 410/3/6
f 410/3/6 406/3/6 411/3/6
f 411/3/6 406/3/6 412/3/6
f 408/3/6 409/3/6 413/3/6
f 413/3/6 409/3/6 414/3/6
f 410/3/6 411/3/6 415/3/6
f 415/3/6 411/3/6 416/3/6
f 412/3/6 406/3/6 417/3/6
f 417/3/6 406/3/6 418/3/6
