# MagicaVoxel @ Ephtracy

# group
o 

# material
mtllib lilypad2.mtl
usemtl palette

# normals
vn -1 0 0
vn 1 0 0
vn 0 0 1
vn 0 0 -1
vn 0 -1 0
vn 0 1 0

# texcoords
vt 0.0175781 0.5
vt 0.0214844 0.5
vt 0.525391 0.5
vt 0.529297 0.5

# verts
v -0.3 0.1 0.2
v -0.3 0.1 -0.1
v -0.3 0.2 0.2
v -0.3 0.2 -0.1
v -0.2 0 0.2
v -0.2 0 -0.1
v -0.2 0.1 0.3
v -0.2 0.1 0.2
v -0.2 0.1 -0.1
v -0.2 0.1 -0.2
v -0.2 0.2 0.3
v -0.2 0.2 0.2
v -0.2 0.2 0.1
v -0.2 0.2 -2.98023e-08
v -0.2 0.2 -0.1
v -0.2 0.2 -0.2
v -0.2 0.3 0.1
v -0.2 0.3 -2.98023e-08
v -0.1 0.1 0.1
v -0.1 0.1 -2.98023e-08
v -0.1 0.2 0.2
v -0.1 0.2 0.1
v -0.1 0.2 -2.98023e-08
v -0.1 0.2 -0.1
v -0.1 0.3 0.2
v -0.1 0.3 0.1
v -0.1 0.3 -2.98023e-08
v -0.1 0.3 -0.1
v -0.1 0.4 0.1
v -0.1 0.4 -2.98023e-08
v 0.1 0.1 0.2
v 0.1 0.1 -2.98023e-08
v 0.1 0.1 -0.1
v 0.1 0.2 0.2
v 0.1 0.2 0.1
v 0.1 0.2 -2.98023e-08
v 0.1 0.2 -0.1
v -0.2 0.1 0.2
v -0.2 0.1 -0.1
v -0.2 0.2 0.2
v -0.2 0.2 0.1
v -0.2 0.2 -2.98023e-08
v -0.2 0.2 -0.1
v 2.98023e-08 0.1 0.1
v 2.98023e-08 0.1 -2.98023e-08
v 2.98023e-08 0.2 0.2
v 2.98023e-08 0.2 0.1
v 2.98023e-08 0.2 -2.98023e-08
v 2.98023e-08 0.2 -0.1
v 2.98023e-08 0.3 0.2
v 2.98023e-08 0.3 0.1
v 2.98023e-08 0.3 -2.98023e-08
v 2.98023e-08 0.3 -0.1
v 2.98023e-08 0.4 0.1
v 2.98023e-08 0.4 -2.98023e-08
v 0.1 0 0.2
v 0.1 0 -2.98023e-08
v 0.1 0 -0.1
v 0.1 0.1 0.3
v 0.1 0.1 0.2
v 0.1 0.1 -2.98023e-08
v 0.1 0.1 -0.1
v 0.1 0.1 -0.2
v 0.1 0.2 0.3
v 0.1 0.2 0.2
v 0.1 0.2 0.1
v 0.1 0.2 -2.98023e-08
v 0.1 0.2 -0.1
v 0.1 0.2 -0.2
v 0.1 0.3 0.1
v 0.1 0.3 -2.98023e-08
v 0.2 0.1 0.2
v 0.2 0.1 -0.1
v 0.2 0.2 0.2
v 0.2 0.2 -0.1
v -0.2 0.1 0.3
v -0.2 0.2 0.3
v -0.1 0.1 0.3
v -0.1 0.2 0.3
v 0.1 0.1 0.3
v 0.1 0.2 0.3
v -0.3 0.1 0.2
v -0.3 0.2 0.2
v -0.2 0 0.2
v -0.2 0.1 0.2
v -0.2 0.2 0.2
v -0.1 0.1 0.2
v -0.1 0.2 0.2
v -0.1 0.3 0.2
v 2.98023e-08 0 0.2
v 2.98023e-08 0.1 0.2
v 2.98023e-08 0.2 0.2
v 2.98023e-08 0.3 0.2
v 0.1 0 0.2
v 0.1 0.1 0.2
v 0.1 0.2 0.2
v 0.2 0.1 0.2
v 0.2 0.2 0.2
v -0.2 0.2 0.1
v -0.2 0.3 0.1
v -0.1 0.1 0.1
v -0.1 0.2 0.1
v -0.1 0.3 0.1
v -0.1 0.4 0.1
v 2.98023e-08 0.1 0.1
v 2.98023e-08 0.2 0.1
v 2.98023e-08 0.3 0.1
v 2.98023e-08 0.4 0.1
v 0.1 0.2 0.1
v 0.1 0.3 0.1
v -0.2 0.1 -0.1
v -0.2 0.2 -0.1
v -0.1 0.2 -0.1
v 2.98023e-08 0.2 -0.1
v 0.1 0.1 -0.1
v 0.1 0.2 -0.1
v -0.2 0.1 0.2
v -0.2 0.2 0.2
v -0.1 0.1 0.2
v -0.1 0.2 0.2
v 2.98023e-08 0.1 0.2
v 2.98023e-08 0.2 0.2
v 0.1 0.1 0.2
v 0.1 0.2 0.2
v -0.2 0.2 -2.98023e-08
v -0.2 0.3 -2.98023e-08
v -0.1 0.1 -2.98023e-08
v -0.1 0.2 -2.98023e-08
v -0.1 0.3 -2.98023e-08
v -0.1 0.4 -2.98023e-08
v 2.98023e-08 0.1 -2.98023e-08
v 2.98023e-08 0.2 -2.98023e-08
v 2.98023e-08 0.3 -2.98023e-08
v 2.98023e-08 0.4 -2.98023e-08
v 0.1 0.2 -2.98023e-08
v 0.1 0.3 -2.98023e-08
v -0.3 0.1 -0.1
v -0.3 0.2 -0.1
v -0.2 0 -0.1
v -0.2 0.1 -0.1
v -0.2 0.2 -0.1
v -0.1 0.2 -0.1
v -0.1 0.3 -0.1
v 2.98023e-08 0.2 -0.1
v 2.98023e-08 0.3 -0.1
v 0.1 0 -0.1
v 0.1 0.1 -0.1
v 0.1 0.2 -0.1
v 0.2 0.1 -0.1
v 0.2 0.2 -0.1
v -0.2 0.1 -0.2
v -0.2 0.2 -0.2
v 0.1 0.1 -0.2
v 0.1 0.2 -0.2
v -0.2 0 0.2
v 2.98023e-08 0 0.2
v 0.1 0 0.2
v 2.98023e-08 0 -2.98023e-08
v 0.1 0 -2.98023e-08
v -0.2 0 -0.1
v 0.1 0 -0.1
v -0.2 0.1 0.3
v -0.1 0.1 0.3
v 0.1 0.1 0.3
v -0.3 0.1 0.2
v -0.2 0.1 0.2
v -0.1 0.1 0.2
v 2.98023e-08 0.1 0.2
v 0.1 0.1 0.2
v 0.2 0.1 0.2
v 0.1 0.1 -2.98023e-08
v -0.3 0.1 -0.1
v -0.2 0.1 -0.1
v 0.1 0.1 -0.1
v 0.2 0.1 -0.1
v -0.2 0.1 -0.2
v 0.1 0.1 -0.2
v -0.1 0.2 0.2
v 2.98023e-08 0.2 0.2
v -0.2 0.2 0.1
v -0.1 0.2 0.1
v 2.98023e-08 0.2 0.1
v 0.1 0.2 0.1
v -0.2 0.2 -2.98023e-08
v -0.1 0.2 -2.98023e-08
v 2.98023e-08 0.2 -2.98023e-08
v 0.1 0.2 -2.98023e-08
v -0.1 0.2 -0.1
v 2.98023e-08 0.2 -0.1
v -0.2 0.1 0.2
v -0.1 0.1 0.2
v 2.98023e-08 0.1 0.2
v 0.1 0.1 0.2
v -0.1 0.1 0.1
v 2.98023e-08 0.1 0.1
v -0.1 0.1 -2.98023e-08
v 2.98023e-08 0.1 -2.98023e-08
v 0.1 0.1 -2.98023e-08
v -0.2 0.1 -0.1
v 0.1 0.1 -0.1
v -0.2 0.2 0.3
v -0.1 0.2 0.3
v 0.1 0.2 0.3
v -0.3 0.2 0.2
v -0.2 0.2 0.2
v -0.1 0.2 0.2
v 2.98023e-08 0.2 0.2
v 0.1 0.2 0.2
v 0.2 0.2 0.2
v -0.2 0.2 0.1
v 0.1 0.2 0.1
v -0.2 0.2 -2.98023e-08
v 0.1 0.2 -2.98023e-08
v -0.3 0.2 -0.1
v -0.2 0.2 -0.1
v -0.1 0.2 -0.1
v 2.98023e-08 0.2 -0.1
v 0.1 0.2 -0.1
v 0.2 0.2 -0.1
v -0.2 0.2 -0.2
v 0.1 0.2 -0.2
v -0.1 0.3 0.2
v 2.98023e-08 0.3 0.2
v -0.2 0.3 0.1
v -0.1 0.3 0.1
v 2.98023e-08 0.3 0.1
v 0.1 0.3 0.1
v -0.2 0.3 -2.98023e-08
v -0.1 0.3 -2.98023e-08
v 2.98023e-08 0.3 -2.98023e-08
v 0.1 0.3 -2.98023e-08
v -0.1 0.3 -0.1
v 2.98023e-08 0.3 -0.1
v -0.1 0.4 0.1
v 2.98023e-08 0.4 0.1
v -0.1 0.4 -2.98023e-08
v 2.98023e-08 0.4 -2.98023e-08

# faces
f 3/3/1 2/3/1 1/3/1
f 4/3/1 2/3/1 3/3/1
f 8/3/1 6/3/1 5/3/1
f 9/3/1 6/3/1 8/3/1
f 11/3/1 8/3/1 7/3/1
f 12/3/1 8/3/1 11/3/1
f 15/3/1 10/3/1 9/3/1
f 16/3/1 10/3/1 15/3/1
f 17/2/1 14/2/1 13/2/1
f 18/2/1 14/2/1 17/2/1
f 22/2/1 20/2/1 19/2/1
f 23/2/1 20/2/1 22/2/1
f 25/2/1 22/2/1 21/2/1
f 26/2/1 22/2/1 25/2/1
f 27/2/1 24/2/1 23/2/1
f 28/2/1 24/2/1 27/2/1
f 29/1/1 27/1/1 26/1/1
f 30/1/1 27/1/1 29/1/1
f 34/4/1 32/4/1 31/4/1
f 34/4/1 33/4/1 32/4/1
f 35/4/1 33/4/1 34/4/1
f 36/4/1 33/4/1 35/4/1
f 37/4/1 33/4/1 36/4/1
f 38/3/2 39/3/2 40/3/2
f 40/3/2 39/3/2 41/3/2
f 41/3/2 39/3/2 42/3/2
f 42/3/2 39/3/2 43/3/2
f 44/2/2 45/2/2 47/2/2
f 47/2/2 45/2/2 48/2/2
f 46/2/2 47/2/2 50/2/2
f 50/2/2 47/2/2 51/2/2
f 48/2/2 49/2/2 52/2/2
f 52/2/2 49/2/2 53/2/2
f 51/1/2 52/1/2 54/1/2
f 54/1/2 52/1/2 55/1/2
f 56/4/2 57/4/2 60/4/2
f 57/3/2 58/3/2 61/3/2
f 60/4/2 57/4/2 61/4/2
f 61/3/2 58/3/2 62/3/2
f 59/4/2 60/4/2 64/4/2
f 64/4/2 60/4/2 65/4/2
f 62/3/2 63/3/2 68/3/2
f 68/3/2 63/3/2 69/3/2
f 66/2/2 67/2/2 70/2/2
f 70/2/2 67/2/2 71/2/2
f 72/4/2 73/4/2 74/4/2
f 74/4/2 73/4/2 75/4/2
f 78/3/3 77/3/3 76/3/3
f 79/3/3 77/3/3 78/3/3
f 80/4/3 79/4/3 78/4/3
f 81/4/3 79/4/3 80/4/3
f 85/3/3 83/3/3 82/3/3
f 86/3/3 83/3/3 85/3/3
f 87/3/3 85/3/3 84/3/3
f 90/3/3 87/3/3 84/3/3
f 91/3/3 87/3/3 90/3/3
f 92/2/3 89/2/3 88/2/3
f 93/2/3 89/2/3 92/2/3
f 94/4/3 91/4/3 90/4/3
f 95/4/3 91/4/3 94/4/3
f 97/4/3 96/4/3 95/4/3
f 98/4/3 96/4/3 97/4/3
f 102/2/3 100/2/3 99/2/3
f 103/2/3 100/2/3 102/2/3
f 105/2/3 102/2/3 101/2/3
f 106/2/3 102/2/3 105/2/3
f 107/1/3 104/1/3 103/1/3
f 108/1/3 104/1/3 107/1/3
f 109/2/3 107/2/3 106/2/3
f 110/2/3 107/2/3 109/2/3
f 113/3/3 112/3/3 111/3/3
f 114/3/3 113/3/3 111/3/3
f 115/3/3 114/3/3 111/3/3
f 116/3/3 114/3/3 115/3/3
f 117/3/4 118/3/4 119/3/4
f 119/3/4 118/3/4 120/3/4
f 119/4/4 120/4/4 121/4/4
f 121/4/4 120/4/4 122/4/4
f 121/4/4 122/4/4 123/4/4
f 123/4/4 122/4/4 124/4/4
f 125/2/4 126/2/4 128/2/4
f 128/2/4 126/2/4 129/2/4
f 127/2/4 128/2/4 131/2/4
f 131/2/4 128/2/4 132/2/4
f 129/1/4 130/1/4 133/1/4
f 133/1/4 130/1/4 134/1/4
f 132/2/4 133/2/4 135/2/4
f 135/2/4 133/2/4 136/2/4
f 137/3/4 138/3/4 140/3/4
f 140/3/4 138/3/4 141/3/4
f 142/2/4 143/2/4 144/2/4
f 144/2/4 143/2/4 145/2/4
f 139/3/4 140/3/4 146/3/4
f 146/3/4 140/3/4 147/3/4
f 147/4/4 148/4/4 149/4/4
f 149/4/4 148/4/4 150/4/4
f 151/3/4 152/3/4 153/3/4
f 153/3/4 152/3/4 154/3/4
f 158/3/5 156/3/5 155/3/5
f 158/4/5 157/4/5 156/4/5
f 159/4/5 157/4/5 158/4/5
f 160/3/5 158/3/5 155/3/5
f 160/3/5 159/3/5 158/3/5
f 161/3/5 159/3/5 160/3/5
f 166/3/5 163/3/5 162/3/5
f 167/4/5 164/4/5 163/4/5
f 167/3/5 163/3/5 166/3/5
f 168/4/5 164/4/5 167/4/5
f 169/4/5 164/4/5 168/4/5
f 171/4/5 170/4/5 169/4/5
f 172/3/5 166/3/5 165/3/5
f 173/3/5 166/3/5 172/3/5
f 174/4/5 170/4/5 171/4/5
f 175/4/5 170/4/5 174/4/5
f 176/3/5 174/3/5 173/3/5
f 177/3/5 174/3/5 176/3/5
f 181/2/5 179/2/5 178/2/5
f 182/2/5 179/2/5 181/2/5
f 184/2/5 181/2/5 180/2/5
f 185/2/5 181/2/5 184/2/5
f 186/2/5 183/2/5 182/2/5
f 187/2/5 183/2/5 186/2/5
f 188/2/5 186/2/5 185/2/5
f 189/2/5 186/2/5 188/2/5
f 190/3/6 191/3/6 194/3/6
f 191/3/6 192/3/6 194/3/6
f 192/4/6 193/4/6 195/4/6
f 194/3/6 192/3/6 195/3/6
f 190/3/6 194/3/6 196/3/6
f 195/4/6 193/4/6 197/4/6
f 197/4/6 193/4/6 198/4/6
f 190/3/6 196/3/6 199/3/6
f 196/3/6 197/3/6 199/3/6
f 197/3/6 198/3/6 199/3/6
f 199/3/6 198/3/6 200/3/6
f 201/3/6 202/3/6 205/3/6
f 202/4/6 203/4/6 206/4/6
f 205/3/6 202/3/6 206/3/6
f 206/4/6 203/4/6 207/4/6
f 207/4/6 203/4/6 208/4/6
f 204/3/6 205/3/6 210/3/6
f 208/4/6 209/4/6 211/4/6
f 204/3/6 210/3/6 212/3/6
f 211/4/6 209/4/6 213/4/6
f 204/3/6 212/3/6 214/3/6
f 214/3/6 212/3/6 215/3/6
f 213/4/6 209/4/6 218/4/6
f 218/4/6 209/4/6 219/4/6
f 216/3/6 217/3/6 220/3/6
f 217/3/6 218/3/6 220/3/6
f 215/3/6 216/3/6 220/3/6
f 220/3/6 218/3/6 221/3/6
f 222/2/6 223/2/6 225/2/6
f 225/2/6 223/2/6 226/2/6
f 224/2/6 225/2/6 228/2/6
f 228/2/6 225/2/6 229/2/6
f 226/2/6 227/2/6 230/2/6
f 230/2/6 227/2/6 231/2/6
f 229/2/6 230/2/6 232/2/6
f 232/2/6 230/2/6 233/2/6
f 234/1/6 235/1/6 236/1/6
f 236/1/6 235/1/6 237/1/6
