# MagicaVoxel @ Ephtracy

# group
o 

# material
mtllib battleaxe.mtl
usemtl palette

# normals
vn -1 0 0
vn 1 0 0
vn 0 0 1
vn 0 0 -1
vn 0 -1 0
vn 0 1 0

# texcoords
vt 0.177734 0.5
vt 0.263672 0.5
vt 0.923828 0.5
vt 0.970703 0.5

# verts
v -0.5 0 0.8
v -0.5 0 0.3
v -0.5 0 0
v -0.5 0.1 0.8
v -0.5 0.1 0.3
v -0.5 0.1 0
v -0.1 0 0.8
v -0.1 0 0.6
v -0.1 0 0.5
v -0.1 0 0.1
v -0.1 0 -0.6
v -0.1 0.1 0.8
v -0.1 0.1 0.6
v -0.1 0.1 0.5
v -0.1 0.1 0.1
v -0.1 0.1 -0.6
v 0.1 0 0.7
v 0.1 0 0.6
v 0.1 0 0.5
v 0.1 0 0.4
v 0.1 0.1 0.7
v 0.1 0.1 0.6
v 0.1 0.1 0.5
v 0.1 0.1 0.4
v 0.2 0 0.4
v 0.2 0 0.3
v 0.2 0 0.2
v 0.2 0.1 0.4
v 0.2 0.1 0.3
v 0.2 0.1 0.2
v 0.3 0 0.8
v 0.3 0 0.7
v 0.3 0 0.2
v 0.3 0 0
v 0.3 0.1 0.8
v 0.3 0.1 0.7
v 0.3 0.1 0.2
v 0.3 0.1 0
v -0.4 0 0.8
v -0.4 0 0.7
v -0.4 0 0.2
v -0.4 0 0
v -0.4 0.1 0.8
v -0.4 0.1 0.7
v -0.4 0.1 0.2
v -0.4 0.1 0
v -0.3 0 0.4
v -0.3 0 0.2
v -0.3 0.1 0.4
v -0.3 0.1 0.2
v -0.2 0 0.7
v -0.2 0 0.6
v -0.2 0 0.5
v -0.2 0 0.4
v -0.2 0.1 0.7
v -0.2 0.1 0.6
v -0.2 0.1 0.5
v -0.2 0.1 0.4
v 0 0 0.8
v 0 0 0.6
v 0 0 0.5
v 0 0 0.1
v 0 0 -0.6
v 0 0.1 0.8
v 0 0.1 0.6
v 0 0.1 0.5
v 0 0.1 0.1
v 0 0.1 -0.6
v 0.4 0 0.8
v 0.4 0 0.5
v 0.4 0 0
v 0.4 0.1 0.8
v 0.4 0.1 0.5
v 0.4 0.1 0
v -0.5 0 0.8
v -0.5 0.1 0.8
v -0.4 0 0.8
v -0.4 0.1 0.8
v -0.1 0 0.8
v -0.1 0.1 0.8
v 0 0 0.8
v 0 0.1 0.8
v 0.3 0 0.8
v 0.3 0.1 0.8
v 0.4 0 0.8
v 0.4 0.1 0.8
v -0.4 0 0.7
v -0.4 0.1 0.7
v -0.3 0 0.7
v -0.3 0.1 0.7
v -0.2 0 0.7
v -0.2 0.1 0.7
v 0.1 0 0.7
v 0.1 0.1 0.7
v 0.3 0 0.7
v 0.3 0.1 0.7
v -0.2 0 0.6
v -0.2 0.1 0.6
v -0.1 0 0.6
v -0.1 0.1 0.6
v 0 0 0.6
v 0 0.1 0.6
v 0.1 0 0.6
v 0.1 0.1 0.6
v -0.2 0 0.5
v -0.2 0.1 0.5
v -0.1 0 0.5
v -0.1 0.1 0.5
v 0 0 0.5
v 0 0.1 0.5
v 0.1 0 0.5
v 0.1 0.1 0.5
v -0.3 0 0.4
v -0.3 0.1 0.4
v -0.2 0 0.4
v -0.2 0.1 0.4
v 0.1 0 0.4
v 0.1 0.1 0.4
v 0.2 0 0.4
v 0.2 0.1 0.4
v -0.4 0 0.2
v -0.4 0.1 0.2
v -0.3 0 0.2
v -0.3 0.1 0.2
v 0.2 0 0.2
v 0.2 0.1 0.2
v 0.3 0 0.2
v 0.3 0.1 0.2
v -0.5 0 0
v -0.5 0.1 0
v -0.4 0 0
v -0.4 0.1 0
v 0.3 0 0
v 0.3 0.1 0
v 0.4 0 0
v 0.4 0.1 0
v -0.1 0 -0.6
v -0.1 0.1 -0.6
v 0 0 -0.6
v 0 0.1 -0.6
v -0.5 0 0.8
v -0.4 0 0.8
v -0.1 0 0.8
v 0 0 0.8
v 0.3 0 0.8
v 0.4 0 0.8
v -0.4 0 0.7
v -0.3 0 0.7
v -0.2 0 0.7
v 0.1 0 0.7
v 0.3 0 0.7
v -0.4 0 0.6
v -0.3 0 0.6
v -0.2 0 0.6
v -0.1 0 0.6
v 0 0 0.6
v 0.1 0 0.6
v 0.2 0 0.6
v 0.3 0 0.6
v -0.4 0 0.5
v -0.3 0 0.5
v -0.2 0 0.5
v -0.1 0 0.5
v 0 0 0.5
v 0.1 0 0.5
v 0.3 0 0.5
v 0.4 0 0.5
v -0.3 0 0.4
v -0.2 0 0.4
v 0.1 0 0.4
v 0.2 0 0.4
v 0.3 0 0.4
v -0.5 0 0.3
v -0.4 0 0.3
v 0.2 0 0.3
v 0.3 0 0.3
v -0.4 0 0.2
v -0.3 0 0.2
v 0.2 0 0.2
v 0.3 0 0.2
v -0.1 0 0.1
v 0 0 0.1
v -0.5 0 0
v -0.4 0 0
v 0.3 0 0
v 0.4 0 0
v -0.1 0 -0.6
v 0 0 -0.6
v -0.5 0.1 0.8
v -0.4 0.1 0.8
v -0.1 0.1 0.8
v 0 0.1 0.8
v 0.3 0.1 0.8
v 0.4 0.1 0.8
v -0.4 0.1 0.7
v -0.3 0.1 0.7
v -0.2 0.1 0.7
v 0.1 0.1 0.7
v 0.3 0.1 0.7
v -0.4 0.1 0.6
v -0.3 0.1 0.6
v -0.2 0.1 0.6
v -0.1 0.1 0.6
v 0 0.1 0.6
v 0.1 0.1 0.6
v 0.2 0.1 0.6
v 0.3 0.1 0.6
v -0.4 0.1 0.5
v -0.3 0.1 0.5
v -0.2 0.1 0.5
v -0.1 0.1 0.5
v 0 0.1 0.5
v 0.1 0.1 0.5
v 0.3 0.1 0.5
v 0.4 0.1 0.5
v -0.3 0.1 0.4
v -0.2 0.1 0.4
v 0.1 0.1 0.4
v 0.2 0.1 0.4
v 0.3 0.1 0.4
v -0.5 0.1 0.3
v -0.4 0.1 0.3
v 0.2 0.1 0.3
v 0.3 0.1 0.3
v -0.4 0.1 0.2
v -0.3 0.1 0.2
v 0.2 0.1 0.2
v 0.3 0.1 0.2
v -0.1 0.1 0.1
v 0 0.1 0.1
v -0.5 0.1 0
v -0.4 0.1 0
v 0.3 0.1 0
v 0.4 0.1 0
v -0.1 0.1 -0.6
v 0 0.1 -0.6

# faces
f 4/3/1 2/3/1 1/3/1
f 5/4/1 3/4/1 2/4/1
f 5/3/1 2/3/1 4/3/1
f 6/4/1 3/4/1 5/4/1
f 12/2/1 8/2/1 7/2/1
f 13/2/1 8/2/1 12/2/1
f 14/1/1 10/1/1 9/1/1
f 15/2/1 11/2/1 10/2/1
f 15/1/1 10/1/1 14/1/1
f 16/2/1 11/2/1 15/2/1
f 21/4/1 18/4/1 17/4/1
f 22/4/1 18/4/1 21/4/1
f 23/4/1 20/4/1 19/4/1
f 24/4/1 20/4/1 23/4/1
f 28/4/1 26/4/1 25/4/1
f 29/3/1 27/3/1 26/3/1
f 29/4/1 26/4/1 28/4/1
f 30/3/1 27/3/1 29/3/1
f 35/4/1 32/4/1 31/4/1
f 36/4/1 32/4/1 35/4/1
f 37/3/1 34/3/1 33/3/1
f 38/3/1 34/3/1 37/3/1
f 39/3/2 40/3/2 43/3/2
f 43/3/2 40/3/2 44/3/2
f 41/4/2 42/4/2 45/4/2
f 45/4/2 42/4/2 46/4/2
f 47/4/2 48/4/2 49/4/2
f 49/4/2 48/4/2 50/4/2
f 51/3/2 52/3/2 55/3/2
f 55/3/2 52/3/2 56/3/2
f 53/4/2 54/4/2 57/4/2
f 57/4/2 54/4/2 58/4/2
f 59/2/2 60/2/2 64/2/2
f 64/2/2 60/2/2 65/2/2
f 61/1/2 62/1/2 66/1/2
f 62/2/2 63/2/2 67/2/2
f 66/1/2 62/1/2 67/1/2
f 67/2/2 63/2/2 68/2/2
f 69/4/2 70/4/2 72/4/2
f 70/3/2 71/3/2 73/3/2
f 72/4/2 70/4/2 73/4/2
f 73/3/2 71/3/2 74/3/2
f 77/3/3 76/3/3 75/3/3
f 78/3/3 76/3/3 77/3/3
f 81/2/3 80/2/3 79/2/3
f 82/2/3 80/2/3 81/2/3
f 85/4/3 84/4/3 83/4/3
f 86/4/3 84/4/3 85/4/3
f 89/4/3 88/4/3 87/4/3
f 90/4/3 88/4/3 89/4/3
f 91/3/3 90/3/3 89/3/3
f 92/3/3 90/3/3 91/3/3
f 95/4/3 94/4/3 93/4/3
f 96/4/3 94/4/3 95/4/3
f 99/4/3 98/4/3 97/4/3
f 100/4/3 98/4/3 99/4/3
f 103/4/3 102/4/3 101/4/3
f 104/4/3 102/4/3 103/4/3
f 105/4/4 106/4/4 107/4/4
f 107/4/4 106/4/4 108/4/4
f 109/4/4 110/4/4 111/4/4
f 111/4/4 110/4/4 112/4/4
f 113/4/4 114/4/4 115/4/4
f 115/4/4 114/4/4 116/4/4
f 117/4/4 118/4/4 119/4/4
f 119/4/4 118/4/4 120/4/4
f 121/4/4 122/4/4 123/4/4
f 123/4/4 122/4/4 124/4/4
f 125/3/4 126/3/4 127/3/4
f 127/3/4 126/3/4 128/3/4
f 129/4/4 130/4/4 131/4/4
f 131/4/4 130/4/4 132/4/4
f 133/3/4 134/3/4 135/3/4
f 135/3/4 134/3/4 136/3/4
f 137/2/4 138/2/4 139/2/4
f 139/2/4 138/2/4 140/2/4
f 147/3/5 142/3/5 141/3/5
f 151/4/5 146/4/5 145/4/5
f 152/3/5 147/3/5 141/3/5
f 152/4/5 148/4/5 147/4/5
f 153/3/5 149/3/5 148/3/5
f 153/4/5 148/4/5 152/4/5
f 154/3/5 149/3/5 153/3/5
f 155/2/5 144/2/5 143/2/5
f 156/2/5 144/2/5 155/2/5
f 157/4/5 151/4/5 150/4/5
f 158/4/5 151/4/5 157/4/5
f 159/4/5 146/4/5 151/4/5
f 159/4/5 151/4/5 158/4/5
f 160/3/5 152/3/5 141/3/5
f 160/3/5 153/3/5 152/3/5
f 161/4/5 154/4/5 153/4/5
f 161/3/5 153/3/5 160/3/5
f 161/4/5 155/4/5 154/4/5
f 162/4/5 155/4/5 161/4/5
f 163/1/5 156/1/5 155/1/5
f 163/4/5 155/4/5 162/4/5
f 164/4/5 158/4/5 157/4/5
f 164/1/5 156/1/5 163/1/5
f 164/4/5 157/4/5 156/4/5
f 165/4/5 158/4/5 164/4/5
f 166/4/5 146/4/5 159/4/5
f 166/3/5 159/3/5 158/3/5
f 167/4/5 146/4/5 166/4/5
f 168/4/5 162/4/5 161/4/5
f 168/4/5 161/4/5 160/4/5
f 169/4/5 162/4/5 168/4/5
f 170/4/5 158/4/5 165/4/5
f 171/3/5 167/3/5 166/3/5
f 171/4/5 158/4/5 170/4/5
f 171/3/5 166/3/5 158/3/5
f 172/3/5 167/3/5 171/3/5
f 173/3/5 160/3/5 141/3/5
f 174/4/5 168/4/5 160/4/5
f 174/3/5 160/3/5 173/3/5
f 175/4/5 172/4/5 171/4/5
f 176/3/5 167/3/5 172/3/5
f 176/4/5 172/4/5 175/4/5
f 177/4/5 168/4/5 174/4/5
f 177/4/5 174/4/5 173/4/5
f 178/4/5 168/4/5 177/4/5
f 179/3/5 176/3/5 175/3/5
f 180/3/5 167/3/5 176/3/5
f 180/3/5 176/3/5 179/3/5
f 181/1/5 164/1/5 163/1/5
f 182/1/5 164/1/5 181/1/5
f 183/4/5 177/4/5 173/4/5
f 184/4/5 177/4/5 183/4/5
f 185/3/5 167/3/5 180/3/5
f 186/3/5 167/3/5 185/3/5
f 187/2/5 182/2/5 181/2/5
f 188/2/5 182/2/5 187/2/5
f 189/3/6 190/3/6 195/3/6
f 193/4/6 194/4/6 199/4/6
f 189/3/6 195/3/6 200/3/6
f 195/4/6 196/4/6 200/4/6
f 196/3/6 197/3/6 201/3/6
f 200/4/6 196/4/6 201/4/6
f 201/3/6 197/3/6 202/3/6
f 191/2/6 192/2/6 203/2/6
f 203/2/6 192/2/6 204/2/6
f 198/4/6 199/4/6 205/4/6
f 205/4/6 199/4/6 206/4/6
f 199/4/6 194/4/6 207/4/6
f 206/4/6 199/4/6 207/4/6
f 189/3/6 200/3/6 208/3/6
f 200/3/6 201/3/6 208/3/6
f 201/4/6 202/4/6 209/4/6
f 208/3/6 201/3/6 209/3/6
f 202/4/6 203/4/6 209/4/6
f 209/4/6 203/4/6 210/4/6
f 203/1/6 204/1/6 211/1/6
f 210/4/6 203/4/6 211/4/6
f 205/4/6 206/4/6 212/4/6
f 211/1/6 204/1/6 212/1/6
f 204/4/6 205/4/6 212/4/6
f 212/4/6 206/4/6 213/4/6
f 207/4/6 194/4/6 214/4/6
f 206/3/6 207/3/6 214/3/6
f 214/4/6 194/4/6 215/4/6
f 209/4/6 210/4/6 216/4/6
f 208/4/6 209/4/6 216/4/6
f 216/4/6 210/4/6 217/4/6
f 213/4/6 206/4/6 218/4/6
f 214/3/6 215/3/6 219/3/6
f 218/4/6 206/4/6 219/4/6
f 206/3/6 214/3/6 219/3/6
f 219/3/6 215/3/6 220/3/6
f 189/3/6 208/3/6 221/3/6
f 208/4/6 216/4/6 222/4/6
f 221/3/6 208/3/6 222/3/6
f 219/4/6 220/4/6 223/4/6
f 220/3/6 215/3/6 224/3/6
f 223/4/6 220/4/6 224/4/6
f 222/4/6 216/4/6 225/4/6
f 221/4/6 222/4/6 225/4/6
f 225/4/6 216/4/6 226/4/6
f 223/3/6 224/3/6 227/3/6
f 224/3/6 215/3/6 228/3/6
f 227/3/6 224/3/6 228/3/6
f 211/1/6 212/1/6 229/1/6
f 229/1/6 212/1/6 230/1/6
f 221/4/6 225/4/6 231/4/6
f 231/4/6 225/4/6 232/4/6
f 228/3/6 215/3/6 233/3/6
f 233/3/6 215/3/6 234/3/6
f 229/2/6 230/2/6 235/2/6
f 235/2/6 230/2/6 236/2/6
