# MagicaVoxel @ Ephtracy

# group
o 

# material
mtllib kilof.mtl
usemtl palette

# normals
vn -1 0 0
vn 1 0 0
vn 0 0 1
vn 0 0 -1
vn 0 -1 0
vn 0 1 0

# texcoords
vt 0.177734 0.5
vt 0.263672 0.5
vt 0.923828 0.5
vt 0.970703 0.5

# verts
v -0.2 0 0.4
v -0.2 0 0.3
v -0.2 0.1 0.4
v -0.2 0.1 0.3
v -0.1 0 0.5
v -0.1 0 0.4
v -0.1 0.1 0.5
v -0.1 0.1 0.4
v 0.1 0 0.6
v 0.1 0 0.5
v 0.1 0 0.4
v 0.1 0 0.1
v 0.1 0 -0.6
v 0.1 0.1 0.6
v 0.1 0.1 0.5
v 0.1 0.1 0.4
v 0.1 0.1 0.1
v 0.1 0.1 -0.6
v 0.3 0 0.4
v 0.3 0 0.3
v 0.3 0.1 0.4
v 0.3 0.1 0.3
v 0 0 0.4
v 0 0 0.3
v 0 0.1 0.4
v 0 0.1 0.3
v 0.2 0 0.6
v 0.2 0 0.5
v 0.2 0 0.4
v 0.2 0 0.1
v 0.2 0 -0.6
v 0.2 0.1 0.6
v 0.2 0.1 0.5
v 0.2 0.1 0.4
v 0.2 0.1 0.1
v 0.2 0.1 -0.6
v 0.4 0 0.5
v 0.4 0 0.4
v 0.4 0.1 0.5
v 0.4 0.1 0.4
v 0.5 0 0.4
v 0.5 0 0.3
v 0.5 0.1 0.4
v 0.5 0.1 0.3
v 0.1 0 0.6
v 0.1 0.1 0.6
v 0.2 0 0.6
v 0.2 0.1 0.6
v -0.1 0 0.5
v -0.1 0.1 0.5
v 0 0 0.5
v 0 0.1 0.5
v 0.1 0 0.5
v 0.1 0.1 0.5
v 0.2 0 0.5
v 0.2 0.1 0.5
v 0.4 0 0.5
v 0.4 0.1 0.5
v -0.2 0 0.4
v -0.2 0.1 0.4
v -0.1 0 0.4
v -0.1 0.1 0.4
v 0.4 0 0.4
v 0.4 0.1 0.4
v 0.5 0 0.4
v 0.5 0.1 0.4
v 0 0 0.4
v 0 0.1 0.4
v 0.1 0 0.4
v 0.1 0.1 0.4
v 0.2 0 0.4
v 0.2 0.1 0.4
v 0.3 0 0.4
v 0.3 0.1 0.4
v -0.2 0 0.3
v -0.2 0.1 0.3
v 0 0 0.3
v 0 0.1 0.3
v 0.3 0 0.3
v 0.3 0.1 0.3
v 0.5 0 0.3
v 0.5 0.1 0.3
v 0.1 0 -0.6
v 0.1 0.1 -0.6
v 0.2 0 -0.6
v 0.2 0.1 -0.6
v 0.1 0 0.6
v 0.2 0 0.6
v -0.1 0 0.5
v 0 0 0.5
v 0.1 0 0.5
v 0.2 0 0.5
v 0.4 0 0.5
v -0.2 0 0.4
v -0.1 0 0.4
v 0 0 0.4
v 0.1 0 0.4
v 0.2 0 0.4
v 0.3 0 0.4
v 0.4 0 0.4
v 0.5 0 0.4
v -0.2 0 0.3
v 0 0 0.3
v 0.3 0 0.3
v 0.5 0 0.3
v 0.1 0 0.1
v 0.2 0 0.1
v 0.1 0 -0.6
v 0.2 0 -0.6
v 0.1 0.1 0.6
v 0.2 0.1 0.6
v -0.1 0.1 0.5
v 0 0.1 0.5
v 0.1 0.1 0.5
v 0.2 0.1 0.5
v 0.4 0.1 0.5
v -0.2 0.1 0.4
v -0.1 0.1 0.4
v 0 0.1 0.4
v 0.1 0.1 0.4
v 0.2 0.1 0.4
v 0.3 0.1 0.4
v 0.4 0.1 0.4
v 0.5 0.1 0.4
v -0.2 0.1 0.3
v 0 0.1 0.3
v 0.3 0.1 0.3
v 0.5 0.1 0.3
v 0.1 0.1 0.1
v 0.2 0.1 0.1
v 0.1 0.1 -0.6
v 0.2 0.1 -0.6

# faces
f 3/3/1 2/3/1 1/3/1
f 4/3/1 2/3/1 3/3/1
f 7/3/1 6/3/1 5/3/1
f 8/3/1 6/3/1 7/3/1
f 14/1/1 10/1/1 9/1/1
f 15/1/1 10/1/1 14/1/1
f 16/1/1 12/1/1 11/1/1
f 17/2/1 13/2/1 12/2/1
f 17/1/1 12/1/1 16/1/1
f 18/2/1 13/2/1 17/2/1
f 21/4/1 20/4/1 19/4/1
f 22/4/1 20/4/1 21/4/1
f 23/3/2 24/3/2 25/3/2
f 25/3/2 24/3/2 26/3/2
f 27/1/2 28/1/2 32/1/2
f 32/1/2 28/1/2 33/1/2
f 29/1/2 30/1/2 34/1/2
f 30/2/2 31/2/2 35/2/2
f 34/1/2 30/1/2 35/1/2
f 35/2/2 31/2/2 36/2/2
f 37/4/2 38/4/2 39/4/2
f 39/4/2 38/4/2 40/4/2
f 41/4/2 42/4/2 43/4/2
f 43/4/2 42/4/2 44/4/2
f 47/1/3 46/1/3 45/1/3
f 48/1/3 46/1/3 47/1/3
f 51/3/3 50/3/3 49/3/3
f 52/3/3 50/3/3 51/3/3
f 53/4/3 52/4/3 51/4/3
f 54/4/3 52/4/3 53/4/3
f 57/4/3 56/4/3 55/4/3
f 58/4/3 56/4/3 57/4/3
f 61/3/3 60/3/3 59/3/3
f 62/3/3 60/3/3 61/3/3
f 65/4/3 64/4/3 63/4/3
f 66/4/3 64/4/3 65/4/3
f 67/4/4 68/4/4 69/4/4
f 69/4/4 68/4/4 70/4/4
f 71/4/4 72/4/4 73/4/4
f 73/4/4 72/4/4 74/4/4
f 75/3/4 76/3/4 77/3/4
f 77/3/4 76/3/4 78/3/4
f 79/4/4 80/4/4 81/4/4
f 81/4/4 80/4/4 82/4/4
f 83/2/4 84/2/4 85/2/4
f 85/2/4 84/2/4 86/2/4
f 91/1/5 88/1/5 87/1/5
f 92/1/5 88/1/5 91/1/5
f 95/3/5 90/3/5 89/3/5
f 96/4/5 93/4/5 92/4/5
f 96/4/5 91/4/5 90/4/5
f 96/3/5 90/3/5 95/3/5
f 96/4/5 92/4/5 91/4/5
f 97/4/5 93/4/5 96/4/5
f 98/4/5 93/4/5 97/4/5
f 99/4/5 93/4/5 98/4/5
f 100/4/5 93/4/5 99/4/5
f 102/3/5 95/3/5 94/3/5
f 102/3/5 96/3/5 95/3/5
f 103/3/5 96/3/5 102/3/5
f 104/4/5 101/4/5 100/4/5
f 104/4/5 100/4/5 99/4/5
f 105/4/5 101/4/5 104/4/5
f 106/1/5 98/1/5 97/1/5
f 107/1/5 98/1/5 106/1/5
f 108/2/5 107/2/5 106/2/5
f 109/2/5 107/2/5 108/2/5
f 110/1/6 111/1/6 114/1/6
f 114/1/6 111/1/6 115/1/6
f 112/3/6 113/3/6 118/3/6
f 115/4/6 116/4/6 119/4/6
f 113/4/6 114/4/6 119/4/6
f 118/3/6 113/3/6 119/3/6
f 114/4/6 115/4/6 119/4/6
f 119/4/6 116/4/6 120/4/6
f 120/4/6 116/4/6 121/4/6
f 121/4/6 116/4/6 122/4/6
f 122/4/6 116/4/6 123/4/6
f 117/3/6 118/3/6 125/3/6
f 118/3/6 119/3/6 125/3/6
f 125/3/6 119/3/6 126/3/6
f 123/4/6 124/4/6 127/4/6
f 122/4/6 123/4/6 127/4/6
f 127/4/6 124/4/6 128/4/6
f 120/1/6 121/1/6 129/1/6
f 129/1/6 121/1/6 130/1/6
f 129/2/6 130/2/6 131/2/6
f 131/2/6 130/2/6 132/2/6
