# MagicaVoxel @ Ephtracy

# group
o rock2

# material
mtllib rock.mtl
usemtl palette

# normals
vn -1 0 0
vn 1 0 0
vn 0 0 1
vn 0 0 -1
vn 0 -1 0
vn 0 1 0

# texcoords
vt 0.978516 0.5
vt 0.982422 0.5
vt 0.986328 0.5

# verts
v -1.6 0 1.6
v -1.6 0 -1.6
v -1.6 0.7 1
v -1.6 0.7 -0.2
v -1.6 0.8 1.5
v -1.6 0.8 1
v -1.6 0.8 -0.2
v -1.6 0.8 -0.4
v -1.6 0.8 -0.8
v -1.6 0.8 -1.6
v -1.6 0.9 1.6
v -1.6 0.9 1.5
v -1.6 0.9 -0.4
v -1.6 0.9 -0.8
v -1.6 1.6 1.1
v -1.6 1.6 0.8
v -1.6 1.6 -0.2
v -1.6 1.6 -0.8
v -1.6 1.7 1.6
v -1.6 1.7 1.1
v -1.6 1.7 0.8
v -1.6 1.7 0.2
v -1.6 1.7 -0.8
v -1.6 1.7 -1.5
v -1.6 1.8 0.2
v -1.6 1.8 -0.2
v -1.6 1.8 -1.5
v -1.6 1.8 -1.6
v -1.6 2.8 1.6
v -1.6 2.8 -1.6
v -1.4 2.8 1.3
v -1.4 2.8 1.1
v -1.4 2.8 0.7
v -1.4 2.8 -0.9
v -1.4 2.9 1.3
v -1.4 2.9 1.1
v -1.4 2.9 0.7
v -1.4 2.9 -0.9
v -1.3 2.8 1.4
v -1.3 2.8 1.3
v -1.3 2.8 1.1
v -1.3 2.8 1
v -1.3 2.9 1.4
v -1.3 2.9 1.3
v -1.3 2.9 1.1
v -1.3 2.9 1
v -1.2 2.8 1
v -1.2 2.8 0.7
v -1.2 2.8 -0.9
v -1.2 2.8 -1.1
v -1.2 2.9 1
v -1.2 2.9 0.7
v -1.2 2.9 -0.9
v -1.2 2.9 -1.1
v -1.1 2.8 1.5
v -1.1 2.8 1.4
v -1.1 2.9 1.5
v -1.1 2.9 1.4
v -1.1 2.9 0.4
v -1.1 2.9 -0.5
v -1.1 3 0.4
v -1.1 3 -0.5
v -0.8 2.8 -1.1
v -0.8 2.8 -1.5
v -0.8 2.9 1.1
v -0.8 2.9 0.4
v -0.8 2.9 -0.5
v -0.8 2.9 -1
v -0.8 2.9 -1.1
v -0.8 2.9 -1.5
v -0.8 3 1.1
v -0.8 3 0.4
v -0.8 3 -0.5
v -0.8 3 -1
v -0.5 2.9 0.2
v -0.5 2.9 -0.3
v -0.5 3 0.2
v -0.5 3 -0.3
v -0.4 2.9 1.3
v -0.4 2.9 1.1
v -0.4 3 1.3
v -0.4 3 1.1
v -0.2 2.9 -0.9
v -0.2 2.9 -1.3
v -0.2 3 -0.9
v -0.2 3 -1.3
v 0.2 2.9 0.6
v 0.2 2.9 -0.1
v 0.2 2.9 -0.5
v 0.2 2.9 -1
v 0.2 3 0.6
v 0.2 3 -0.1
v 0.2 3 -0.5
v 0.2 3 -1
v 0.5 2.9 1.1
v 0.5 2.9 0.9
v 0.5 3 1.1
v 0.5 3 0.9
v 0.8 2.9 0.5
v 0.8 2.9 0.4
v 0.8 3 0.5
v 0.8 3 0.4
v 0.9 2.9 0
v 0.9 2.9 -0.5
v 0.9 2.9 -0.9
v 0.9 2.9 -1.3
v 0.9 3 0
v 0.9 3 -0.5
v 0.9 3 -0.9
v 0.9 3 -1.3
v 1 2.9 0.7
v 1 2.9 0.5
v 1 3 0.7
v 1 3 0.5
v -0.8 2.9 0.2
v -0.8 2.9 -0.3
v -0.8 3 0.2
v -0.8 3 -0.3
v -0.4 2.9 -0.9
v -0.4 2.9 -1
v -0.4 3 -0.9
v -0.4 3 -1
v -0.2 2.9 1.1
v -0.2 2.9 0.9
v -0.2 2.9 0.6
v -0.2 2.9 -0.1
v -0.2 3 1.1
v -0.2 3 0.9
v -0.2 3 0.6
v -0.2 3 -0.1
v -0.1 2.9 -0.5
v -0.1 2.9 -1
v -0.1 3 -0.5
v -0.1 3 -1
v 0.4 2.9 0.6
v 0.4 2.9 0.4
v 0.4 2.9 -0.9
v 0.4 2.9 -1.3
v 0.4 3 0.6
v 0.4 3 0.4
v 0.4 3 -0.9
v 0.4 3 -1.3
v 0.5 2.9 0
v 0.5 2.9 -0.5
v 0.5 3 0
v 0.5 3 -0.5
v 0.7 2.9 0.7
v 0.7 2.9 0.6
v 0.7 3 0.7
v 0.7 3 0.6
v 0.8 2.8 -1.4
v 0.8 2.8 -1.5
v 0.8 2.9 1.3
v 0.8 2.9 0.9
v 0.8 2.9 -1.4
v 0.8 2.9 -1.5
v 0.8 3 1.3
v 0.8 3 0.9
v 1.2 2.8 1.5
v 1.2 2.8 1.3
v 1.2 2.9 1.5
v 1.2 2.9 1.3
v 1.2 2.9 0.9
v 1.2 2.9 0.7
v 1.2 2.9 0.3
v 1.2 2.9 -0.3
v 1.2 3 0.9
v 1.2 3 0.7
v 1.2 3 0.3
v 1.2 3 -0.3
v 1.3 2.9 0.7
v 1.3 2.9 0.3
v 1.3 3 0.7
v 1.3 3 0.3
v 1.4 2.9 -0.3
v 1.4 2.9 -1.3
v 1.4 3 -0.3
v 1.4 3 -1.3
v 1.5 2.8 1.3
v 1.5 2.8 -1.4
v 1.5 2.9 1.3
v 1.5 2.9 -1.4
v 1.6 0 1.6
v 1.6 0 -1.6
v 1.6 0.7 1.1
v 1.6 0.7 0.7
v 1.6 0.7 0.1
v 1.6 0.7 -0.9
v 1.6 0.8 1.4
v 1.6 0.8 1.1
v 1.6 0.8 0.5
v 1.6 0.8 0.1
v 1.6 0.8 -0.9
v 1.6 0.8 -1.6
v 1.6 0.9 1.6
v 1.6 0.9 1.4
v 1.6 0.9 0.7
v 1.6 0.9 0.5
v 1.6 1.6 1
v 1.6 1.6 0.4
v 1.6 1.7 1.4
v 1.6 1.7 1
v 1.6 1.7 0.4
v 1.6 1.7 -0.3
v 1.6 1.7 -0.8
v 1.6 1.7 -1.5
v 1.6 1.8 1.6
v 1.6 1.8 1.4
v 1.6 1.8 -0.3
v 1.6 1.8 -0.8
v 1.6 1.8 -1.5
v 1.6 1.8 -1.6
v 1.6 2.8 1.6
v 1.6 2.8 -1.6
v -1.6 0 1.6
v -1.6 0.9 1.6
v -1.6 1.7 1.6
v -1.6 2.8 1.6
v -1.1 0.8 1.6
v -1.1 0.9 1.6
v -1.1 1.7 1.6
v -1.1 1.8 1.6
v -0.8 0.8 1.6
v -0.8 0.9 1.6
v -0.5 1.7 1.6
v -0.5 1.8 1.6
v -0.4 0.8 1.6
v -0.4 0.9 1.6
v 0.2 1.6 1.6
v 0.2 1.7 1.6
v 0.9 0.8 1.6
v 0.9 0.9 1.6
v 1.3 1.6 1.6
v 1.3 1.8 1.6
v 1.6 0 1.6
v 1.6 0.9 1.6
v 1.6 1.8 1.6
v 1.6 2.8 1.6
v -1.1 2.8 1.5
v -1.1 2.9 1.5
v 1.2 2.8 1.5
v 1.2 2.9 1.5
v -1.3 2.8 1.4
v -1.3 2.9 1.4
v -1.1 2.8 1.4
v -1.1 2.9 1.4
v -1.4 2.8 1.3
v -1.4 2.9 1.3
v -1.3 2.8 1.3
v -1.3 2.9 1.3
v -0.4 2.9 1.3
v -0.4 3 1.3
v 0.8 2.9 1.3
v 0.8 3 1.3
v 1.2 2.8 1.3
v 1.2 2.9 1.3
v 1.5 2.8 1.3
v 1.5 2.9 1.3
v -0.8 2.9 1.1
v -0.8 3 1.1
v -0.4 2.9 1.1
v -0.4 3 1.1
v -0.2 2.9 0.9
v -0.2 3 0.9
v 0.5 2.9 0.9
v 0.5 3 0.9
v 0.8 2.9 0.9
v 0.8 3 0.9
v 1.2 2.9 0.9
v 1.2 3 0.9
v -1.4 2.8 0.7
v -1.4 2.9 0.7
v -1.2 2.8 0.7
v -1.2 2.9 0.7
v 1.2 2.9 0.7
v 1.2 3 0.7
v 1.3 2.9 0.7
v 1.3 3 0.7
v 0.8 2.9 0.5
v 0.8 3 0.5
v 1 2.9 0.5
v 1 3 0.5
v -1.1 2.9 0.4
v -1.1 3 0.4
v -0.8 2.9 0.4
v -0.8 3 0.4
v 0.4 2.9 0.4
v 0.4 3 0.4
v 0.8 2.9 0.4
v 0.8 3 0.4
v -0.2 2.9 -0.1
v -0.2 3 -0.1
v 0.2 2.9 -0.1
v 0.2 3 -0.1
v -0.8 2.9 -0.3
v -0.8 3 -0.3
v -0.5 2.9 -0.3
v -0.5 3 -0.3
v 1.2 2.9 -0.3
v 1.2 3 -0.3
v 1.4 2.9 -0.3
v 1.4 3 -0.3
v 0.5 2.9 -0.5
v 0.5 3 -0.5
v 0.9 2.9 -0.5
v 0.9 3 -0.5
v -0.1 2.9 -1
v -0.1 3 -1
v 0.2 2.9 -1
v 0.2 3 -1
v -1.4 2.8 1.1
v -1.4 2.9 1.1
v -1.3 2.8 1.1
v -1.3 2.9 1.1
v -0.2 2.9 1.1
v -0.2 3 1.1
v 0.5 2.9 1.1
v 0.5 3 1.1
v -1.3 2.8 1
v -1.3 2.9 1
v -1.2 2.8 1
v -1.2 2.9 1
v 0.7 2.9 0.7
v 0.7 3 0.7
v 1 2.9 0.7
v 1 3 0.7
v -0.2 2.9 0.6
v -0.2 3 0.6
v 0.2 2.9 0.6
v 0.2 3 0.6
v 0.4 2.9 0.6
v 0.4 3 0.6
v 0.7 2.9 0.6
v 0.7 3 0.6
v 1.2 2.9 0.3
v 1.2 3 0.3
v 1.3 2.9 0.3
v 1.3 3 0.3
v -0.8 2.9 0.2
v -0.8 3 0.2
v -0.5 2.9 0.2
v -0.5 3 0.2
v 0.5 2.9 0
v 0.5 3 0
v 0.9 2.9 0
v 0.9 3 0
v -1.1 2.9 -0.5
v -1.1 3 -0.5
v -0.8 2.9 -0.5
v -0.8 3 -0.5
v -0.1 2.9 -0.5
v -0.1 3 -0.5
v 0.2 2.9 -0.5
v 0.2 3 -0.5
v -1.4 2.8 -0.9
v -1.4 2.9 -0.9
v -1.2 2.8 -0.9
v -1.2 2.9 -0.9
v -0.4 2.9 -0.9
v -0.4 3 -0.9
v -0.2 2.9 -0.9
v -0.2 3 -0.9
v 0.4 2.9 -0.9
v 0.4 3 -0.9
v 0.9 2.9 -0.9
v 0.9 3 -0.9
v -0.8 2.9 -1
v -0.8 3 -1
v -0.4 2.9 -1
v -0.4 3 -1
v -1.2 2.8 -1.1
v -1.2 2.9 -1.1
v -0.8 2.8 -1.1
v -0.8 2.9 -1.1
v -0.2 2.9 -1.3
v -0.2 3 -1.3
v 0.4 2.9 -1.3
v 0.4 3 -1.3
v 0.9 2.9 -1.3
v 0.9 3 -1.3
v 1.4 2.9 -1.3
v 1.4 3 -1.3
v 0.8 2.8 -1.4
v 0.8 2.9 -1.4
v 1.5 2.8 -1.4
v 1.5 2.9 -1.4
v -0.8 2.8 -1.5
v -0.8 2.9 -1.5
v 0.8 2.8 -1.5
v 0.8 2.9 -1.5
v -1.6 0 -1.6
v -1.6 0.8 -1.6
v -1.6 1.8 -1.6
v -1.6 2.8 -1.6
v -1.5 0.8 -1.6
v -1.5 0.9 -1.6
v -0.9 1.7 -1.6
v -0.9 1.8 -1.6
v -0.8 0.8 -1.6
v -0.8 0.9 -1.6
v -0.7 0.7 -1.6
v -0.7 0.8 -1.6
v -0.7 1.6 -1.6
v -0.7 1.7 -1.6
v -0.2 1.6 -1.6
v -0.2 1.7 -1.6
v 0 0.7 -1.6
v 0 0.8 -1.6
v 0.2 0.8 -1.6
v 0.2 0.9 -1.6
v 0.2 1.7 -1.6
v 0.2 1.8 -1.6
v 0.5 1.7 -1.6
v 0.5 1.8 -1.6
v 0.6 0.8 -1.6
v 0.6 0.9 -1.6
v 1.1 0.7 -1.6
v 1.1 0.8 -1.6
v 1.3 0.7 -1.6
v 1.3 0.8 -1.6
v 1.3 1.7 -1.6
v 1.3 1.8 -1.6
v 1.6 0 -1.6
v 1.6 0.8 -1.6
v 1.6 1.8 -1.6
v 1.6 2.8 -1.6
v -1.6 0 1.6
v 1.6 0 1.6
v -1.6 0 -1.6
v 1.6 0 -1.6
v -1.6 2.8 1.6
v 1.6 2.8 1.6
v -1.1 2.8 1.5
v 1.2 2.8 1.5
v -1.3 2.8 1.4
v -1.1 2.8 1.4
v -1.4 2.8 1.3
v -1.3 2.8 1.3
v 1.2 2.8 1.3
v 1.5 2.8 1.3
v -1.4 2.8 1.1
v -1.3 2.8 1.1
v -1.3 2.8 1
v -1.2 2.8 1
v -1.4 2.8 0.7
v -1.2 2.8 0.7
v -1.4 2.8 -0.9
v -1.2 2.8 -0.9
v -1.2 2.8 -1.1
v -0.8 2.8 -1.1
v 0.8 2.8 -1.4
v 1.5 2.8 -1.4
v -0.8 2.8 -1.5
v 0.8 2.8 -1.5
v -1.6 2.8 -1.6
v 1.6 2.8 -1.6
v -1.1 2.9 1.5
v 1.2 2.9 1.5
v -1.3 2.9 1.4
v -1.1 2.9 1.4
v -1.4 2.9 1.3
v -1.3 2.9 1.3
v -0.4 2.9 1.3
v 0.8 2.9 1.3
v 1.2 2.9 1.3
v 1.5 2.9 1.3
v -1.4 2.9 1.1
v -1.3 2.9 1.1
v -0.8 2.9 1.1
v -0.4 2.9 1.1
v -0.2 2.9 1.1
v 0.5 2.9 1.1
v -1.3 2.9 1
v -1.2 2.9 1
v -0.2 2.9 0.9
v 0.5 2.9 0.9
v 0.8 2.9 0.9
v 1.2 2.9 0.9
v -1.4 2.9 0.7
v -1.2 2.9 0.7
v 0.7 2.9 0.7
v 1 2.9 0.7
v 1.2 2.9 0.7
v 1.3 2.9 0.7
v -0.2 2.9 0.6
v 0.2 2.9 0.6
v 0.4 2.9 0.6
v 0.7 2.9 0.6
v 0.8 2.9 0.5
v 1 2.9 0.5
v -1.1 2.9 0.4
v -0.8 2.9 0.4
v 0.4 2.9 0.4
v 0.8 2.9 0.4
v 1.2 2.9 0.3
v 1.3 2.9 0.3
v -0.8 2.9 0.2
v -0.5 2.9 0.2
v 0.5 2.9 0
v 0.9 2.9 0
v -0.2 2.9 -0.1
v 0.2 2.9 -0.1
v -0.8 2.9 -0.3
v -0.5 2.9 -0.3
v 1.2 2.9 -0.3
v 1.4 2.9 -0.3
v -1.1 2.9 -0.5
v -0.8 2.9 -0.5
v -0.1 2.9 -0.5
v 0.2 2.9 -0.5
v 0.5 2.9 -0.5
v 0.9 2.9 -0.5
v -1.4 2.9 -0.9
v -1.2 2.9 -0.9
v -0.4 2.9 -0.9
v -0.2 2.9 -0.9
v 0.4 2.9 -0.9
v 0.9 2.9 -0.9
v -0.8 2.9 -1
v -0.4 2.9 -1
v -0.1 2.9 -1
v 0.2 2.9 -1
v -1.2 2.9 -1.1
v -0.8 2.9 -1.1
v -0.2 2.9 -1.3
v 0.4 2.9 -1.3
v 0.9 2.9 -1.3
v 1.4 2.9 -1.3
v 0.8 2.9 -1.4
v 1.5 2.9 -1.4
v -0.8 2.9 -1.5
v 0.8 2.9 -1.5
v -0.4 3 1.3
v 0.8 3 1.3
v -0.8 3 1.1
v -0.4 3 1.1
v -0.2 3 1.1
v 0.5 3 1.1
v -0.2 3 0.9
v 0.5 3 0.9
v 0.8 3 0.9
v 1.2 3 0.9
v 0.7 3 0.7
v 1 3 0.7
v 1.2 3 0.7
v 1.3 3 0.7
v -0.2 3 0.6
v 0.2 3 0.6
v 0.4 3 0.6
v 0.7 3 0.6
v 0.8 3 0.5
v 1 3 0.5
v -1.1 3 0.4
v -0.8 3 0.4
v 0.4 3 0.4
v 0.8 3 0.4
v 1.2 3 0.3
v 1.3 3 0.3
v -0.8 3 0.2
v -0.5 3 0.2
v 0.5 3 0
v 0.9 3 0
v -0.2 3 -0.1
v 0.2 3 -0.1
v -0.8 3 -0.3
v -0.5 3 -0.3
v 1.2 3 -0.3
v 1.4 3 -0.3
v -1.1 3 -0.5
v -0.8 3 -0.5
v -0.1 3 -0.5
v 0.2 3 -0.5
v 0.5 3 -0.5
v 0.9 3 -0.5
v -0.4 3 -0.9
v -0.2 3 -0.9
v 0.4 3 -0.9
v 0.9 3 -0.9
v -0.8 3 -1
v -0.4 3 -1
v -0.1 3 -1
v 0.2 3 -1
v -0.2 3 -1.3
v 0.4 3 -1.3
v 0.9 3 -1.3
v 1.4 3 -1.3

# faces
f 3/1/1 2/1/1 1/1/1
f 4/1/1 2/1/1 3/1/1
f 5/1/1 3/1/1 1/1/1
f 6/2/1 4/2/1 3/2/1
f 6/1/1 3/1/1 5/1/1
f 7/1/1 2/1/1 4/1/1
f 7/2/1 4/2/1 6/2/1
f 8/1/1 2/1/1 7/1/1
f 9/1/1 2/1/1 8/1/1
f 10/1/1 2/1/1 9/1/1
f 11/1/1 5/1/1 1/1/1
f 12/2/1 6/2/1 5/2/1
f 12/1/1 5/1/1 11/1/1
f 12/2/1 7/2/1 6/2/1
f 12/2/1 8/2/1 7/2/1
f 13/1/1 9/1/1 8/1/1
f 13/2/1 8/2/1 12/2/1
f 14/2/1 10/2/1 9/2/1
f 14/1/1 9/1/1 13/1/1
f 15/2/1 13/2/1 12/2/1
f 15/2/1 12/2/1 11/2/1
f 15/2/1 14/2/1 13/2/1
f 16/2/1 14/2/1 15/2/1
f 17/2/1 14/2/1 16/2/1
f 18/2/1 10/2/1 14/2/1
f 18/2/1 14/2/1 17/2/1
f 19/2/1 15/2/1 11/2/1
f 20/3/1 16/3/1 15/3/1
f 20/2/1 15/2/1 19/2/1
f 21/2/1 17/2/1 16/2/1
f 21/3/1 16/3/1 20/3/1
f 22/2/1 17/2/1 21/2/1
f 23/2/1 10/2/1 18/2/1
f 23/3/1 18/3/1 17/3/1
f 24/2/1 10/2/1 23/2/1
f 25/3/1 20/3/1 19/3/1
f 25/2/1 17/2/1 22/2/1
f 25/3/1 22/3/1 21/3/1
f 25/3/1 21/3/1 20/3/1
f 26/3/1 24/3/1 23/3/1
f 26/2/1 17/2/1 25/2/1
f 26/3/1 23/3/1 17/3/1
f 27/2/1 10/2/1 24/2/1
f 27/3/1 24/3/1 26/3/1
f 28/2/1 10/2/1 27/2/1
f 29/3/1 26/3/1 25/3/1
f 29/3/1 25/3/1 19/3/1
f 29/3/1 28/3/1 27/3/1
f 29/3/1 27/3/1 26/3/1
f 30/3/1 28/3/1 29/3/1
f 35/3/1 32/3/1 31/3/1
f 36/3/1 32/3/1 35/3/1
f 37/3/1 34/3/1 33/3/1
f 38/3/1 34/3/1 37/3/1
f 43/3/1 40/3/1 39/3/1
f 44/3/1 40/3/1 43/3/1
f 45/3/1 42/3/1 41/3/1
f 46/3/1 42/3/1 45/3/1
f 51/3/1 48/3/1 47/3/1
f 52/3/1 48/3/1 51/3/1
f 53/3/1 50/3/1 49/3/1
f 54/3/1 50/3/1 53/3/1
f 57/3/1 56/3/1 55/3/1
f 58/3/1 56/3/1 57/3/1
f 61/3/1 60/3/1 59/3/1
f 62/3/1 60/3/1 61/3/1
f 69/3/1 64/3/1 63/3/1
f 70/3/1 64/3/1 69/3/1
f 71/3/1 66/3/1 65/3/1
f 72/3/1 66/3/1 71/3/1
f 73/3/1 68/3/1 67/3/1
f 74/3/1 68/3/1 73/3/1
f 77/3/1 76/3/1 75/3/1
f 78/3/1 76/3/1 77/3/1
f 81/3/1 80/3/1 79/3/1
f 82/3/1 80/3/1 81/3/1
f 85/3/1 84/3/1 83/3/1
f 86/3/1 84/3/1 85/3/1
f 91/3/1 88/3/1 87/3/1
f 92/3/1 88/3/1 91/3/1
f 93/3/1 90/3/1 89/3/1
f 94/3/1 90/3/1 93/3/1
f 97/3/1 96/3/1 95/3/1
f 98/3/1 96/3/1 97/3/1
f 101/3/1 100/3/1 99/3/1
f 102/3/1 100/3/1 101/3/1
f 107/3/1 104/3/1 103/3/1
f 108/3/1 104/3/1 107/3/1
f 109/3/1 106/3/1 105/3/1
f 110/3/1 106/3/1 109/3/1
f 113/3/1 112/3/1 111/3/1
f 114/3/1 112/3/1 113/3/1
f 115/3/2 116/3/2 117/3/2
f 117/3/2 116/3/2 118/3/2
f 119/3/2 120/3/2 121/3/2
f 121/3/2 120/3/2 122/3/2
f 123/3/2 124/3/2 127/3/2
f 127/3/2 124/3/2 128/3/2
f 125/3/2 126/3/2 129/3/2
f 129/3/2 126/3/2 130/3/2
f 131/3/2 132/3/2 133/3/2
f 133/3/2 132/3/2 134/3/2
f 135/3/2 136/3/2 139/3/2
f 139/3/2 136/3/2 140/3/2
f 137/3/2 138/3/2 141/3/2
f 141/3/2 138/3/2 142/3/2
f 143/3/2 144/3/2 145/3/2
f 145/3/2 144/3/2 146/3/2
f 147/3/2 148/3/2 149/3/2
f 149/3/2 148/3/2 150/3/2
f 151/3/2 152/3/2 155/3/2
f 155/3/2 152/3/2 156/3/2
f 153/3/2 154/3/2 157/3/2
f 157/3/2 154/3/2 158/3/2
f 159/3/2 160/3/2 161/3/2
f 161/3/2 160/3/2 162/3/2
f 163/3/2 164/3/2 167/3/2
f 167/3/2 164/3/2 168/3/2
f 165/3/2 166/3/2 169/3/2
f 169/3/2 166/3/2 170/3/2
f 171/3/2 172/3/2 173/3/2
f 173/3/2 172/3/2 174/3/2
f 175/3/2 176/3/2 177/3/2
f 177/3/2 176/3/2 178/3/2
f 179/3/2 180/3/2 181/3/2
f 181/3/2 180/3/2 182/3/2
f 183/1/2 184/1/2 185/1/2
f 185/1/2 184/1/2 186/1/2
f 186/1/2 184/1/2 187/1/2
f 187/1/2 184/1/2 188/1/2
f 183/1/2 185/1/2 189/1/2
f 185/2/2 186/2/2 190/2/2
f 189/1/2 185/1/2 190/1/2
f 186/1/2 187/1/2 191/1/2
f 187/2/2 188/2/2 192/2/2
f 191/1/2 187/1/2 192/1/2
f 188/1/2 184/1/2 193/1/2
f 192/2/2 188/2/2 193/2/2
f 193/1/2 184/1/2 194/1/2
f 183/1/2 189/1/2 195/1/2
f 189/2/2 190/2/2 196/2/2
f 195/1/2 189/1/2 196/1/2
f 190/2/2 186/2/2 197/2/2
f 196/2/2 190/2/2 197/2/2
f 186/1/2 191/1/2 197/1/2
f 191/2/2 192/2/2 198/2/2
f 197/1/2 191/1/2 198/1/2
f 193/2/2 194/2/2 198/2/2
f 192/2/2 193/2/2 198/2/2
f 196/2/2 197/2/2 199/2/2
f 195/2/2 196/2/2 199/2/2
f 197/2/2 198/2/2 199/2/2
f 198/2/2 194/2/2 200/2/2
f 199/2/2 198/2/2 200/2/2
f 195/2/2 199/2/2 201/2/2
f 199/3/2 200/3/2 202/3/2
f 201/2/2 199/2/2 202/2/2
f 200/2/2 194/2/2 203/2/2
f 202/3/2 200/3/2 203/3/2
f 203/2/2 194/2/2 204/2/2
f 204/2/2 194/2/2 205/2/2
f 205/2/2 194/2/2 206/2/2
f 195/2/2 201/2/2 207/2/2
f 201/3/2 202/3/2 208/3/2
f 207/2/2 201/2/2 208/2/2
f 202/3/2 203/3/2 208/3/2
f 203/3/2 204/3/2 208/3/2
f 204/2/2 205/2/2 209/2/2
f 208/3/2 204/3/2 209/3/2
f 205/3/2 206/3/2 210/3/2
f 209/2/2 205/2/2 210/2/2
f 206/2/2 194/2/2 211/2/2
f 210/3/2 206/3/2 211/3/2
f 211/2/2 194/2/2 212/2/2
f 209/3/2 210/3/2 213/3/2
f 208/3/2 209/3/2 213/3/2
f 211/3/2 212/3/2 213/3/2
f 210/3/2 211/3/2 213/3/2
f 207/3/2 208/3/2 213/3/2
f 213/3/2 212/3/2 214/3/2
f 219/1/3 216/1/3 215/1/3
f 220/2/3 217/2/3 216/2/3
f 220/1/3 216/1/3 219/1/3
f 221/3/3 218/3/3 217/3/3
f 221/2/3 217/2/3 220/2/3
f 222/3/3 218/3/3 221/3/3
f 223/2/3 220/2/3 219/2/3
f 223/1/3 219/1/3 215/1/3
f 223/2/3 222/2/3 221/2/3
f 223/2/3 221/2/3 220/2/3
f 224/2/3 222/2/3 223/2/3
f 225/2/3 222/2/3 224/2/3
f 226/3/3 218/3/3 222/3/3
f 226/2/3 222/2/3 225/2/3
f 227/1/3 223/1/3 215/1/3
f 227/1/3 224/1/3 223/1/3
f 228/2/3 225/2/3 224/2/3
f 228/1/3 224/1/3 227/1/3
f 229/2/3 228/2/3 227/2/3
f 229/2/3 225/2/3 228/2/3
f 230/3/3 226/3/3 225/3/3
f 230/2/3 225/2/3 229/2/3
f 231/1/3 227/1/3 215/1/3
f 231/2/3 229/2/3 227/2/3
f 232/2/3 229/2/3 231/2/3
f 233/3/3 230/3/3 229/3/3
f 233/2/3 229/2/3 232/2/3
f 234/3/3 226/3/3 230/3/3
f 234/3/3 230/3/3 233/3/3
f 234/3/3 218/3/3 226/3/3
f 235/1/3 231/1/3 215/1/3
f 235/1/3 232/1/3 231/1/3
f 236/2/3 233/2/3 232/2/3
f 236/1/3 232/1/3 235/1/3
f 236/2/3 234/2/3 233/2/3
f 237/3/3 218/3/3 234/3/3
f 237/2/3 234/2/3 236/2/3
f 238/3/3 218/3/3 237/3/3
f 241/3/3 240/3/3 239/3/3
f 242/3/3 240/3/3 241/3/3
f 245/3/3 244/3/3 243/3/3
f 246/3/3 244/3/3 245/3/3
f 249/3/3 248/3/3 247/3/3
f 250/3/3 248/3/3 249/3/3
f 253/3/3 252/3/3 251/3/3
f 254/3/3 252/3/3 253/3/3
f 257/3/3 256/3/3 255/3/3
f 258/3/3 256/3/3 257/3/3
f 261/3/3 260/3/3 259/3/3
f 262/3/3 260/3/3 261/3/3
f 265/3/3 264/3/3 263/3/3
f 266/3/3 264/3/3 265/3/3
f 269/3/3 268/3/3 267/3/3
f 270/3/3 268/3/3 269/3/3
f 273/3/3 272/3/3 271/3/3
f 274/3/3 272/3/3 273/3/3
f 277/3/3 276/3/3 275/3/3
f 278/3/3 276/3/3 277/3/3
f 281/3/3 280/3/3 279/3/3
f 282/3/3 280/3/3 281/3/3
f 285/3/3 284/3/3 283/3/3
f 286/3/3 284/3/3 285/3/3
f 289/3/3 288/3/3 287/3/3
f 290/3/3 288/3/3 289/3/3
f 293/3/3 292/3/3 291/3/3
f 294/3/3 292/3/3 293/3/3
f 297/3/3 296/3/3 295/3/3
f 298/3/3 296/3/3 297/3/3
f 301/3/3 300/3/3 299/3/3
f 302/3/3 300/3/3 301/3/3
f 305/3/3 304/3/3 303/3/3
f 306/3/3 304/3/3 305/3/3
f 309/3/3 308/3/3 307/3/3
f 310/3/3 308/3/3 309/3/3
f 311/3/4 312/3/4 313/3/4
f 313/3/4 312/3/4 314/3/4
f 315/3/4 316/3/4 317/3/4
f 317/3/4 316/3/4 318/3/4
f 319/3/4 320/3/4 321/3/4
f 321/3/4 320/3/4 322/3/4
f 323/3/4 324/3/4 325/3/4
f 325/3/4 324/3/4 326/3/4
f 327/3/4 328/3/4 329/3/4
f 329/3/4 328/3/4 330/3/4
f 331/3/4 332/3/4 333/3/4
f 333/3/4 332/3/4 334/3/4
f 335/3/4 336/3/4 337/3/4
f 337/3/4 336/3/4 338/3/4
f 339/3/4 340/3/4 341/3/4
f 341/3/4 340/3/4 342/3/4
f 343/3/4 344/3/4 345/3/4
f 345/3/4 344/3/4 346/3/4
f 347/3/4 348/3/4 349/3/4
f 349/3/4 348/3/4 350/3/4
f 351/3/4 352/3/4 353/3/4
f 353/3/4 352/3/4 354/3/4
f 355/3/4 356/3/4 357/3/4
f 357/3/4 356/3/4 358/3/4
f 359/3/4 360/3/4 361/3/4
f 361/3/4 360/3/4 362/3/4
f 363/3/4 364/3/4 365/3/4
f 365/3/4 364/3/4 366/3/4
f 367/3/4 368/3/4 369/3/4
f 369/3/4 368/3/4 370/3/4
f 371/3/4 372/3/4 373/3/4
f 373/3/4 372/3/4 374/3/4
f 375/3/4 376/3/4 377/3/4
f 377/3/4 376/3/4 378/3/4
f 379/3/4 380/3/4 381/3/4
f 381/3/4 380/3/4 382/3/4
f 383/3/4 384/3/4 385/3/4
f 385/3/4 384/3/4 386/3/4
f 387/3/4 388/3/4 389/3/4
f 389/3/4 388/3/4 390/3/4
f 391/1/4 392/1/4 395/1/4
f 392/2/4 393/2/4 395/2/4
f 395/2/4 393/2/4 396/2/4
f 396/2/4 393/2/4 397/2/4
f 393/3/4 394/3/4 398/3/4
f 397/2/4 393/2/4 398/2/4
f 391/1/4 395/1/4 399/1/4
f 395/1/4 396/1/4 399/1/4
f 396/2/4 397/2/4 400/2/4
f 399/1/4 396/1/4 400/1/4
f 391/1/4 399/1/4 401/1/4
f 399/2/4 400/2/4 402/2/4
f 401/1/4 399/1/4 402/1/4
f 400/2/4 397/2/4 403/2/4
f 402/2/4 400/2/4 403/2/4
f 397/3/4 398/3/4 404/3/4
f 403/2/4 397/2/4 404/2/4
f 401/2/4 402/2/4 405/2/4
f 402/2/4 403/2/4 405/2/4
f 403/3/4 404/3/4 405/3/4
f 404/3/4 398/3/4 406/3/4
f 405/3/4 404/3/4 406/3/4
f 401/2/4 405/2/4 407/2/4
f 391/1/4 401/1/4 407/1/4
f 405/2/4 406/2/4 407/2/4
f 407/2/4 406/2/4 408/2/4
f 407/1/4 408/1/4 409/1/4
f 408/2/4 406/2/4 409/2/4
f 409/2/4 406/2/4 410/2/4
f 406/3/4 398/3/4 411/3/4
f 410/2/4 406/2/4 411/2/4
f 398/3/4 394/3/4 412/3/4
f 411/3/4 398/3/4 412/3/4
f 410/2/4 411/2/4 413/2/4
f 411/2/4 412/2/4 413/2/4
f 412/3/4 394/3/4 414/3/4
f 413/2/4 412/2/4 414/2/4
f 409/1/4 410/1/4 415/1/4
f 407/1/4 409/1/4 415/1/4
f 410/2/4 413/2/4 416/2/4
f 415/1/4 410/1/4 416/1/4
f 407/1/4 415/1/4 417/1/4
f 391/1/4 407/1/4 417/1/4
f 415/2/4 416/2/4 418/2/4
f 417/1/4 415/1/4 418/1/4
f 391/1/4 417/1/4 419/1/4
f 417/2/4 418/2/4 419/2/4
f 418/2/4 416/2/4 420/2/4
f 419/2/4 418/2/4 420/2/4
f 416/2/4 413/2/4 421/2/4
f 420/2/4 416/2/4 421/2/4
f 413/3/4 414/3/4 421/3/4
f 414/3/4 394/3/4 422/3/4
f 421/3/4 414/3/4 422/3/4
f 419/1/4 420/1/4 423/1/4
f 391/1/4 419/1/4 423/1/4
f 420/2/4 421/2/4 424/2/4
f 423/1/4 420/1/4 424/1/4
f 421/2/4 422/2/4 424/2/4
f 422/3/4 394/3/4 425/3/4
f 424/2/4 422/2/4 425/2/4
f 425/3/4 394/3/4 426/3/4
f 429/1/5 428/1/5 427/1/5
f 430/1/5 428/1/5 429/1/5
f 431/3/6 432/3/6 433/3/6
f 433/3/6 432/3/6 434/3/6
f 431/3/6 433/3/6 435/3/6
f 435/3/6 433/3/6 436/3/6
f 431/3/6 435/3/6 437/3/6
f 437/3/6 435/3/6 438/3/6
f 434/3/6 432/3/6 439/3/6
f 439/3/6 432/3/6 440/3/6
f 431/3/6 437/3/6 441/3/6
f 441/3/6 442/3/6 443/3/6
f 431/3/6 441/3/6 445/3/6
f 443/3/6 444/3/6 445/3/6
f 441/3/6 443/3/6 445/3/6
f 445/3/6 444/3/6 446/3/6
f 431/3/6 445/3/6 447/3/6
f 447/3/6 448/3/6 449/3/6
f 440/3/6 432/3/6 452/3/6
f 449/3/6 450/3/6 453/3/6
f 451/3/6 452/3/6 454/3/6
f 449/3/6 453/3/6 455/3/6
f 453/3/6 454/3/6 455/3/6
f 447/3/6 449/3/6 455/3/6
f 431/3/6 447/3/6 455/3/6
f 454/3/6 452/3/6 456/3/6
f 455/3/6 454/3/6 456/3/6
f 452/3/6 432/3/6 456/3/6
f 457/3/6 458/3/6 460/3/6
f 459/3/6 460/3/6 462/3/6
f 460/3/6 458/3/6 463/3/6
f 462/3/6 460/3/6 463/3/6
f 463/3/6 458/3/6 464/3/6
f 464/3/6 458/3/6 465/3/6
f 461/3/6 462/3/6 467/3/6
f 462/3/6 463/3/6 467/3/6
f 467/3/6 463/3/6 468/3/6
f 468/3/6 463/3/6 469/3/6
f 469/3/6 463/3/6 470/3/6
f 468/3/6 469/3/6 473/3/6
f 473/3/6 469/3/6 474/3/6
f 471/2/6 472/2/6 475/2/6
f 475/2/6 472/2/6 476/2/6
f 465/3/6 466/3/6 477/3/6
f 464/3/6 465/3/6 477/3/6
f 477/3/6 466/3/6 478/3/6
f 474/3/6 469/3/6 480/3/6
f 478/3/6 466/3/6 483/3/6
f 483/3/6 466/3/6 484/3/6
f 481/2/6 482/2/6 488/2/6
f 488/2/6 482/2/6 489/2/6
f 487/2/6 488/2/6 489/2/6
f 489/2/6 482/2/6 490/2/6
f 480/3/6 469/3/6 491/3/6
f 479/3/6 480/3/6 491/3/6
f 491/3/6 469/3/6 492/3/6
f 487/2/6 489/2/6 493/2/6
f 493/2/6 489/2/6 494/2/6
f 484/3/6 466/3/6 496/3/6
f 485/2/6 486/2/6 501/2/6
f 501/2/6 486/2/6 502/2/6
f 497/2/6 498/2/6 503/2/6
f 503/2/6 498/2/6 504/2/6
f 495/3/6 496/3/6 505/3/6
f 496/3/6 466/3/6 506/3/6
f 505/3/6 496/3/6 506/3/6
f 479/3/6 491/3/6 507/3/6
f 499/2/6 500/2/6 511/2/6
f 511/2/6 500/2/6 512/2/6
f 479/3/6 507/3/6 513/3/6
f 507/3/6 508/3/6 513/3/6
f 513/3/6 508/3/6 514/3/6
f 514/3/6 508/3/6 519/3/6
f 515/3/6 516/3/6 520/3/6
f 509/2/6 510/2/6 521/2/6
f 521/2/6 510/2/6 522/2/6
f 519/3/6 520/3/6 523/3/6
f 514/3/6 519/3/6 523/3/6
f 523/3/6 520/3/6 524/3/6
f 520/3/6 516/3/6 525/3/6
f 524/3/6 520/3/6 525/3/6
f 517/3/6 518/3/6 526/3/6
f 526/3/6 518/3/6 527/3/6
f 506/3/6 466/3/6 528/3/6
f 526/3/6 527/3/6 529/3/6
f 527/3/6 528/3/6 529/3/6
f 525/3/6 526/3/6 529/3/6
f 528/3/6 466/3/6 530/3/6
f 529/3/6 528/3/6 530/3/6
f 524/3/6 525/3/6 531/3/6
f 525/3/6 529/3/6 531/3/6
f 531/3/6 529/3/6 532/3/6
f 533/3/6 534/3/6 536/3/6
f 536/3/6 534/3/6 537/3/6
f 537/3/6 534/3/6 538/3/6
f 535/3/6 536/3/6 539/3/6
f 536/3/6 537/3/6 539/3/6
f 538/3/6 534/3/6 540/3/6
f 540/3/6 534/3/6 541/3/6
f 539/3/6 540/3/6 543/3/6
f 541/3/6 542/3/6 543/3/6
f 540/3/6 541/3/6 543/3/6
f 543/3/6 542/3/6 544/3/6
f 544/3/6 542/3/6 545/3/6
f 535/3/6 539/3/6 547/3/6
f 539/3/6 543/3/6 547/3/6
f 547/3/6 543/3/6 548/3/6
f 548/3/6 543/3/6 549/3/6
f 549/3/6 543/3/6 550/3/6
f 545/3/6 546/3/6 552/3/6
f 544/3/6 545/3/6 552/3/6
f 535/3/6 547/3/6 554/3/6
f 548/3/6 549/3/6 555/3/6
f 551/3/6 552/3/6 556/3/6
f 552/3/6 546/3/6 557/3/6
f 555/3/6 556/3/6 557/3/6
f 556/3/6 552/3/6 557/3/6
f 557/3/6 546/3/6 558/3/6
f 553/3/6 554/3/6 559/3/6
f 554/3/6 547/3/6 559/3/6
f 559/3/6 547/3/6 560/3/6
f 555/3/6 557/3/6 561/3/6
f 561/3/6 557/3/6 562/3/6
f 560/3/6 547/3/6 563/3/6
f 548/3/6 555/3/6 564/3/6
f 555/3/6 561/3/6 564/3/6
f 553/3/6 559/3/6 565/3/6
f 560/3/6 563/3/6 566/3/6
f 563/3/6 564/3/6 566/3/6
f 562/3/6 557/3/6 567/3/6
f 553/3/6 565/3/6 569/3/6
f 565/3/6 566/3/6 569/3/6
f 569/3/6 566/3/6 570/3/6
f 566/3/6 564/3/6 571/3/6
f 570/3/6 566/3/6 571/3/6
f 564/3/6 561/3/6 572/3/6
f 571/3/6 564/3/6 572/3/6
f 572/3/6 561/3/6 573/3/6
f 562/3/6 567/3/6 574/3/6
f 567/3/6 568/3/6 574/3/6
f 570/3/6 571/3/6 575/3/6
f 575/3/6 571/3/6 576/3/6
f 572/3/6 573/3/6 577/3/6
f 573/3/6 574/3/6 577/3/6
f 574/3/6 568/3/6 578/3/6
f 577/3/6 574/3/6 578/3/6
f 570/3/6 575/3/6 579/3/6
f 579/3/6 575/3/6 580/3/6
f 576/3/6 571/3/6 581/3/6
f 572/3/6 577/3/6 582/3/6
f 581/3/6 582/3/6 583/3/6
f 576/3/6 581/3/6 583/3/6
f 582/3/6 577/3/6 584/3/6
f 583/3/6 582/3/6 584/3/6
f 578/3/6 568/3/6 585/3/6
f 585/3/6 568/3/6 586/3/6
