# MagicaVoxel @ Ephtracy

# group
o 

# material
mtllib lilypad2.mtl
usemtl palette

# normals
vn -1 0 0
vn 1 0 0
vn 0 0 1
vn 0 0 -1
vn 0 -1 0
vn 0 1 0

# texcoords
vt 0.669922 0.5
vt 0.677734 0.5

# verts
v -0.3 0 0.3
v -0.3 0 0
v -0.3 0 -0.1
v -0.3 0.1 0.3
v -0.3 0.1 0
v -0.3 0.1 -0.1
v -0.2 0 0.4
v -0.2 0 0.3
v -0.2 0 -0.1
v -0.2 0 -0.3
v -0.2 0.1 0.4
v -0.2 0.1 0.3
v -0.2 0.1 -0.1
v -0.2 0.1 -0.3
v -0.1 0 -0.3
v -0.1 0 -0.5
v -0.1 0.1 -0.3
v -0.1 0.1 -0.5
v 2.98023e-08 0 -0.4
v 2.98023e-08 0 -0.5
v 2.98023e-08 0.1 -0.4
v 2.98023e-08 0.1 -0.5
v 0.1 0 0.4
v 0.1 0 0.3
v 0.1 0 -0.1
v 0.1 0 -0.4
v 0.1 0.1 0.4
v 0.1 0.1 0.3
v 0.1 0.1 -0.1
v 0.1 0.1 -0.4
v 0.2 0 0.3
v 0.2 0 -0.1
v 0.2 0.1 0.3
v 0.2 0.1 -0.1
v -0.2 0 0.4
v -0.2 0.1 0.4
v 0.1 0 0.4
v 0.1 0.1 0.4
v -0.3 0 0.3
v -0.3 0.1 0.3
v -0.2 0 0.3
v -0.2 0.1 0.3
v 0.1 0 0.3
v 0.1 0.1 0.3
v 0.2 0 0.3
v 0.2 0.1 0.3
v -0.3 0 -0.1
v -0.3 0.1 -0.1
v -0.2 0 -0.1
v -0.2 0.1 -0.1
v 0.1 0 -0.1
v 0.1 0.1 -0.1
v 0.2 0 -0.1
v 0.2 0.1 -0.1
v -0.2 0 -0.3
v -0.2 0.1 -0.3
v -0.1 0 -0.3
v -0.1 0.1 -0.3
v 2.98023e-08 0 -0.4
v 2.98023e-08 0.1 -0.4
v 0.1 0 -0.4
v 0.1 0.1 -0.4
v -0.1 0 -0.5
v -0.1 0.1 -0.5
v 2.98023e-08 0 -0.5
v 2.98023e-08 0.1 -0.5
v -0.2 0 0.4
v 0.1 0 0.4
v -0.3 0 0.3
v -0.2 0 0.3
v 2.98023e-08 0 0.3
v 0.1 0 0.3
v 0.2 0 0.3
v -0.1 0 0.2
v 2.98023e-08 0 0.2
v -0.1 0 0.1
v 2.98023e-08 0 0.1
v -0.3 0 0
v -0.1 0 0
v 2.98023e-08 0 0
v 0.1 0 0
v -0.3 0 -0.1
v -0.2 0 -0.1
v 0.1 0 -0.1
v 0.2 0 -0.1
v -0.1 0 -0.2
v 2.98023e-08 0 -0.2
v -0.2 0 -0.3
v -0.1 0 -0.3
v 2.98023e-08 0 -0.4
v 0.1 0 -0.4
v -0.1 0 -0.5
v 2.98023e-08 0 -0.5
v -0.2 0.1 0.4
v 0.1 0.1 0.4
v -0.3 0.1 0.3
v -0.2 0.1 0.3
v 2.98023e-08 0.1 0.3
v 0.1 0.1 0.3
v 0.2 0.1 0.3
v -0.1 0.1 0.2
v 2.98023e-08 0.1 0.2
v -0.1 0.1 0.1
v 2.98023e-08 0.1 0.1
v -0.3 0.1 0
v -0.1 0.1 0
v 2.98023e-08 0.1 0
v 0.1 0.1 0
v -0.3 0.1 -0.1
v -0.2 0.1 -0.1
v 0.1 0.1 -0.1
v 0.2 0.1 -0.1
v -0.1 0.1 -0.2
v 2.98023e-08 0.1 -0.2
v -0.2 0.1 -0.3
v -0.1 0.1 -0.3
v 2.98023e-08 0.1 -0.4
v 0.1 0.1 -0.4
v -0.1 0.1 -0.5
v 2.98023e-08 0.1 -0.5

# faces
f 4/2/1 2/2/1 1/2/1
f 5/1/1 3/1/1 2/1/1
f 5/2/1 2/2/1 4/2/1
f 6/1/1 3/1/1 5/1/1
f 11/2/1 8/2/1 7/2/1
f 12/2/1 8/2/1 11/2/1
f 13/1/1 10/1/1 9/1/1
f 14/1/1 10/1/1 13/1/1
f 17/1/1 16/1/1 15/1/1
f 18/1/1 16/1/1 17/1/1
f 19/1/2 20/1/2 21/1/2
f 21/1/2 20/1/2 22/1/2
f 23/2/2 24/2/2 27/2/2
f 27/2/2 24/2/2 28/2/2
f 25/2/2 26/2/2 29/2/2
f 29/2/2 26/2/2 30/2/2
f 31/1/2 32/1/2 33/1/2
f 33/1/2 32/1/2 34/1/2
f 37/2/3 36/2/3 35/2/3
f 38/2/3 36/2/3 37/2/3
f 41/2/3 40/2/3 39/2/3
f 42/2/3 40/2/3 41/2/3
f 45/1/3 44/1/3 43/1/3
f 46/1/3 44/1/3 45/1/3
f 47/1/4 48/1/4 49/1/4
f 49/1/4 48/1/4 50/1/4
f 51/1/4 52/1/4 53/1/4
f 53/1/4 52/1/4 54/1/4
f 55/1/4 56/1/4 57/1/4
f 57/1/4 56/1/4 58/1/4
f 59/2/4 60/2/4 61/2/4
f 61/2/4 60/2/4 62/2/4
f 63/1/4 64/1/4 65/1/4
f 65/1/4 64/1/4 66/1/4
f 70/2/5 68/2/5 67/2/5
f 71/2/5 68/2/5 70/2/5
f 72/2/5 68/2/5 71/2/5
f 74/2/5 70/2/5 69/2/5
f 74/2/5 71/2/5 70/2/5
f 75/1/5 73/1/5 72/1/5
f 75/2/5 71/2/5 74/2/5
f 75/1/5 72/1/5 71/1/5
f 76/2/5 74/2/5 69/2/5
f 76/1/5 75/1/5 74/1/5
f 77/1/5 73/1/5 75/1/5
f 77/1/5 75/1/5 76/1/5
f 78/2/5 76/2/5 69/2/5
f 78/2/5 77/2/5 76/2/5
f 79/2/5 77/2/5 78/2/5
f 80/1/5 73/1/5 77/1/5
f 80/2/5 77/2/5 79/2/5
f 81/1/5 73/1/5 80/1/5
f 82/1/5 79/1/5 78/1/5
f 83/1/5 79/1/5 82/1/5
f 84/1/5 73/1/5 81/1/5
f 84/2/5 80/2/5 79/2/5
f 84/2/5 81/2/5 80/2/5
f 85/1/5 73/1/5 84/1/5
f 86/1/5 79/1/5 83/1/5
f 86/2/5 84/2/5 79/2/5
f 87/2/5 84/2/5 86/2/5
f 88/1/5 86/1/5 83/1/5
f 88/1/5 87/1/5 86/1/5
f 89/1/5 87/1/5 88/1/5
f 90/2/5 84/2/5 87/2/5
f 90/1/5 87/1/5 89/1/5
f 91/2/5 84/2/5 90/2/5
f 92/1/5 90/1/5 89/1/5
f 93/1/5 90/1/5 92/1/5
f 94/2/6 95/2/6 97/2/6
f 97/2/6 95/2/6 98/2/6
f 98/2/6 95/2/6 99/2/6
f 96/2/6 97/2/6 101/2/6
f 97/2/6 98/2/6 101/2/6
f 99/1/6 100/1/6 102/1/6
f 101/2/6 98/2/6 102/2/6
f 98/1/6 99/1/6 102/1/6
f 96/2/6 101/2/6 103/2/6
f 101/1/6 102/1/6 103/1/6
f 102/1/6 100/1/6 104/1/6
f 103/1/6 102/1/6 104/1/6
f 96/2/6 103/2/6 105/2/6
f 103/2/6 104/2/6 105/2/6
f 105/2/6 104/2/6 106/2/6
f 104/1/6 100/1/6 107/1/6
f 106/2/6 104/2/6 107/2/6
f 107/1/6 100/1/6 108/1/6
f 105/1/6 106/1/6 109/1/6
f 109/1/6 106/1/6 110/1/6
f 108/1/6 100/1/6 111/1/6
f 106/2/6 107/2/6 111/2/6
f 107/2/6 108/2/6 111/2/6
f 111/1/6 100/1/6 112/1/6
f 110/1/6 106/1/6 113/1/6
f 106/2/6 111/2/6 113/2/6
f 113/2/6 111/2/6 114/2/6
f 110/1/6 113/1/6 115/1/6
f 113/1/6 114/1/6 115/1/6
f 115/1/6 114/1/6 116/1/6
f 114/2/6 111/2/6 117/2/6
f 116/1/6 114/1/6 117/1/6
f 117/2/6 111/2/6 118/2/6
f 116/1/6 117/1/6 119/1/6
f 119/1/6 117/1/6 120/1/6
