# MagicaVoxel @ Ephtracy

# group
o 

# material
mtllib tree3.mtl
usemtl palette

# normals
vn -1 0 0
vn 1 0 0
vn 0 0 1
vn 0 0 -1
vn 0 -1 0
vn 0 1 0

# texcoords
vt 0.111328 0.5
vt 0.119141 0.5
vt 0.962891 0.5

# verts
v -0.4 0 0.1
v -0.4 0 0
v -0.4 0.1 0.1
v -0.4 0.1 0
v -0.4 0.5 0.1
v -0.4 0.5 0
v -0.4 0.7 0.1
v -0.4 0.7 0
v -0.4 0.8 0.1
v -0.4 0.8 0
v -0.3 0 0.2
v -0.3 0 0.1
v -0.3 0 0
v -0.3 0 -0.1
v -0.3 0.1 0.2
v -0.3 0.1 0.1
v -0.3 0.1 0
v -0.3 0.1 -0.1
v -0.3 1.3 0
v -0.3 1.3 -0.1
v -0.3 1.4 0.2
v -0.3 1.4 0
v -0.3 1.4 -0.1
v -0.3 1.5 0.2
v -0.3 1.5 0.1
v -0.3 1.5 0
v -0.3 1.5 -0.1
v -0.3 1.6 0.2
v -0.3 1.6 0.1
v -0.3 1.6 0
v -0.3 1.6 -0.1
v -0.3 1.7 0.2
v -0.3 1.7 0.1
v -0.3 1.7 0
v -0.3 1.7 -0.1
v -0.3 1.8 0
v -0.3 1.8 -0.1
v -0.2 0.1 0.2
v -0.2 0.1 0
v -0.2 0.1 -0.1
v -0.2 0.2 0
v -0.2 0.2 -0.1
v -0.2 0.3 0.2
v -0.2 0.3 0
v -0.2 0.4 0.2
v -0.2 0.4 0
v -0.1 0.2 0
v -0.1 0.2 -0.1
v -0.1 0.3 0
v -0.1 0.3 -0.1
v -0.1 0.4 0.1
v -0.1 0.4 0
v -0.1 0.5 0.1
v -0.1 0.5 0
v -0.1 0.5 -0.1
v -0.1 0.6 0
v -0.1 0.7 0.1
v -0.1 0.7 0
v -0.1 1 0.1
v -0.1 1 -0.1
v -0.1 1.1 0.1
v -0.1 1.1 -0.1
v -0.1 1.3 0.1
v -0.1 1.3 0
v -0.1 1.3 -0.1
v -0.1 1.4 0.1
v -0.1 1.4 0
v 0 0 0.3
v 0 0 0.2
v 0 0 -0.1
v 0 0 -0.2
v 0 0.1 0.3
v 0 0.1 0.2
v 0 0.2 -0.1
v 0 0.2 -0.2
v 0 0.3 -0.1
v 0 0.3 -0.2
v 0 1.4 0.1
v 0 1.4 0
v 0 1.5 0.4
v 0 1.5 0.1
v 0 1.5 0
v 0 1.5 -0.1
v 0 1.5 -0.4
v 0 1.6 0.4
v 0 1.6 0.3
v 0 1.6 0
v 0 1.6 -0.1
v 0 1.6 -0.3
v 0 1.6 -0.4
v 0 1.7 0.3
v 0 1.7 0
v 0 1.7 -0.1
v 0 1.7 -0.3
v 0 1.8 0.4
v 0 1.8 0.3
v 0 1.9 0.4
v 0 1.9 0.3
v 0 1.9 0
v 0 1.9 -0.1
v 0 1.9 -0.3
v 0 1.9 -0.4
v 0 2 0
v 0 2 -0.1
v 0 2 -0.3
v 0 2 -0.4
v 0 2.1 0
v 0 2.1 -0.1
v 0.1 0 0.4
v 0.1 0 0.3
v 0.1 0.1 0.4
v 0.1 0.1 0.3
v 0.2 1.5 0.1
v 0.2 1.5 0
v 0.2 1.6 0.1
v 0.2 1.6 0
v 0.2 1.7 0.1
v 0.2 1.7 0
v 0.2 1.8 0.1
v 0.2 1.8 0
v 0.2 1.8 -0.3
v 0.2 1.8 -0.4
v 0.2 1.9 -0.3
v 0.2 1.9 -0.4
v 0.3 0.8 0
v 0.3 0.8 -0.1
v 0.3 0.9 0
v 0.3 0.9 -0.1
v -0.3 0.7 0.1
v -0.3 0.7 0
v -0.3 0.8 0.1
v -0.3 0.8 0
v -0.2 1.4 0.2
v -0.2 1.4 0
v -0.2 1.5 0.2
v -0.2 1.5 0.1
v -0.2 1.5 0
v -0.2 1.5 -0.1
v -0.2 1.6 0.2
v -0.2 1.6 0.1
v -0.2 1.6 0
v -0.2 1.6 -0.1
v -0.2 1.7 0.2
v -0.2 1.7 0.1
v -0.2 1.7 0
v -0.2 1.7 -0.1
v -0.2 1.8 0
v -0.2 1.8 -0.1
v 0.1 0 0.1
v 0.1 0 0
v 0.1 0.1 0.2
v 0.1 0.1 0.1
v 0.1 0.2 0
v 0.1 0.3 0.2
v 0.1 0.3 0.1
v 0.1 0.3 0
v 0.1 0.3 -0.1
v 0.1 0.4 0.2
v 0.1 0.4 0.1
v 0.1 0.5 0.1
v 0.1 0.5 -0.1
v 0.1 0.6 0
v 0.1 0.6 -0.1
v 0.1 0.7 0
v 0.1 0.8 0
v 0.1 0.8 -0.1
v 0.1 1 0.1
v 0.1 1 -0.1
v 0.1 1.1 0.1
v 0.1 1.1 -0.1
v 0.1 1.3 0.1
v 0.1 1.3 0
v 0.1 1.4 0
v 0.1 1.4 -0.1
v 0.1 1.5 0.4
v 0.1 1.5 0.1
v 0.1 1.5 0
v 0.1 1.5 -0.1
v 0.1 1.5 -0.4
v 0.1 1.6 0.4
v 0.1 1.6 0.3
v 0.1 1.6 0
v 0.1 1.6 -0.1
v 0.1 1.6 -0.3
v 0.1 1.6 -0.4
v 0.1 1.7 0.3
v 0.1 1.7 0
v 0.1 1.7 -0.1
v 0.1 1.7 -0.3
v 0.1 1.8 0.4
v 0.1 1.8 0.3
v 0.1 1.8 -0.3
v 0.1 1.8 -0.4
v 0.1 1.9 0.4
v 0.1 1.9 0.3
v 0.1 1.9 0
v 0.1 1.9 -0.1
v 0.1 1.9 -0.3
v 0.1 1.9 -0.4
v 0.1 2 0
v 0.1 2 -0.1
v 0.1 2 -0.3
v 0.1 2 -0.4
v 0.1 2.1 0
v 0.1 2.1 -0.1
v 0.2 0 0.4
v 0.2 0 0.3
v 0.2 0 0.2
v 0.2 0 0.1
v 0.2 0 0
v 0.2 0 -0.2
v 0.2 0.1 0.4
v 0.2 0.1 0.3
v 0.2 0.1 0.2
v 0.2 0.1 0.1
v 0.2 0.2 0
v 0.2 0.2 -0.2
v 0.2 0.3 0
v 0.2 0.3 -0.2
v 0.3 0 0.3
v 0.3 0 0.2
v 0.3 0.1 0.3
v 0.3 0.1 0.2
v 0.3 1.3 0.1
v 0.3 1.3 0
v 0.3 1.4 0.1
v 0.3 1.4 0
v 0.3 1.5 0.1
v 0.3 1.5 0
v 0.3 1.6 0.1
v 0.3 1.6 0
v 0.3 1.6 -0.3
v 0.3 1.6 -0.4
v 0.3 1.7 0.1
v 0.3 1.7 0
v 0.3 1.8 0.1
v 0.3 1.8 0
v 0.3 1.8 -0.3
v 0.3 1.8 -0.4
v 0.3 1.9 -0.3
v 0.3 1.9 -0.4
v 0.4 0.6 0
v 0.4 0.6 -0.1
v 0.4 0.8 0
v 0.4 0.8 -0.1
v 0.4 0.9 0
v 0.4 0.9 -0.1
v 0 1.5 0.4
v 0 1.6 0.4
v 0 1.8 0.4
v 0 1.9 0.4
v 0.1 0 0.4
v 0.1 0.1 0.4
v 0.1 1.5 0.4
v 0.1 1.6 0.4
v 0.1 1.8 0.4
v 0.1 1.9 0.4
v 0.2 0 0.4
v 0.2 0.1 0.4
v 0 0 0.3
v 0 0.1 0.3
v 0.1 0 0.3
v 0.1 0.1 0.3
v 0.2 0 0.3
v 0.2 0.1 0.3
v 0.3 0 0.3
v 0.3 0.1 0.3
v -0.3 0 0.2
v -0.3 0.1 0.2
v -0.3 1.4 0.2
v -0.3 1.5 0.2
v -0.3 1.6 0.2
v -0.3 1.7 0.2
v -0.2 0 0.2
v -0.2 0.1 0.2
v -0.2 0.3 0.2
v -0.2 0.4 0.2
v -0.2 1.4 0.2
v -0.2 1.5 0.2
v -0.2 1.6 0.2
v -0.2 1.7 0.2
v 0 0 0.2
v 0 0.1 0.2
v 0.1 0.1 0.2
v 0.1 0.3 0.2
v 0.1 0.4 0.2
v -0.4 0 0.1
v -0.4 0.1 0.1
v -0.4 0.5 0.1
v -0.4 0.7 0.1
v -0.4 0.8 0.1
v -0.3 0 0.1
v -0.3 0.1 0.1
v -0.3 0.6 0.1
v -0.3 0.7 0.1
v -0.3 0.8 0.1
v -0.1 0.4 0.1
v -0.1 0.5 0.1
v -0.1 0.6 0.1
v -0.1 0.7 0.1
v -0.1 1 0.1
v -0.1 1.1 0.1
v -0.1 1.3 0.1
v -0.1 1.4 0.1
v 0 1.3 0.1
v 0 1.4 0.1
v 0 1.5 0.1
v 0.1 0.4 0.1
v 0.1 0.5 0.1
v 0.1 1 0.1
v 0.1 1.1 0.1
v 0.1 1.3 0.1
v 0.1 1.4 0.1
v 0.1 1.5 0.1
v 0.2 1.4 0.1
v 0.2 1.5 0.1
v 0.2 1.6 0.1
v 0.2 1.7 0.1
v 0.2 1.8 0.1
v 0.3 1.3 0.1
v 0.3 1.4 0.1
v 0.3 1.5 0.1
v 0.3 1.6 0.1
v 0.3 1.7 0.1
v 0.3 1.8 0.1
v -0.3 1.3 0
v -0.3 1.4 0
v -0.3 1.6 0
v -0.3 1.7 0
v -0.3 1.8 0
v -0.2 1.4 0
v -0.2 1.5 0
v -0.2 1.6 0
v -0.2 1.7 0
v -0.2 1.8 0
v -0.1 1.3 0
v -0.1 1.4 0
v 0 1.4 0
v 0 1.5 0
v 0 1.7 0
v 0 1.9 0
v 0 2 0
v 0 2.1 0
v 0.1 0 0
v 0.1 0.2 0
v 0.1 0.3 0
v 0.1 0.6 0
v 0.1 0.7 0
v 0.1 0.8 0
v 0.1 1.7 0
v 0.1 1.9 0
v 0.1 2 0
v 0.1 2.1 0
v 0.2 0 0
v 0.2 0.2 0
v 0.2 0.3 0
v 0.3 0.7 0
v 0.3 0.8 0
v 0.3 0.9 0
v 0.4 0.6 0
v 0.4 0.8 0
v 0.4 0.9 0
v 0 1.7 -0.3
v 0 1.9 -0.3
v 0 2 -0.3
v 0.1 1.6 -0.3
v 0.1 1.7 -0.3
v 0.1 1.8 -0.3
v 0.1 1.9 -0.3
v 0.1 2 -0.3
v 0.2 1.7 -0.3
v 0.2 1.8 -0.3
v 0.2 1.9 -0.3
v 0.3 1.6 -0.3
v 0.3 1.8 -0.3
v 0.3 1.9 -0.3
v 0 1.7 0.3
v 0 1.8 0.3
v 0 1.9 0.3
v 0.1 1.7 0.3
v 0.1 1.8 0.3
v 0.1 1.9 0.3
v 0.2 0 0.2
v 0.2 0.1 0.2
v 0.3 0 0.2
v 0.3 0.1 0.2
v -0.3 1.6 0.1
v -0.3 1.7 0.1
v -0.2 1.6 0.1
v -0.2 1.7 0.1
v 0.1 0 0.1
v 0.1 0.1 0.1
v 0.2 0 0.1
v 0.2 0.1 0.1
v -0.4 0 0
v -0.4 0.1 0
v -0.4 0.5 0
v -0.4 0.7 0
v -0.4 0.8 0
v -0.3 0 0
v -0.3 0.1 0
v -0.3 0.6 0
v -0.3 0.7 0
v -0.3 0.8 0
v -0.2 0.2 0
v -0.2 0.3 0
v -0.2 0.4 0
v -0.1 0.2 0
v -0.1 0.3 0
v -0.1 0.4 0
v -0.1 0.5 0
v -0.1 0.6 0
v -0.1 0.7 0
v 0.1 1.3 0
v 0.1 1.4 0
v 0.1 1.5 0
v 0.2 1.4 0
v 0.2 1.5 0
v 0.2 1.6 0
v 0.2 1.7 0
v 0.2 1.8 0
v 0.3 1.3 0
v 0.3 1.4 0
v 0.3 1.5 0
v 0.3 1.6 0
v 0.3 1.7 0
v 0.3 1.8 0
v -0.3 0 -0.1
v -0.3 0.1 -0.1
v -0.3 1.3 -0.1
v -0.3 1.4 -0.1
v -0.3 1.5 -0.1
v -0.3 1.6 -0.1
v -0.3 1.7 -0.1
v -0.3 1.8 -0.1
v -0.2 0.1 -0.1
v -0.2 0.2 -0.1
v -0.2 1.4 -0.1
v -0.2 1.5 -0.1
v -0.2 1.6 -0.1
v -0.2 1.7 -0.1
v -0.2 1.8 -0.1
v -0.1 0 -0.1
v -0.1 0.2 -0.1
v -0.1 0.3 -0.1
v -0.1 0.5 -0.1
v -0.1 1 -0.1
v -0.1 1.1 -0.1
v -0.1 1.3 -0.1
v 0 0 -0.1
v 0 0.2 -0.1
v 0 0.3 -0.1
v 0 1.4 -0.1
v 0 1.5 -0.1
v 0 1.7 -0.1
v 0 1.9 -0.1
v 0 2 -0.1
v 0 2.1 -0.1
v 0.1 0.3 -0.1
v 0.1 0.5 -0.1
v 0.1 0.6 -0.1
v 0.1 0.7 -0.1
v 0.1 0.8 -0.1
v 0.1 1 -0.1
v 0.1 1.1 -0.1
v 0.1 1.4 -0.1
v 0.1 1.5 -0.1
v 0.1 1.7 -0.1
v 0.1 1.9 -0.1
v 0.1 2 -0.1
v 0.1 2.1 -0.1
v 0.3 0.7 -0.1
v 0.3 0.8 -0.1
v 0.3 0.9 -0.1
v 0.4 0.6 -0.1
v 0.4 0.8 -0.1
v 0.4 0.9 -0.1
v 0 0 -0.2
v 0 0.2 -0.2
v 0 0.3 -0.2
v 0.2 0 -0.2
v 0.2 0.2 -0.2
v 0.2 0.3 -0.2
v 0 1.5 -0.4
v 0 1.6 -0.4
v 0 1.9 -0.4
v 0 2 -0.4
v 0.1 1.5 -0.4
v 0.1 1.6 -0.4
v 0.1 1.7 -0.4
v 0.1 1.8 -0.4
v 0.1 1.9 -0.4
v 0.1 2 -0.4
v 0.2 1.7 -0.4
v 0.2 1.8 -0.4
v 0.2 1.9 -0.4
v 0.3 1.6 -0.4
v 0.3 1.8 -0.4
v 0.3 1.9 -0.4
v 0.1 0 0.4
v 0.2 0 0.4
v 0 0 0.3
v 0.1 0 0.3
v 0.2 0 0.3
v 0.3 0 0.3
v -0.3 0 0.2
v -0.2 0 0.2
v 0 0 0.2
v 0.1 0 0.2
v 0.2 0 0.2
v 0.3 0 0.2
v -0.4 0 0.1
v -0.3 0 0.1
v -0.1 0 0.1
v 0 0 0.1
v 0.1 0 0.1
v 0.2 0 0.1
v -0.4 0 0
v -0.3 0 0
v -0.2 0 0
v -0.1 0 0
v 0 0 0
v 0.1 0 0
v 0.2 0 0
v -0.3 0 -0.1
v -0.1 0 -0.1
v 0 0 -0.1
v 0 0 -0.2
v 0.2 0 -0.2
v -0.4 0.5 0.1
v -0.1 0.5 0.1
v -0.4 0.5 0
v -0.1 0.5 0
v 0.1 0.6 0
v 0.4 0.6 0
v 0.1 0.6 -0.1
v 0.4 0.6 -0.1
v 0.1 1.3 0.1
v 0.3 1.3 0.1
v -0.3 1.3 0
v -0.1 1.3 0
v 0.1 1.3 0
v 0.3 1.3 0
v -0.3 1.3 -0.1
v -0.1 1.3 -0.1
v -0.3 1.4 0.2
v -0.2 1.4 0.2
v -0.3 1.4 0
v -0.2 1.4 0
v 0 1.5 0.4
v 0.1 1.5 0.4
v 0 1.5 0.1
v 0.1 1.5 0.1
v 0 1.5 -0.1
v 0.1 1.5 -0.1
v 0 1.5 -0.4
v 0.1 1.5 -0.4
v 0.1 1.6 -0.3
v 0.3 1.6 -0.3
v 0.1 1.6 -0.4
v 0.3 1.6 -0.4
v 0.1 0.1 0.4
v 0.2 0.1 0.4
v 0 0.1 0.3
v 0.1 0.1 0.3
v 0.2 0.1 0.3
v 0.3 0.1 0.3
v -0.3 0.1 0.2
v -0.2 0.1 0.2
v 0 0.1 0.2
v 0.1 0.1 0.2
v 0.2 0.1 0.2
v 0.3 0.1 0.2
v -0.4 0.1 0.1
v -0.3 0.1 0.1
v 0.1 0.1 0.1
v 0.2 0.1 0.1
v -0.4 0.1 0
v -0.3 0.1 0
v -0.2 0.1 0
v -0.3 0.1 -0.1
v -0.2 0.1 -0.1
v -0.2 0.2 0
v -0.1 0.2 0
v -0.2 0.2 -0.1
v -0.1 0.2 -0.1
v 0.1 0.3 0
v 0.2 0.3 0
v 0 0.3 -0.1
v 0.1 0.3 -0.1
v 0 0.3 -0.2
v 0.2 0.3 -0.2
v -0.2 0.4 0.2
v 0.1 0.4 0.2
v -0.1 0.4 0.1
v 0.1 0.4 0.1
v -0.2 0.4 0
v -0.1 0.4 0
v -0.3 0.7 0.1
v -0.1 0.7 0.1
v -0.3 0.7 0
v -0.1 0.7 0
v -0.4 0.8 0.1
v -0.3 0.8 0.1
v -0.4 0.8 0
v -0.3 0.8 0
v 0.1 0.8 0
v 0.3 0.8 0
v 0.1 0.8 -0.1
v 0.3 0.8 -0.1
v 0.3 0.9 0
v 0.4 0.9 0
v 0.3 0.9 -0.1
v 0.4 0.9 -0.1
v -0.1 1.4 0.1
v 0 1.4 0.1
v -0.1 1.4 0
v 0 1.4 0
v 0.1 1.5 0.1
v 0.2 1.5 0.1
v -0.2 1.5 0
v 0 1.5 0
v 0.1 1.5 0
v 0.2 1.5 0
v -0.2 1.5 -0.1
v 0 1.5 -0.1
v -0.3 1.6 0.1
v -0.2 1.6 0.1
v -0.3 1.6 0
v -0.2 1.6 0
v 0 1.7 0.3
v 0.1 1.7 0.3
v -0.3 1.7 0.2
v -0.2 1.7 0.2
v -0.3 1.7 0.1
v -0.2 1.7 0.1
v 0 1.7 0
v 0.1 1.7 0
v 0 1.7 -0.1
v 0.1 1.7 -0.1
v 0 1.7 -0.3
v 0.1 1.7 -0.3
v 0.2 1.8 0.1
v 0.3 1.8 0.1
v -0.3 1.8 0
v -0.2 1.8 0
v 0.2 1.8 0
v 0.3 1.8 0
v -0.3 1.8 -0.1
v -0.2 1.8 -0.1
v 0.1 1.8 -0.3
v 0.2 1.8 -0.3
v 0.1 1.8 -0.4
v 0.2 1.8 -0.4
v 0 1.9 0.4
v 0.1 1.9 0.4
v 0 1.9 0.3
v 0.1 1.9 0.3
v 0.2 1.9 -0.3
v 0.3 1.9 -0.3
v 0.2 1.9 -0.4
v 0.3 1.9 -0.4
v 0 2 -0.3
v 0.1 2 -0.3
v 0 2 -0.4
v 0.1 2 -0.4
v 0 2.1 0
v 0.1 2.1 0
v 0 2.1 -0.1
v 0.1 2.1 -0.1

# faces
f 3/3/1 2/3/1 1/3/1
f 4/3/1 2/3/1 3/3/1
f 7/2/1 6/2/1 5/2/1
f 8/2/1 6/2/1 7/2/1
f 9/3/1 8/3/1 7/3/1
f 10/3/1 8/3/1 9/3/1
f 15/3/1 12/3/1 11/3/1
f 16/3/1 12/3/1 15/3/1
f 17/3/1 14/3/1 13/3/1
f 18/3/1 14/3/1 17/3/1
f 22/2/1 20/2/1 19/2/1
f 23/2/1 20/2/1 22/2/1
f 24/1/1 22/1/1 21/1/1
f 24/1/1 23/1/1 22/1/1
f 25/1/1 23/1/1 24/1/1
f 26/1/1 23/1/1 25/1/1
f 27/1/1 23/1/1 26/1/1
f 28/2/1 25/2/1 24/2/1
f 29/3/1 26/3/1 25/3/1
f 29/2/1 25/2/1 28/2/1
f 30/2/1 27/2/1 26/2/1
f 30/3/1 26/3/1 29/3/1
f 31/2/1 27/2/1 30/2/1
f 32/3/1 29/3/1 28/3/1
f 33/3/1 29/3/1 32/3/1
f 34/1/1 31/1/1 30/1/1
f 35/1/1 31/1/1 34/1/1
f 36/3/1 35/3/1 34/3/1
f 37/3/1 35/3/1 36/3/1
f 41/2/1 39/2/1 38/2/1
f 41/3/1 40/3/1 39/3/1
f 42/3/1 40/3/1 41/3/1
f 43/2/1 41/2/1 38/2/1
f 44/2/1 41/2/1 43/2/1
f 45/3/1 44/3/1 43/3/1
f 46/3/1 44/3/1 45/3/1
f 49/2/1 48/2/1 47/2/1
f 50/2/1 48/2/1 49/2/1
f 52/1/1 50/1/1 49/1/1
f 53/1/1 52/1/1 51/1/1
f 54/1/1 50/1/1 52/1/1
f 54/1/1 52/1/1 53/1/1
f 55/1/1 50/1/1 54/1/1
f 56/2/1 55/2/1 54/2/1
f 58/2/1 55/2/1 56/2/1
f 59/2/1 58/2/1 57/2/1
f 60/2/1 55/2/1 58/2/1
f 60/2/1 58/2/1 59/2/1
f 61/1/1 60/1/1 59/1/1
f 62/1/1 60/1/1 61/1/1
f 63/2/1 62/2/1 61/2/1
f 64/2/1 62/2/1 63/2/1
f 65/2/1 62/2/1 64/2/1
f 66/3/1 64/3/1 63/3/1
f 67/3/1 64/3/1 66/3/1
f 72/3/1 69/3/1 68/3/1
f 73/3/1 69/3/1 72/3/1
f 74/2/1 71/2/1 70/2/1
f 75/2/1 71/2/1 74/2/1
f 76/3/1 75/3/1 74/3/1
f 77/3/1 75/3/1 76/3/1
f 81/1/1 79/1/1 78/1/1
f 82/1/1 79/1/1 81/1/1
f 85/2/1 83/2/1 82/2/1
f 85/2/1 84/2/1 83/2/1
f 85/2/1 81/2/1 80/2/1
f 85/2/1 82/2/1 81/2/1
f 86/2/1 84/2/1 85/2/1
f 87/2/1 84/2/1 86/2/1
f 88/2/1 84/2/1 87/2/1
f 89/2/1 84/2/1 88/2/1
f 90/2/1 84/2/1 89/2/1
f 91/1/1 86/1/1 85/1/1
f 91/3/1 87/3/1 86/3/1
f 92/1/1 88/1/1 87/1/1
f 92/3/1 87/3/1 91/3/1
f 93/3/1 89/3/1 88/3/1
f 93/1/1 88/1/1 92/1/1
f 94/1/1 90/1/1 89/1/1
f 94/3/1 89/3/1 93/3/1
f 95/1/1 91/1/1 85/1/1
f 96/1/1 91/1/1 95/1/1
f 97/3/1 96/3/1 95/3/1
f 98/3/1 96/3/1 97/3/1
f 99/1/1 93/1/1 92/1/1
f 100/1/1 93/1/1 99/1/1
f 101/1/1 90/1/1 94/1/1
f 102/1/1 90/1/1 101/1/1
f 103/2/1 100/2/1 99/2/1
f 104/2/1 100/2/1 103/2/1
f 105/3/1 102/3/1 101/3/1
f 106/3/1 102/3/1 105/3/1
f 107/3/1 104/3/1 103/3/1
f 108/3/1 104/3/1 107/3/1
f 111/3/1 110/3/1 109/3/1
f 112/3/1 110/3/1 111/3/1
f 115/2/1 114/2/1 113/2/1
f 116/2/1 114/2/1 115/2/1
f 117/1/1 116/1/1 115/1/1
f 118/1/1 116/1/1 117/1/1
f 119/3/1 118/3/1 117/3/1
f 120/3/1 118/3/1 119/3/1
f 123/3/1 122/3/1 121/3/1
f 124/3/1 122/3/1 123/3/1
f 127/3/1 126/3/1 125/3/1
f 128/3/1 126/3/1 127/3/1
f 129/3/2 130/3/2 131/3/2
f 131/3/2 130/3/2 132/3/2
f 133/1/2 134/1/2 135/1/2
f 135/1/2 134/1/2 136/1/2
f 136/1/2 134/1/2 137/1/2
f 135/2/2 136/2/2 139/2/2
f 136/3/2 137/3/2 140/3/2
f 139/2/2 136/2/2 140/2/2
f 137/2/2 138/2/2 141/2/2
f 140/3/2 137/3/2 141/3/2
f 141/2/2 138/2/2 142/2/2
f 139/3/2 140/3/2 143/3/2
f 143/3/2 140/3/2 144/3/2
f 141/1/2 142/1/2 145/1/2
f 145/1/2 142/1/2 146/1/2
f 145/3/2 146/3/2 147/3/2
f 147/3/2 146/3/2 148/3/2
f 149/2/2 150/2/2 152/2/2
f 152/2/2 150/2/2 153/2/2
f 151/2/2 152/2/2 153/2/2
f 151/2/2 153/2/2 154/2/2
f 154/2/2 153/2/2 155/2/2
f 155/2/2 153/2/2 156/2/2
f 154/3/2 155/3/2 158/3/2
f 155/1/2 156/1/2 159/1/2
f 158/3/2 155/3/2 159/3/2
f 156/1/2 157/1/2 159/1/2
f 159/1/2 157/1/2 160/1/2
f 160/1/2 157/1/2 161/1/2
f 160/2/2 161/2/2 162/2/2
f 162/2/2 161/2/2 163/2/2
f 160/2/2 162/2/2 164/2/2
f 160/2/2 164/2/2 165/2/2
f 160/2/2 165/2/2 167/2/2
f 165/2/2 166/2/2 167/2/2
f 167/2/2 166/2/2 168/2/2
f 167/1/2 168/1/2 169/1/2
f 169/1/2 168/1/2 170/1/2
f 169/2/2 170/2/2 171/2/2
f 171/2/2 170/2/2 172/2/2
f 172/2/2 170/2/2 173/2/2
f 173/2/2 170/2/2 174/2/2
f 173/1/2 174/1/2 177/1/2
f 177/1/2 174/1/2 178/1/2
f 177/2/2 178/2/2 180/2/2
f 178/2/2 179/2/2 180/2/2
f 176/2/2 177/2/2 180/2/2
f 175/2/2 176/2/2 180/2/2
f 180/2/2 179/2/2 181/2/2
f 181/2/2 179/2/2 182/2/2
f 182/2/2 179/2/2 183/2/2
f 183/2/2 179/2/2 184/2/2
f 184/2/2 179/2/2 185/2/2
f 180/1/2 181/1/2 186/1/2
f 181/3/2 182/3/2 186/3/2
f 182/1/2 183/1/2 187/1/2
f 186/3/2 182/3/2 187/3/2
f 183/3/2 184/3/2 188/3/2
f 187/1/2 183/1/2 188/1/2
f 188/3/2 184/3/2 189/3/2
f 180/1/2 186/1/2 190/1/2
f 190/1/2 186/1/2 191/1/2
f 190/3/2 191/3/2 194/3/2
f 194/3/2 191/3/2 195/3/2
f 187/1/2 188/1/2 196/1/2
f 196/1/2 188/1/2 197/1/2
f 192/1/2 193/1/2 198/1/2
f 198/1/2 193/1/2 199/1/2
f 196/2/2 197/2/2 200/2/2
f 200/2/2 197/2/2 201/2/2
f 198/3/2 199/3/2 202/3/2
f 202/3/2 199/3/2 203/3/2
f 200/3/2 201/3/2 204/3/2
f 204/3/2 201/3/2 205/3/2
f 206/3/2 207/3/2 212/3/2
f 212/3/2 207/3/2 213/3/2
f 208/3/2 209/3/2 214/3/2
f 214/3/2 209/3/2 215/3/2
f 210/2/2 211/2/2 216/2/2
f 216/2/2 211/2/2 217/2/2
f 216/3/2 217/3/2 218/3/2
f 218/3/2 217/3/2 219/3/2
f 220/3/2 221/3/2 222/3/2
f 222/3/2 221/3/2 223/3/2
f 224/2/2 225/2/2 226/2/2
f 226/2/2 225/2/2 227/2/2
f 226/1/2 227/1/2 228/1/2
f 228/1/2 227/1/2 229/1/2
f 228/2/2 229/2/2 230/2/2
f 230/2/2 229/2/2 231/2/2
f 230/1/2 231/1/2 234/1/2
f 234/1/2 231/1/2 235/1/2
f 234/3/2 235/3/2 236/3/2
f 236/3/2 235/3/2 237/3/2
f 232/1/2 233/1/2 238/1/2
f 238/1/2 233/1/2 239/1/2
f 238/3/2 239/3/2 240/3/2
f 240/3/2 239/3/2 241/3/2
f 242/2/2 243/2/2 244/2/2
f 244/2/2 243/2/2 245/2/2
f 244/3/2 245/3/2 246/3/2
f 246/3/2 245/3/2 247/3/2
f 254/2/3 249/2/3 248/2/3
f 255/1/3 250/1/3 249/1/3
f 255/2/3 249/2/3 254/2/3
f 256/3/3 251/3/3 250/3/3
f 256/1/3 250/1/3 255/1/3
f 257/3/3 251/3/3 256/3/3
f 258/3/3 253/3/3 252/3/3
f 259/3/3 253/3/3 258/3/3
f 262/3/3 261/3/3 260/3/3
f 263/3/3 261/3/3 262/3/3
f 266/3/3 265/3/3 264/3/3
f 267/3/3 265/3/3 266/3/3
f 274/3/3 269/3/3 268/3/3
f 275/3/3 269/3/3 274/3/3
f 278/1/3 271/1/3 270/1/3
f 279/2/3 272/2/3 271/2/3
f 279/1/3 271/1/3 278/1/3
f 280/3/3 273/3/3 272/3/3
f 280/2/3 272/2/3 279/2/3
f 281/3/3 273/3/3 280/3/3
f 282/2/3 275/2/3 274/2/3
f 282/2/3 276/2/3 275/2/3
f 283/2/3 276/2/3 282/2/3
f 284/2/3 276/2/3 283/2/3
f 285/3/3 277/3/3 276/3/3
f 285/2/3 276/2/3 284/2/3
f 286/3/3 277/3/3 285/3/3
f 292/3/3 288/3/3 287/3/3
f 293/3/3 288/3/3 292/3/3
f 294/2/3 290/2/3 289/2/3
f 295/3/3 291/3/3 290/3/3
f 295/2/3 290/2/3 294/2/3
f 296/3/3 291/3/3 295/3/3
f 298/2/3 294/2/3 289/2/3
f 299/3/3 295/3/3 294/3/3
f 299/2/3 294/2/3 298/2/3
f 300/3/3 295/3/3 299/3/3
f 305/2/3 303/2/3 302/2/3
f 305/3/3 304/3/3 303/3/3
f 306/3/3 304/3/3 305/3/3
f 308/1/3 298/1/3 297/1/3
f 309/2/3 300/2/3 299/2/3
f 309/1/3 298/1/3 308/1/3
f 309/2/3 299/2/3 298/2/3
f 309/2/3 301/2/3 300/2/3
f 310/1/3 302/1/3 301/1/3
f 310/2/3 301/2/3 309/2/3
f 311/2/3 306/2/3 305/2/3
f 311/1/3 302/1/3 310/1/3
f 311/2/3 305/2/3 302/2/3
f 312/2/3 306/2/3 311/2/3
f 313/1/3 307/1/3 306/1/3
f 313/2/3 306/2/3 312/2/3
f 314/1/3 307/1/3 313/1/3
f 315/3/3 314/3/3 313/3/3
f 315/2/3 313/2/3 312/2/3
f 316/3/3 314/3/3 315/3/3
f 320/2/3 315/2/3 312/2/3
f 321/1/3 316/1/3 315/1/3
f 321/2/3 315/2/3 320/2/3
f 322/2/3 317/2/3 316/2/3
f 322/1/3 316/1/3 321/1/3
f 323/1/3 318/1/3 317/1/3
f 323/2/3 317/2/3 322/2/3
f 324/3/3 319/3/3 318/3/3
f 324/1/3 318/1/3 323/1/3
f 325/3/3 319/3/3 324/3/3
f 331/2/3 327/2/3 326/2/3
f 333/1/3 329/1/3 328/1/3
f 334/3/3 330/3/3 329/3/3
f 334/1/3 329/1/3 333/1/3
f 335/3/3 330/3/3 334/3/3
f 336/2/3 331/2/3 326/2/3
f 337/3/3 332/3/3 331/3/3
f 337/2/3 331/2/3 336/2/3
f 338/3/3 332/3/3 337/3/3
f 339/3/3 332/3/3 338/3/3
f 350/1/3 341/1/3 340/1/3
f 351/2/3 342/2/3 341/2/3
f 351/1/3 341/1/3 350/1/3
f 352/3/3 343/3/3 342/3/3
f 352/2/3 342/2/3 351/2/3
f 353/3/3 343/3/3 352/3/3
f 354/2/3 345/2/3 344/2/3
f 355/3/3 346/3/3 345/3/3
f 355/2/3 345/2/3 354/2/3
f 356/3/3 346/3/3 355/3/3
f 357/3/3 349/3/3 348/3/3
f 357/2/3 348/2/3 347/2/3
f 358/3/3 349/3/3 357/3/3
f 360/2/3 357/2/3 347/2/3
f 360/2/3 358/2/3 357/2/3
f 361/3/3 359/3/3 358/3/3
f 361/2/3 358/2/3 360/2/3
f 362/3/3 359/3/3 361/3/3
f 367/1/3 364/1/3 363/1/3
f 368/1/3 364/1/3 367/1/3
f 369/3/3 365/3/3 364/3/3
f 369/1/3 364/1/3 368/1/3
f 370/3/3 365/3/3 369/3/3
f 371/3/3 368/3/3 367/3/3
f 371/1/3 367/1/3 366/1/3
f 372/3/3 368/3/3 371/3/3
f 374/1/3 371/1/3 366/1/3
f 374/1/3 372/1/3 371/1/3
f 375/3/3 373/3/3 372/3/3
f 375/1/3 372/1/3 374/1/3
f 376/3/3 373/3/3 375/3/3
f 377/1/4 378/1/4 380/1/4
f 378/3/4 379/3/4 381/3/4
f 380/1/4 378/1/4 381/1/4
f 381/3/4 379/3/4 382/3/4
f 383/3/4 384/3/4 385/3/4
f 385/3/4 384/3/4 386/3/4
f 387/3/4 388/3/4 389/3/4
f 389/3/4 388/3/4 390/3/4
f 391/3/4 392/3/4 393/3/4
f 393/3/4 392/3/4 394/3/4
f 395/3/4 396/3/4 400/3/4
f 400/3/4 396/3/4 401/3/4
f 397/2/4 398/2/4 402/2/4
f 398/3/4 399/3/4 403/3/4
f 402/2/4 398/2/4 403/2/4
f 403/3/4 399/3/4 404/3/4
f 405/2/4 406/2/4 408/2/4
f 406/3/4 407/3/4 409/3/4
f 408/2/4 406/2/4 409/2/4
f 409/3/4 407/3/4 410/3/4
f 397/2/4 402/2/4 411/2/4
f 402/3/4 403/3/4 412/3/4
f 411/2/4 402/2/4 412/2/4
f 412/3/4 403/3/4 413/3/4
f 414/2/4 415/2/4 417/2/4
f 415/3/4 416/3/4 417/3/4
f 417/3/4 416/3/4 418/3/4
f 414/2/4 417/2/4 422/2/4
f 417/1/4 418/1/4 423/1/4
f 422/2/4 417/2/4 423/2/4
f 418/2/4 419/2/4 424/2/4
f 423/1/4 418/1/4 424/1/4
f 419/1/4 420/1/4 425/1/4
f 424/2/4 419/2/4 425/2/4
f 420/3/4 421/3/4 426/3/4
f 425/1/4 420/1/4 426/1/4
f 426/3/4 421/3/4 427/3/4
f 428/3/4 429/3/4 436/3/4
f 430/2/4 431/2/4 438/2/4
f 431/1/4 432/1/4 438/1/4
f 432/2/4 433/2/4 439/2/4
f 438/1/4 432/1/4 439/1/4
f 433/1/4 434/1/4 440/1/4
f 439/2/4 433/2/4 440/2/4
f 434/3/4 435/3/4 441/3/4
f 440/1/4 434/1/4 441/1/4
f 441/3/4 435/3/4 442/3/4
f 436/3/4 437/3/4 443/3/4
f 428/3/4 436/3/4 443/3/4
f 443/3/4 437/3/4 444/3/4
f 430/2/4 438/2/4 449/2/4
f 443/2/4 444/2/4 450/2/4
f 444/2/4 445/2/4 450/2/4
f 450/2/4 445/2/4 451/2/4
f 445/1/4 446/1/4 452/1/4
f 451/2/4 445/2/4 452/2/4
f 438/3/4 439/3/4 453/3/4
f 448/2/4 449/2/4 453/2/4
f 449/2/4 438/2/4 453/2/4
f 453/3/4 439/3/4 454/3/4
f 452/1/4 446/1/4 459/1/4
f 446/2/4 447/2/4 460/2/4
f 459/1/4 446/1/4 460/1/4
f 460/2/4 447/2/4 461/2/4
f 461/2/4 447/2/4 462/2/4
f 462/2/4 447/2/4 463/2/4
f 447/1/4 448/1/4 464/1/4
f 463/2/4 447/2/4 464/2/4
f 448/2/4 453/2/4 465/2/4
f 464/1/4 448/1/4 465/1/4
f 453/1/4 454/1/4 466/1/4
f 465/2/4 453/2/4 466/2/4
f 466/1/4 454/1/4 467/1/4
f 455/1/4 456/1/4 468/1/4
f 456/2/4 457/2/4 469/2/4
f 468/1/4 456/1/4 469/1/4
f 457/3/4 458/3/4 470/3/4
f 469/2/4 457/2/4 470/2/4
f 470/3/4 458/3/4 471/3/4
f 461/2/4 462/2/4 472/2/4
f 462/3/4 463/3/4 472/3/4
f 472/3/4 463/3/4 473/3/4
f 461/2/4 472/2/4 475/2/4
f 472/2/4 473/2/4 475/2/4
f 473/3/4 474/3/4 476/3/4
f 475/2/4 473/2/4 476/2/4
f 476/3/4 474/3/4 477/3/4
f 478/2/4 479/2/4 481/2/4
f 479/3/4 480/3/4 482/3/4
f 481/2/4 479/2/4 482/2/4
f 482/3/4 480/3/4 483/3/4
f 484/2/4 485/2/4 488/2/4
f 485/1/4 486/1/4 489/1/4
f 488/2/4 485/2/4 489/2/4
f 489/1/4 486/1/4 490/1/4
f 490/1/4 486/1/4 491/1/4
f 486/3/4 487/3/4 492/3/4
f 491/1/4 486/1/4 492/1/4
f 492/3/4 487/3/4 493/3/4
f 490/3/4 491/3/4 494/3/4
f 489/1/4 490/1/4 494/1/4
f 494/3/4 491/3/4 495/3/4
f 489/1/4 494/1/4 497/1/4
f 494/1/4 495/1/4 497/1/4
f 495/3/4 496/3/4 498/3/4
f 497/1/4 495/1/4 498/1/4
f 498/3/4 496/3/4 499/3/4
f 503/3/5 501/3/5 500/3/5
f 504/3/5 501/3/5 503/3/5
f 508/3/5 503/3/5 502/3/5
f 508/3/5 504/3/5 503/3/5
f 508/3/5 505/3/5 504/3/5
f 509/3/5 505/3/5 508/3/5
f 510/3/5 505/3/5 509/3/5
f 511/3/5 505/3/5 510/3/5
f 513/3/5 507/3/5 506/3/5
f 514/2/5 508/2/5 507/2/5
f 515/1/5 509/1/5 508/1/5
f 515/2/5 508/2/5 514/2/5
f 516/3/5 510/3/5 509/3/5
f 516/1/5 509/1/5 515/1/5
f 517/3/5 510/3/5 516/3/5
f 518/3/5 513/3/5 512/3/5
f 519/3/5 507/3/5 513/3/5
f 519/3/5 513/3/5 518/3/5
f 520/2/5 514/2/5 507/2/5
f 520/3/5 507/3/5 519/3/5
f 521/1/5 515/1/5 514/1/5
f 521/2/5 514/2/5 520/2/5
f 522/2/5 516/2/5 515/2/5
f 522/1/5 515/1/5 521/1/5
f 523/2/5 516/2/5 522/2/5
f 525/3/5 520/3/5 519/3/5
f 525/3/5 521/3/5 520/3/5
f 526/2/5 524/2/5 523/2/5
f 526/3/5 521/3/5 525/3/5
f 526/2/5 523/2/5 522/2/5
f 526/2/5 522/2/5 521/2/5
f 527/2/5 524/2/5 526/2/5
f 528/2/5 524/2/5 527/2/5
f 529/2/5 524/2/5 528/2/5
f 532/2/5 531/2/5 530/2/5
f 533/2/5 531/2/5 532/2/5
f 536/2/5 535/2/5 534/2/5
f 537/2/5 535/2/5 536/2/5
f 542/2/5 539/2/5 538/2/5
f 543/2/5 539/2/5 542/2/5
f 544/2/5 541/2/5 540/2/5
f 545/2/5 541/2/5 544/2/5
f 548/1/5 547/1/5 546/1/5
f 549/1/5 547/1/5 548/1/5
f 552/2/5 551/2/5 550/2/5
f 553/2/5 551/2/5 552/2/5
f 556/2/5 555/2/5 554/2/5
f 557/2/5 555/2/5 556/2/5
f 560/1/5 559/1/5 558/1/5
f 561/1/5 559/1/5 560/1/5
f 562/3/6 563/3/6 565/3/6
f 565/3/6 563/3/6 566/3/6
f 564/3/6 565/3/6 570/3/6
f 565/3/6 566/3/6 570/3/6
f 566/3/6 567/3/6 570/3/6
f 570/3/6 567/3/6 571/3/6
f 571/3/6 567/3/6 572/3/6
f 572/3/6 567/3/6 573/3/6
f 568/3/6 569/3/6 575/3/6
f 571/3/6 572/3/6 576/3/6
f 576/3/6 572/3/6 577/3/6
f 574/3/6 575/3/6 578/3/6
f 575/3/6 569/3/6 579/3/6
f 578/3/6 575/3/6 579/3/6
f 579/3/6 569/3/6 580/3/6
f 579/3/6 580/3/6 581/3/6
f 581/3/6 580/3/6 582/3/6
f 583/3/6 584/3/6 585/3/6
f 585/3/6 584/3/6 586/3/6
f 587/3/6 588/3/6 590/3/6
f 589/3/6 590/3/6 591/3/6
f 590/3/6 588/3/6 592/3/6
f 591/3/6 590/3/6 592/3/6
f 593/3/6 594/3/6 595/3/6
f 595/3/6 594/3/6 596/3/6
f 593/3/6 595/3/6 597/3/6
f 597/3/6 595/3/6 598/3/6
f 599/3/6 600/3/6 601/3/6
f 601/3/6 600/3/6 602/3/6
f 603/3/6 604/3/6 605/3/6
f 605/3/6 604/3/6 606/3/6
f 607/3/6 608/3/6 609/3/6
f 609/3/6 608/3/6 610/3/6
f 611/3/6 612/3/6 613/3/6
f 613/3/6 612/3/6 614/3/6
f 615/3/6 616/3/6 617/3/6
f 617/3/6 616/3/6 618/3/6
f 619/3/6 620/3/6 623/3/6
f 623/3/6 620/3/6 624/3/6
f 621/3/6 622/3/6 625/3/6
f 625/3/6 622/3/6 626/3/6
f 627/3/6 628/3/6 629/3/6
f 629/3/6 628/3/6 630/3/6
f 633/3/6 634/3/6 635/3/6
f 635/3/6 634/3/6 636/3/6
f 631/3/6 632/3/6 637/3/6
f 637/3/6 632/3/6 638/3/6
f 639/3/6 640/3/6 641/3/6
f 641/3/6 640/3/6 642/3/6
f 643/3/6 644/3/6 647/3/6
f 647/3/6 644/3/6 648/3/6
f 645/3/6 646/3/6 649/3/6
f 649/3/6 646/3/6 650/3/6
f 651/3/6 652/3/6 653/3/6
f 653/3/6 652/3/6 654/3/6
f 655/3/6 656/3/6 657/3/6
f 657/3/6 656/3/6 658/3/6
f 659/3/6 660/3/6 661/3/6
f 661/3/6 660/3/6 662/3/6
f 663/3/6 664/3/6 665/3/6
f 665/3/6 664/3/6 666/3/6
f 667/3/6 668/3/6 669/3/6
f 669/3/6 668/3/6 670/3/6
