# MagicaVoxel @ Ephtracy

# group
o 

# material
mtllib bush1.mtl
usemtl palette

# normals
vn -1 0 0
vn 1 0 0
vn 0 0 1
vn 0 0 -1
vn 0 -1 0
vn 0 1 0

# texcoords
vt 0.111328 0.5
vt 0.119141 0.5
vt 0.513672 0.5
vt 0.556641 0.5

# verts
v -0.4 0.4 0.0999999
v -0.4 0.4 -0.4
v -0.4 0.5 0.0999999
v -0.4 0.5 -0.4
v -0.4 0.6 0.0999999
v -0.4 0.6 -0.4
v -0.4 0.7 0.0999999
v -0.4 0.7 -0.4
v -0.3 0.2 -0.1
v -0.3 0.2 -0.2
v -0.3 0.4 -0.1
v -0.3 0.4 -0.2
v -0.2 0.7 -7.45058e-08
v -0.2 0.7 -0.3
v -0.2 0.8 -7.45058e-08
v -0.2 0.8 -0.3
v -0.2 0.9 -7.45058e-08
v -0.2 0.9 -0.3
v -0.1 0 -0.1
v -0.1 0 -0.2
v -0.1 0.2 -0.1
v -0.1 0.2 -0.2
v -0.1 0.3 -0.1
v -0.1 0.3 -0.2
v -0.1 0.4 -0.1
v -0.1 0.4 -0.2
v 0 0.5 0.0999999
v 0 0.5 -0.1
v 0 0.5 -0.2
v 0 0.5 -0.4
v 0 0.6 0.0999999
v 0 0.6 -7.45058e-08
v 0 0.6 -0.1
v 0 0.6 -0.2
v 0 0.6 -0.3
v 0 0.6 -0.4
v 0 0.8 0.0999999
v 0 0.8 -7.45058e-08
v 0 0.8 -0.3
v 0 0.8 -0.4
v 0.1 0.4 -0.1
v 0.1 0.4 -0.2
v 0.1 0.5 -0.1
v 0.1 0.5 -0.2
v -0.2 0.3 -0.1
v -0.2 0.3 -0.2
v -0.2 0.4 -0.1
v -0.2 0.4 -0.2
v -0.1 0.4 0.0999999
v -0.1 0.4 -0.1
v -0.1 0.4 -0.2
v -0.1 0.4 -0.4
v -0.1 0.5 0.0999999
v -0.1 0.5 -0.1
v -0.1 0.5 -0.2
v -0.1 0.5 -0.4
v -0.1 0.6 0.0999999
v -0.1 0.6 -7.45058e-08
v -0.1 0.6 -0.1
v -0.1 0.6 -0.2
v -0.1 0.6 -0.3
v -0.1 0.6 -0.4
v -0.1 0.7 0.0999999
v -0.1 0.7 -7.45058e-08
v -0.1 0.7 -0.3
v -0.1 0.7 -0.4
v 0 0 -0.1
v 0 0 -0.2
v 0 0.2 -0.1
v 0 0.2 -0.2
v 0 0.3 -0.1
v 0 0.3 -0.2
v 0 0.4 -0.1
v 0 0.4 -0.2
v 0 0.5 -0.1
v 0 0.5 -0.2
v 0.1 0.8 -7.45058e-08
v 0.1 0.8 -0.3
v 0.1 0.9 -7.45058e-08
v 0.1 0.9 -0.3
v 0.2 0.3 -0.1
v 0.2 0.3 -0.2
v 0.2 0.5 -0.1
v 0.2 0.5 -0.2
v 0.3 0.5 0.0999999
v 0.3 0.5 -0.4
v 0.3 0.6 0.0999999
v 0.3 0.6 -0.4
v 0.3 0.8 0.0999999
v 0.3 0.8 -0.4
v -0.4 0.4 0.0999999
v -0.4 0.5 0.0999999
v -0.4 0.6 0.0999999
v -0.4 0.7 0.0999999
v -0.1 0.4 0.0999999
v -0.1 0.5 0.0999999
v -0.1 0.6 0.0999999
v -0.1 0.7 0.0999999
v 0 0.5 0.0999999
v 0 0.6 0.0999999
v 0 0.8 0.0999999
v 0.3 0.5 0.0999999
v 0.3 0.6 0.0999999
v 0.3 0.8 0.0999999
v -0.2 0.7 -7.45058e-08
v -0.2 0.8 -7.45058e-08
v -0.2 0.9 -7.45058e-08
v -0.1 0.6 -7.45058e-08
v -0.1 0.7 -7.45058e-08
v 0 0.6 -7.45058e-08
v 0 0.8 -7.45058e-08
v 0.1 0.8 -7.45058e-08
v 0.1 0.9 -7.45058e-08
v -0.3 0.2 -0.1
v -0.3 0.4 -0.1
v -0.2 0.3 -0.1
v -0.2 0.4 -0.1
v -0.1 0 -0.1
v -0.1 0.2 -0.1
v -0.1 0.3 -0.1
v -0.1 0.4 -0.1
v -0.1 0.5 -0.1
v -0.1 0.6 -0.1
v 0 0 -0.1
v 0 0.2 -0.1
v 0 0.3 -0.1
v 0 0.4 -0.1
v 0 0.5 -0.1
v 0 0.6 -0.1
v 0.1 0.4 -0.1
v 0.1 0.5 -0.1
v 0.2 0.3 -0.1
v 0.2 0.5 -0.1
v -0.3 0.2 -0.2
v -0.3 0.4 -0.2
v -0.2 0.3 -0.2
v -0.2 0.4 -0.2
v -0.1 0 -0.2
v -0.1 0.2 -0.2
v -0.1 0.3 -0.2
v -0.1 0.4 -0.2
v -0.1 0.5 -0.2
v -0.1 0.6 -0.2
v 0 0 -0.2
v 0 0.2 -0.2
v 0 0.3 -0.2
v 0 0.4 -0.2
v 0 0.5 -0.2
v 0 0.6 -0.2
v 0.1 0.4 -0.2
v 0.1 0.5 -0.2
v 0.2 0.3 -0.2
v 0.2 0.5 -0.2
v -0.2 0.7 -0.3
v -0.2 0.8 -0.3
v -0.2 0.9 -0.3
v -0.1 0.6 -0.3
v -0.1 0.7 -0.3
v 0 0.6 -0.3
v 0 0.8 -0.3
v 0.1 0.8 -0.3
v 0.1 0.9 -0.3
v -0.4 0.4 -0.4
v -0.4 0.5 -0.4
v -0.4 0.6 -0.4
v -0.4 0.7 -0.4
v -0.1 0.4 -0.4
v -0.1 0.5 -0.4
v -0.1 0.6 -0.4
v -0.1 0.7 -0.4
v 0 0.5 -0.4
v 0 0.6 -0.4
v 0 0.8 -0.4
v 0.3 0.5 -0.4
v 0.3 0.6 -0.4
v 0.3 0.8 -0.4
v -0.1 0 -0.1
v 0 0 -0.1
v -0.1 0 -0.2
v 0 0 -0.2
v -0.3 0.2 -0.1
v -0.1 0.2 -0.1
v -0.3 0.2 -0.2
v -0.1 0.2 -0.2
v 0 0.3 -0.1
v 0.2 0.3 -0.1
v 0 0.3 -0.2
v 0.2 0.3 -0.2
v -0.4 0.4 0.0999999
v -0.1 0.4 0.0999999
v -0.3 0.4 -0.1
v -0.2 0.4 -0.1
v -0.1 0.4 -0.1
v -0.3 0.4 -0.2
v -0.2 0.4 -0.2
v -0.1 0.4 -0.2
v -0.4 0.4 -0.4
v -0.1 0.4 -0.4
v 0 0.5 0.0999999
v 0.3 0.5 0.0999999
v 0 0.5 -0.1
v 0.1 0.5 -0.1
v 0.2 0.5 -0.1
v 0 0.5 -0.2
v 0.1 0.5 -0.2
v 0.2 0.5 -0.2
v 0 0.5 -0.4
v 0.3 0.5 -0.4
v -0.1 0.6 -7.45058e-08
v 0 0.6 -7.45058e-08
v -0.1 0.6 -0.1
v 0 0.6 -0.1
v -0.1 0.6 -0.2
v 0 0.6 -0.2
v -0.1 0.6 -0.3
v 0 0.6 -0.3
v -0.2 0.3 -0.1
v -0.1 0.3 -0.1
v -0.2 0.3 -0.2
v -0.1 0.3 -0.2
v 0 0.4 -0.1
v 0.1 0.4 -0.1
v 0 0.4 -0.2
v 0.1 0.4 -0.2
v -0.4 0.7 0.0999999
v -0.1 0.7 0.0999999
v -0.2 0.7 -7.45058e-08
v -0.1 0.7 -7.45058e-08
v -0.2 0.7 -0.3
v -0.1 0.7 -0.3
v -0.4 0.7 -0.4
v -0.1 0.7 -0.4
v 0 0.8 0.0999999
v 0.3 0.8 0.0999999
v 0 0.8 -7.45058e-08
v 0.1 0.8 -7.45058e-08
v 0 0.8 -0.3
v 0.1 0.8 -0.3
v 0 0.8 -0.4
v 0.3 0.8 -0.4
v -0.2 0.9 -7.45058e-08
v 0.1 0.9 -7.45058e-08
v -0.2 0.9 -0.3
v 0.1 0.9 -0.3

# faces
f 3/3/1 2/3/1 1/3/1
f 4/3/1 2/3/1 3/3/1
f 5/4/1 4/4/1 3/4/1
f 6/4/1 4/4/1 5/4/1
f 7/3/1 6/3/1 5/3/1
f 8/3/1 6/3/1 7/3/1
f 11/2/1 10/2/1 9/2/1
f 12/2/1 10/2/1 11/2/1
f 15/3/1 14/3/1 13/3/1
f 16/3/1 14/3/1 15/3/1
f 17/4/1 16/4/1 15/4/1
f 18/4/1 16/4/1 17/4/1
f 21/1/1 20/1/1 19/1/1
f 22/1/1 20/1/1 21/1/1
f 25/2/1 24/2/1 23/2/1
f 26/2/1 24/2/1 25/2/1
f 31/4/1 28/4/1 27/4/1
f 32/4/1 28/4/1 31/4/1
f 33/4/1 28/4/1 32/4/1
f 34/4/1 30/4/1 29/4/1
f 35/4/1 30/4/1 34/4/1
f 36/4/1 30/4/1 35/4/1
f 37/3/1 32/3/1 31/3/1
f 38/3/1 32/3/1 37/3/1
f 39/3/1 36/3/1 35/3/1
f 40/3/1 36/3/1 39/3/1
f 43/2/1 42/2/1 41/2/1
f 44/2/1 42/2/1 43/2/1
f 45/2/2 46/2/2 47/2/2
f 47/2/2 46/2/2 48/2/2
f 49/3/2 50/3/2 53/3/2
f 53/3/2 50/3/2 54/3/2
f 51/3/2 52/3/2 55/3/2
f 55/3/2 52/3/2 56/3/2
f 53/4/2 54/4/2 57/4/2
f 57/4/2 54/4/2 58/4/2
f 58/4/2 54/4/2 59/4/2
f 55/4/2 56/4/2 60/4/2
f 60/4/2 56/4/2 61/4/2
f 61/4/2 56/4/2 62/4/2
f 57/3/2 58/3/2 63/3/2
f 63/3/2 58/3/2 64/3/2
f 61/3/2 62/3/2 65/3/2
f 65/3/2 62/3/2 66/3/2
f 67/1/2 68/1/2 69/1/2
f 69/1/2 68/1/2 70/1/2
f 69/2/2 70/2/2 71/2/2
f 71/2/2 70/2/2 72/2/2
f 73/2/2 74/2/2 75/2/2
f 75/2/2 74/2/2 76/2/2
f 77/4/2 78/4/2 79/4/2
f 79/4/2 78/4/2 80/4/2
f 81/2/2 82/2/2 83/2/2
f 83/2/2 82/2/2 84/2/2
f 85/4/2 86/4/2 87/4/2
f 87/4/2 86/4/2 88/4/2
f 87/3/2 88/3/2 89/3/2
f 89/3/2 88/3/2 90/3/2
f 95/3/3 92/3/3 91/3/3
f 96/4/3 93/4/3 92/4/3
f 96/3/3 92/3/3 95/3/3
f 97/3/3 94/3/3 93/3/3
f 97/4/3 93/4/3 96/4/3
f 98/3/3 94/3/3 97/3/3
f 102/4/3 100/4/3 99/4/3
f 103/3/3 101/3/3 100/3/3
f 103/4/3 100/4/3 102/4/3
f 104/3/3 101/3/3 103/3/3
f 109/3/3 106/3/3 105/3/3
f 110/3/3 109/3/3 108/3/3
f 111/4/3 107/4/3 106/4/3
f 111/3/3 109/3/3 110/3/3
f 111/3/3 106/3/3 109/3/3
f 112/4/3 107/4/3 111/4/3
f 113/4/3 107/4/3 112/4/3
f 116/2/3 115/2/3 114/2/3
f 117/2/3 115/2/3 116/2/3
f 119/2/3 116/2/3 114/2/3
f 120/2/3 116/2/3 119/2/3
f 124/1/3 119/1/3 118/1/3
f 125/2/3 121/2/3 120/2/3
f 125/1/3 119/1/3 124/1/3
f 125/2/3 120/2/3 119/2/3
f 125/2/3 122/2/3 121/2/3
f 126/2/3 122/2/3 125/2/3
f 127/2/3 122/2/3 126/2/3
f 128/4/3 123/4/3 122/4/3
f 128/2/3 122/2/3 127/2/3
f 129/4/3 123/4/3 128/4/3
f 130/2/3 127/2/3 126/2/3
f 132/2/3 130/2/3 126/2/3
f 132/2/3 131/2/3 130/2/3
f 133/2/3 131/2/3 132/2/3
f 134/2/4 135/2/4 136/2/4
f 136/2/4 135/2/4 137/2/4
f 134/2/4 136/2/4 139/2/4
f 139/2/4 136/2/4 140/2/4
f 138/1/4 139/1/4 144/1/4
f 140/2/4 141/2/4 145/2/4
f 144/1/4 139/1/4 145/1/4
f 139/2/4 140/2/4 145/2/4
f 141/2/4 142/2/4 145/2/4
f 145/2/4 142/2/4 146/2/4
f 146/2/4 142/2/4 147/2/4
f 142/4/4 143/4/4 148/4/4
f 147/2/4 142/2/4 148/2/4
f 148/4/4 143/4/4 149/4/4
f 146/2/4 147/2/4 150/2/4
f 146/2/4 150/2/4 152/2/4
f 150/2/4 151/2/4 152/2/4
f 152/2/4 151/2/4 153/2/4
f 154/3/4 155/3/4 158/3/4
f 157/3/4 158/3/4 159/3/4
f 155/4/4 156/4/4 160/4/4
f 159/3/4 158/3/4 160/3/4
f 158/3/4 155/3/4 160/3/4
f 160/4/4 156/4/4 161/4/4
f 161/4/4 156/4/4 162/4/4
f 163/3/4 164/3/4 167/3/4
f 164/4/4 165/4/4 168/4/4
f 167/3/4 164/3/4 168/3/4
f 165/3/4 166/3/4 169/3/4
f 168/4/4 165/4/4 169/4/4
f 169/3/4 166/3/4 170/3/4
f 171/4/4 172/4/4 174/4/4
f 172/3/4 173/3/4 175/3/4
f 174/4/4 172/4/4 175/4/4
f 175/3/4 173/3/4 176/3/4
f 179/1/5 178/1/5 177/1/5
f 180/1/5 178/1/5 179/1/5
f 183/2/5 182/2/5 181/2/5
f 184/2/5 182/2/5 183/2/5
f 187/2/5 186/2/5 185/2/5
f 188/2/5 186/2/5 187/2/5
f 191/3/5 190/3/5 189/3/5
f 192/3/5 190/3/5 191/3/5
f 193/3/5 190/3/5 192/3/5
f 194/3/5 191/3/5 189/3/5
f 195/3/5 193/3/5 192/3/5
f 196/3/5 193/3/5 195/3/5
f 197/3/5 194/3/5 189/3/5
f 197/3/5 195/3/5 194/3/5
f 197/3/5 196/3/5 195/3/5
f 198/3/5 196/3/5 197/3/5
f 201/4/5 200/4/5 199/4/5
f 202/4/5 200/4/5 201/4/5
f 203/4/5 200/4/5 202/4/5
f 204/4/5 202/4/5 201/4/5
f 205/4/5 202/4/5 204/4/5
f 206/4/5 200/4/5 203/4/5
f 207/4/5 205/4/5 204/4/5
f 207/4/5 206/4/5 205/4/5
f 208/4/5 200/4/5 206/4/5
f 208/4/5 206/4/5 207/4/5
f 211/3/5 210/3/5 209/3/5
f 212/3/5 210/3/5 211/3/5
f 215/3/5 214/3/5 213/3/5
f 216/3/5 214/3/5 215/3/5
f 217/2/6 218/2/6 219/2/6
f 219/2/6 218/2/6 220/2/6
f 221/2/6 222/2/6 223/2/6
f 223/2/6 222/2/6 224/2/6
f 225/3/6 226/3/6 227/3/6
f 227/3/6 226/3/6 228/3/6
f 225/3/6 227/3/6 229/3/6
f 225/3/6 229/3/6 231/3/6
f 229/3/6 230/3/6 231/3/6
f 231/3/6 230/3/6 232/3/6
f 233/3/6 234/3/6 235/3/6
f 235/3/6 234/3/6 236/3/6
f 236/3/6 234/3/6 238/3/6
f 237/3/6 238/3/6 239/3/6
f 238/3/6 234/3/6 240/3/6
f 239/3/6 238/3/6 240/3/6
f 241/4/6 242/4/6 243/4/6
f 243/4/6 242/4/6 244/4/6
