# MagicaVoxel @ Ephtracy

# group
o 

# material
mtllib tree3.mtl
usemtl palette

# normals
vn -1 0 0
vn 1 0 0
vn 0 0 1
vn 0 0 -1
vn 0 -1 0
vn 0 1 0

# texcoords
vt 0.111328 0.5
vt 0.556641 0.5

# verts
v -0.5 0.7 0.2
v -0.5 0.7 -0.1
v -0.5 1 0.2
v -0.5 1 -0.1
v -0.5 1.4 0.5
v -0.5 1.4 -0.5
v -0.5 2.1 0.5
v -0.5 2.1 -0.5
v -0.4 0.5 0.1
v -0.4 0.5 0
v -0.4 0.7 0.1
v -0.4 0.7 0
v -0.4 1.3 0.4
v -0.4 1.3 -0.4
v -0.4 1.4 0.4
v -0.4 1.4 -0.4
v -0.4 2.1 0.4
v -0.4 2.1 -0.4
v -0.4 2.2 0.4
v -0.4 2.2 -0.4
v -0.1 0 0.1
v -0.1 0 -0.1
v -0.1 0.5 0.1
v -0.1 0.5 0
v -0.1 0.6 0.1
v -0.1 0.6 0
v -0.1 1.3 0.1
v -0.1 1.3 -0.1
v 0.2 0.8 0.1
v 0.2 0.8 -0.2
v 0.2 1.1 0.1
v 0.2 1.1 -0.2
v 0.3 0.7 0
v 0.3 0.7 -0.1
v 0.3 0.8 0
v 0.3 0.8 -0.1
v -0.3 0.6 0.1
v -0.3 0.6 0
v -0.3 0.7 0.1
v -0.3 0.7 0
v -0.2 0.7 0.2
v -0.2 0.7 -0.1
v -0.2 1 0.2
v -0.2 1 -0.1
v 0.1 0 0.1
v 0.1 0 -0.1
v 0.1 0.6 0
v 0.1 0.6 -0.1
v 0.1 0.7 0
v 0.1 0.7 -0.1
v 0.1 1.3 0.1
v 0.1 1.3 -0.1
v 0.4 0.6 0
v 0.4 0.6 -0.1
v 0.4 0.8 0
v 0.4 0.8 -0.1
v 0.4 1.3 0.4
v 0.4 1.3 -0.4
v 0.4 1.4 0.4
v 0.4 1.4 -0.4
v 0.4 2.1 0.4
v 0.4 2.1 -0.4
v 0.4 2.2 0.4
v 0.4 2.2 -0.4
v 0.5 0.8 0.1
v 0.5 0.8 -0.2
v 0.5 1.1 0.1
v 0.5 1.1 -0.2
v 0.5 1.4 0.5
v 0.5 1.4 -0.5
v 0.5 2.1 0.5
v 0.5 2.1 -0.5
v -0.5 1.4 0.5
v -0.5 2.1 0.5
v 0.5 1.4 0.5
v 0.5 2.1 0.5
v -0.4 1.3 0.4
v -0.4 1.4 0.4
v -0.4 2.1 0.4
v -0.4 2.2 0.4
v 0.4 1.3 0.4
v 0.4 1.4 0.4
v 0.4 2.1 0.4
v 0.4 2.2 0.4
v -0.5 0.7 0.2
v -0.5 1 0.2
v -0.2 0.7 0.2
v -0.2 1 0.2
v -0.4 0.5 0.1
v -0.4 0.7 0.1
v -0.3 0.6 0.1
v -0.3 0.7 0.1
v -0.1 0 0.1
v -0.1 0.5 0.1
v -0.1 0.6 0.1
v -0.1 1.3 0.1
v 0.1 0 0.1
v 0.1 1.3 0.1
v 0.2 0.8 0.1
v 0.2 1.1 0.1
v 0.5 0.8 0.1
v 0.5 1.1 0.1
v 0.1 0.6 0
v 0.1 0.7 0
v 0.3 0.7 0
v 0.3 0.8 0
v 0.4 0.6 0
v 0.4 0.8 0
v -0.4 0.5 0
v -0.4 0.7 0
v -0.3 0.6 0
v -0.3 0.7 0
v -0.1 0.5 0
v -0.1 0.6 0
v -0.5 0.7 -0.1
v -0.5 1 -0.1
v -0.2 0.7 -0.1
v -0.2 1 -0.1
v -0.1 0 -0.1
v -0.1 1.3 -0.1
v 0.1 0 -0.1
v 0.1 0.6 -0.1
v 0.1 0.7 -0.1
v 0.1 1.3 -0.1
v 0.3 0.7 -0.1
v 0.3 0.8 -0.1
v 0.4 0.6 -0.1
v 0.4 0.8 -0.1
v 0.2 0.8 -0.2
v 0.2 1.1 -0.2
v 0.5 0.8 -0.2
v 0.5 1.1 -0.2
v -0.4 1.3 -0.4
v -0.4 1.4 -0.4
v -0.4 2.1 -0.4
v -0.4 2.2 -0.4
v 0.4 1.3 -0.4
v 0.4 1.4 -0.4
v 0.4 2.1 -0.4
v 0.4 2.2 -0.4
v -0.5 1.4 -0.5
v -0.5 2.1 -0.5
v 0.5 1.4 -0.5
v 0.5 2.1 -0.5
v -0.1 0 0.1
v 0.1 0 0.1
v -0.1 0 -0.1
v 0.1 0 -0.1
v -0.4 0.5 0.1
v -0.1 0.5 0.1
v -0.4 0.5 0
v -0.1 0.5 0
v 0.1 0.6 0
v 0.4 0.6 0
v 0.1 0.6 -0.1
v 0.4 0.6 -0.1
v -0.5 0.7 0.2
v -0.2 0.7 0.2
v -0.4 0.7 0.1
v -0.3 0.7 0.1
v -0.4 0.7 0
v -0.3 0.7 0
v -0.5 0.7 -0.1
v -0.2 0.7 -0.1
v 0.2 0.8 0.1
v 0.5 0.8 0.1
v 0.3 0.8 0
v 0.4 0.8 0
v 0.3 0.8 -0.1
v 0.4 0.8 -0.1
v 0.2 0.8 -0.2
v 0.5 0.8 -0.2
v -0.4 1.3 0.4
v 0.4 1.3 0.4
v -0.1 1.3 0.1
v 0.1 1.3 0.1
v -0.1 1.3 -0.1
v 0.1 1.3 -0.1
v -0.4 1.3 -0.4
v 0.4 1.3 -0.4
v -0.5 1.4 0.5
v 0.5 1.4 0.5
v -0.4 1.4 0.4
v 0.4 1.4 0.4
v -0.4 1.4 -0.4
v 0.4 1.4 -0.4
v -0.5 1.4 -0.5
v 0.5 1.4 -0.5
v -0.3 0.6 0.1
v -0.1 0.6 0.1
v -0.3 0.6 0
v -0.1 0.6 0
v 0.1 0.7 0
v 0.3 0.7 0
v 0.1 0.7 -0.1
v 0.3 0.7 -0.1
v -0.5 1 0.2
v -0.2 1 0.2
v -0.5 1 -0.1
v -0.2 1 -0.1
v 0.2 1.1 0.1
v 0.5 1.1 0.1
v 0.2 1.1 -0.2
v 0.5 1.1 -0.2
v -0.5 2.1 0.5
v 0.5 2.1 0.5
v -0.4 2.1 0.4
v 0.4 2.1 0.4
v -0.4 2.1 -0.4
v 0.4 2.1 -0.4
v -0.5 2.1 -0.5
v 0.5 2.1 -0.5
v -0.4 2.2 0.4
v 0.4 2.2 0.4
v -0.4 2.2 -0.4
v 0.4 2.2 -0.4

# faces
f 3/2/1 2/2/1 1/2/1
f 4/2/1 2/2/1 3/2/1
f 7/2/1 6/2/1 5/2/1
f 8/2/1 6/2/1 7/2/1
f 11/1/1 10/1/1 9/1/1
f 12/1/1 10/1/1 11/1/1
f 15/2/1 14/2/1 13/2/1
f 16/2/1 14/2/1 15/2/1
f 19/2/1 18/2/1 17/2/1
f 20/2/1 18/2/1 19/2/1
f 23/1/1 22/1/1 21/1/1
f 24/1/1 22/1/1 23/1/1
f 26/1/1 22/1/1 24/1/1
f 27/1/1 26/1/1 25/1/1
f 28/1/1 22/1/1 26/1/1
f 28/1/1 26/1/1 27/1/1
f 31/2/1 30/2/1 29/2/1
f 32/2/1 30/2/1 31/2/1
f 35/1/1 34/1/1 33/1/1
f 36/1/1 34/1/1 35/1/1
f 37/1/2 38/1/2 39/1/2
f 39/1/2 38/1/2 40/1/2
f 41/2/2 42/2/2 43/2/2
f 43/2/2 42/2/2 44/2/2
f 45/1/2 46/1/2 47/1/2
f 47/1/2 46/1/2 48/1/2
f 45/1/2 47/1/2 49/1/2
f 45/1/2 49/1/2 51/1/2
f 49/1/2 50/1/2 51/1/2
f 51/1/2 50/1/2 52/1/2
f 53/1/2 54/1/2 55/1/2
f 55/1/2 54/1/2 56/1/2
f 57/2/2 58/2/2 59/2/2
f 59/2/2 58/2/2 60/2/2
f 61/2/2 62/2/2 63/2/2
f 63/2/2 62/2/2 64/2/2
f 65/2/2 66/2/2 67/2/2
f 67/2/2 66/2/2 68/2/2
f 69/2/2 70/2/2 71/2/2
f 71/2/2 70/2/2 72/2/2
f 75/2/3 74/2/3 73/2/3
f 76/2/3 74/2/3 75/2/3
f 81/2/3 78/2/3 77/2/3
f 82/2/3 78/2/3 81/2/3
f 83/2/3 80/2/3 79/2/3
f 84/2/3 80/2/3 83/2/3
f 87/2/3 86/2/3 85/2/3
f 88/2/3 86/2/3 87/2/3
f 91/1/3 90/1/3 89/1/3
f 92/1/3 90/1/3 91/1/3
f 94/1/3 91/1/3 89/1/3
f 95/1/3 91/1/3 94/1/3
f 97/1/3 95/1/3 94/1/3
f 97/1/3 96/1/3 95/1/3
f 97/1/3 94/1/3 93/1/3
f 98/1/3 96/1/3 97/1/3
f 101/2/3 100/2/3 99/2/3
f 102/2/3 100/2/3 101/2/3
f 105/1/3 104/1/3 103/1/3
f 107/1/3 105/1/3 103/1/3
f 107/1/3 106/1/3 105/1/3
f 108/1/3 106/1/3 107/1/3
f 109/1/4 110/1/4 111/1/4
f 111/1/4 110/1/4 112/1/4
f 109/1/4 111/1/4 113/1/4
f 113/1/4 111/1/4 114/1/4
f 115/2/4 116/2/4 117/2/4
f 117/2/4 116/2/4 118/2/4
f 119/1/4 120/1/4 121/1/4
f 121/1/4 120/1/4 122/1/4
f 122/1/4 120/1/4 123/1/4
f 123/1/4 120/1/4 124/1/4
f 122/1/4 123/1/4 125/1/4
f 122/1/4 125/1/4 127/1/4
f 125/1/4 126/1/4 127/1/4
f 127/1/4 126/1/4 128/1/4
f 129/2/4 130/2/4 131/2/4
f 131/2/4 130/2/4 132/2/4
f 133/2/4 134/2/4 137/2/4
f 137/2/4 134/2/4 138/2/4
f 135/2/4 136/2/4 139/2/4
f 139/2/4 136/2/4 140/2/4
f 141/2/4 142/2/4 143/2/4
f 143/2/4 142/2/4 144/2/4
f 147/1/5 146/1/5 145/1/5
f 148/1/5 146/1/5 147/1/5
f 151/1/5 150/1/5 149/1/5
f 152/1/5 150/1/5 151/1/5
f 155/1/5 154/1/5 153/1/5
f 156/1/5 154/1/5 155/1/5
f 159/2/5 158/2/5 157/2/5
f 160/2/5 158/2/5 159/2/5
f 161/2/5 159/2/5 157/2/5
f 162/2/5 158/2/5 160/2/5
f 163/2/5 161/2/5 157/2/5
f 163/2/5 162/2/5 161/2/5
f 164/2/5 158/2/5 162/2/5
f 164/2/5 162/2/5 163/2/5
f 167/2/5 166/2/5 165/2/5
f 168/2/5 166/2/5 167/2/5
f 169/2/5 167/2/5 165/2/5
f 170/2/5 166/2/5 168/2/5
f 171/2/5 169/2/5 165/2/5
f 171/2/5 170/2/5 169/2/5
f 172/2/5 166/2/5 170/2/5
f 172/2/5 170/2/5 171/2/5
f 175/2/5 174/2/5 173/2/5
f 176/2/5 174/2/5 175/2/5
f 177/2/5 175/2/5 173/2/5
f 178/2/5 174/2/5 176/2/5
f 179/2/5 177/2/5 173/2/5
f 179/2/5 178/2/5 177/2/5
f 180/2/5 174/2/5 178/2/5
f 180/2/5 178/2/5 179/2/5
f 183/2/5 182/2/5 181/2/5
f 184/2/5 182/2/5 183/2/5
f 185/2/5 183/2/5 181/2/5
f 186/2/5 182/2/5 184/2/5
f 187/2/5 185/2/5 181/2/5
f 187/2/5 186/2/5 185/2/5
f 188/2/5 182/2/5 186/2/5
f 188/2/5 186/2/5 187/2/5
f 189/1/6 190/1/6 191/1/6
f 191/1/6 190/1/6 192/1/6
f 193/1/6 194/1/6 195/1/6
f 195/1/6 194/1/6 196/1/6
f 197/2/6 198/2/6 199/2/6
f 199/2/6 198/2/6 200/2/6
f 201/2/6 202/2/6 203/2/6
f 203/2/6 202/2/6 204/2/6
f 205/2/6 206/2/6 207/2/6
f 207/2/6 206/2/6 208/2/6
f 205/2/6 207/2/6 209/2/6
f 208/2/6 206/2/6 210/2/6
f 205/2/6 209/2/6 211/2/6
f 209/2/6 210/2/6 211/2/6
f 210/2/6 206/2/6 212/2/6
f 211/2/6 210/2/6 212/2/6
f 213/2/6 214/2/6 215/2/6
f 215/2/6 214/2/6 216/2/6
